<?xml version="1.0" encoding="utf-8" standalone="no"?>
<!DOCTYPE svg PUBLIC "-//W3C//DTD SVG 1.1//EN"
  "http://www.w3.org/Graphics/SVG/1.1/DTD/svg11.dtd">
<svg xmlns:xlink="http://www.w3.org/1999/xlink" width="864pt" height="360pt" viewBox="0 0 864 360" xmlns="http://www.w3.org/2000/svg" version="1.1">
 <metadata>
  <rdf:RDF xmlns:dc="http://purl.org/dc/elements/1.1/" xmlns:cc="http://creativecommons.org/ns#" xmlns:rdf="http://www.w3.org/1999/02/22-rdf-syntax-ns#">
   <cc:Work>
    <dc:type rdf:resource="http://purl.org/dc/dcmitype/StillImage"/>
    <dc:date>2024-06-01T22:29:09.039511</dc:date>
    <dc:format>image/svg+xml</dc:format>
    <dc:creator>
     <cc:Agent>
      <dc:title>Matplotlib v3.8.2, https://matplotlib.org/</dc:title>
     </cc:Agent>
    </dc:creator>
   </cc:Work>
  </rdf:RDF>
 </metadata>
 <defs>
  <style type="text/css">*{stroke-linejoin: round; stroke-linecap: butt}</style>
 </defs>
 <g id="figure_1">
  <g id="patch_1">
   <path d="M 0 360 
L 864 360 
L 864 0 
L 0 0 
z
" style="fill: #ffffff"/>
  </g>
  <g id="axes_1">
   <g id="patch_2">
    <path d="M 74.81 252 
L 272.818333 252 
L 272.818333 17.28 
L 74.81 17.28 
z
" style="fill: #ffffff"/>
   </g>
   <g id="PolyCollection_1">
    <defs>
     <path id="m79f68cb4da" d="M 74.81 -315.185503 
L 74.81 -212.107741 
L 96.810926 -183.429835 
L 140.812778 -193.80785 
L 184.81463 -173.177751 
L 228.816481 -210.150767 
L 272.818333 -162.88548 
L 272.818333 -279.276327 
L 272.818333 -279.276327 
L 228.816481 -321.447813 
L 184.81463 -301.788583 
L 140.812778 -310.302583 
L 96.810926 -293.192413 
L 74.81 -315.185503 
z
" style="stroke: #1f77b4; stroke-opacity: 0.2"/>
    </defs>
    <g clip-path="url(#p2379b1a494)">
     <use xlink:href="#m79f68cb4da" x="0" y="360" style="fill: #1f77b4; fill-opacity: 0.2; stroke: #1f77b4; stroke-opacity: 0.2"/>
    </g>
   </g>
   <g id="PolyCollection_2">
    <defs>
     <path id="m2066021496" d="M 74.81 -287.967754 
L 74.81 -158.185659 
L 96.810926 -134.308467 
L 140.812778 -143.911548 
L 184.81463 -118.669091 
L 228.816481 -157.735915 
L 272.818333 -122.077453 
L 272.818333 -199.054442 
L 272.818333 -199.054442 
L 228.816481 -255.133626 
L 184.81463 -195.50797 
L 140.812778 -266.970876 
L 96.810926 -242.130976 
L 74.81 -287.967754 
z
" style="stroke: #2ca02c; stroke-opacity: 0.2"/>
    </defs>
    <g clip-path="url(#p2379b1a494)">
     <use xlink:href="#m2066021496" x="0" y="360" style="fill: #2ca02c; fill-opacity: 0.2; stroke: #2ca02c; stroke-opacity: 0.2"/>
    </g>
   </g>
   <g id="PolyCollection_3">
    <defs>
     <path id="m5986941ee5" d="M 74.81 -308.421058 
L 74.81 -192.874301 
L 96.810926 -130.71645 
L 118.811852 -184.531083 
L 140.812778 -199.289453 
L 162.813704 -185.645772 
L 206.815556 -166.26951 
L 250.817407 -163.267319 
L 272.818333 -192.920086 
L 272.818333 -323.775255 
L 272.818333 -323.775255 
L 250.817407 -301.763518 
L 206.815556 -302.40432 
L 162.813704 -303.561434 
L 140.812778 -320.552165 
L 118.811852 -300.867491 
L 96.810926 -294.903638 
L 74.81 -308.421058 
z
" style="stroke: #ff7f0e; stroke-opacity: 0.2"/>
    </defs>
    <g clip-path="url(#p2379b1a494)">
     <use xlink:href="#m5986941ee5" x="0" y="360" style="fill: #ff7f0e; fill-opacity: 0.2; stroke: #ff7f0e; stroke-opacity: 0.2"/>
    </g>
   </g>
   <g id="PolyCollection_4">
    <defs>
     <path id="mf149429e43" d="M 74.81 -317.52904 
L 74.81 -228.476001 
L 96.810926 -228.514609 
L 118.811852 -236.537945 
L 140.812778 -208.655199 
L 184.81463 -237.862504 
L 272.818333 -211.093956 
L 272.818333 -314.948143 
L 272.818333 -314.948143 
L 184.81463 -323.045764 
L 140.812778 -332.050909 
L 118.811852 -328.178906 
L 96.810926 -322.292573 
L 74.81 -317.52904 
z
" style="stroke: #d62728; stroke-opacity: 0.2"/>
    </defs>
    <g clip-path="url(#p2379b1a494)">
     <use xlink:href="#mf149429e43" x="0" y="360" style="fill: #d62728; fill-opacity: 0.2; stroke: #d62728; stroke-opacity: 0.2"/>
    </g>
   </g>
   <g id="matplotlib.axis_1">
    <g id="xtick_1">
     <g id="line2d_1">
      <defs>
       <path id="md9eb5dffc6" d="M 0 0 
L 0 3.5 
" style="stroke: #000000; stroke-width: 0.8"/>
      </defs>
      <g>
       <use xlink:href="#md9eb5dffc6" x="74.81" y="252" style="stroke: #000000; stroke-width: 0.8"/>
      </g>
     </g>
     <g id="text_1">
      <!-- 1 -->
      <g transform="translate(69.72 271.1575) scale(0.16 -0.16)">
       <defs>
        <path id="DejaVuSerif-31" d="M 909 0 
L 909 331 
L 1722 331 
L 1722 4213 
L 781 3603 
L 781 4013 
L 1919 4750 
L 2350 4750 
L 2350 331 
L 3163 331 
L 3163 0 
L 909 0 
z
" transform="scale(0.015625)"/>
       </defs>
       <use xlink:href="#DejaVuSerif-31"/>
      </g>
     </g>
    </g>
    <g id="xtick_2">
     <g id="line2d_2">
      <g>
       <use xlink:href="#md9eb5dffc6" x="96.810926" y="252" style="stroke: #000000; stroke-width: 0.8"/>
      </g>
     </g>
     <g id="text_2">
      <!-- 2 -->
      <g transform="translate(91.720926 271.1575) scale(0.16 -0.16)">
       <defs>
        <path id="DejaVuSerif-32" d="M 819 3553 
L 469 3553 
L 469 4384 
Q 803 4563 1142 4656 
Q 1481 4750 1806 4750 
Q 2534 4750 2956 4397 
Q 3378 4044 3378 3438 
Q 3378 2753 2422 1800 
Q 2347 1728 2309 1691 
L 1131 513 
L 3078 513 
L 3078 1088 
L 3444 1088 
L 3444 0 
L 434 0 
L 434 341 
L 1850 1753 
Q 2319 2222 2519 2614 
Q 2719 3006 2719 3438 
Q 2719 3909 2473 4175 
Q 2228 4441 1797 4441 
Q 1350 4441 1106 4219 
Q 863 3997 819 3553 
z
" transform="scale(0.015625)"/>
       </defs>
       <use xlink:href="#DejaVuSerif-32"/>
      </g>
     </g>
    </g>
    <g id="xtick_3">
     <g id="line2d_3">
      <g>
       <use xlink:href="#md9eb5dffc6" x="118.811852" y="252" style="stroke: #000000; stroke-width: 0.8"/>
      </g>
     </g>
     <g id="text_3">
      <!-- 3 -->
      <g transform="translate(113.721852 271.1575) scale(0.16 -0.16)">
       <defs>
        <path id="DejaVuSerif-33" d="M 622 4469 
Q 988 4606 1323 4678 
Q 1659 4750 1953 4750 
Q 2638 4750 3022 4454 
Q 3406 4159 3406 3634 
Q 3406 3213 3140 2930 
Q 2875 2647 2388 2547 
Q 2963 2466 3280 2130 
Q 3597 1794 3597 1259 
Q 3597 606 3158 257 
Q 2719 -91 1894 -91 
Q 1528 -91 1179 -12 
Q 831 66 488 225 
L 488 1131 
L 838 1131 
Q 869 681 1141 450 
Q 1413 219 1906 219 
Q 2384 219 2661 495 
Q 2938 772 2938 1253 
Q 2938 1803 2653 2086 
Q 2369 2369 1819 2369 
L 1522 2369 
L 1522 2688 
L 1678 2688 
Q 2225 2688 2498 2914 
Q 2772 3141 2772 3597 
Q 2772 4006 2547 4223 
Q 2322 4441 1900 4441 
Q 1478 4441 1245 4241 
Q 1013 4041 972 3647 
L 622 3647 
L 622 4469 
z
" transform="scale(0.015625)"/>
       </defs>
       <use xlink:href="#DejaVuSerif-33"/>
      </g>
     </g>
    </g>
    <g id="xtick_4">
     <g id="line2d_4">
      <g>
       <use xlink:href="#md9eb5dffc6" x="140.812778" y="252" style="stroke: #000000; stroke-width: 0.8"/>
      </g>
     </g>
     <g id="text_4">
      <!-- 4 -->
      <g transform="translate(135.722778 271.1575) scale(0.16 -0.16)">
       <defs>
        <path id="DejaVuSerif-34" d="M 2234 1581 
L 2234 4063 
L 641 1581 
L 2234 1581 
z
M 3609 0 
L 1484 0 
L 1484 331 
L 2234 331 
L 2234 1247 
L 197 1247 
L 197 1588 
L 2241 4750 
L 2859 4750 
L 2859 1581 
L 3750 1581 
L 3750 1247 
L 2859 1247 
L 2859 331 
L 3609 331 
L 3609 0 
z
" transform="scale(0.015625)"/>
       </defs>
       <use xlink:href="#DejaVuSerif-34"/>
      </g>
     </g>
    </g>
    <g id="xtick_5">
     <g id="line2d_5">
      <g>
       <use xlink:href="#md9eb5dffc6" x="162.813704" y="252" style="stroke: #000000; stroke-width: 0.8"/>
      </g>
     </g>
     <g id="text_5">
      <!-- 5 -->
      <g transform="translate(157.723704 271.1575) scale(0.16 -0.16)">
       <defs>
        <path id="DejaVuSerif-35" d="M 3219 4666 
L 3219 4153 
L 1081 4153 
L 1081 2816 
Q 1244 2928 1461 2984 
Q 1678 3041 1947 3041 
Q 2703 3041 3140 2622 
Q 3578 2203 3578 1478 
Q 3578 738 3136 323 
Q 2694 -91 1894 -91 
Q 1572 -91 1234 -12 
Q 897 66 544 225 
L 544 1131 
L 897 1131 
Q 925 688 1179 453 
Q 1434 219 1894 219 
Q 2388 219 2653 544 
Q 2919 869 2919 1478 
Q 2919 2084 2655 2407 
Q 2391 2731 1894 2731 
Q 1613 2731 1398 2631 
Q 1184 2531 1019 2322 
L 750 2322 
L 750 4666 
L 3219 4666 
z
" transform="scale(0.015625)"/>
       </defs>
       <use xlink:href="#DejaVuSerif-35"/>
      </g>
     </g>
    </g>
    <g id="xtick_6">
     <g id="line2d_6">
      <g>
       <use xlink:href="#md9eb5dffc6" x="184.81463" y="252" style="stroke: #000000; stroke-width: 0.8"/>
      </g>
     </g>
     <g id="text_6">
      <!-- 6 -->
      <g transform="translate(179.72463 271.1575) scale(0.16 -0.16)">
       <defs>
        <path id="DejaVuSerif-36" d="M 2094 219 
Q 2534 219 2771 542 
Q 3009 866 3009 1472 
Q 3009 2078 2771 2401 
Q 2534 2725 2094 2725 
Q 1647 2725 1412 2412 
Q 1178 2100 1178 1509 
Q 1178 888 1415 553 
Q 1653 219 2094 219 
z
M 1075 2569 
Q 1288 2803 1556 2918 
Q 1825 3034 2163 3034 
Q 2859 3034 3264 2615 
Q 3669 2197 3669 1472 
Q 3669 763 3233 336 
Q 2797 -91 2069 -91 
Q 1278 -91 853 498 
Q 428 1088 428 2181 
Q 428 3406 931 4078 
Q 1434 4750 2350 4750 
Q 2597 4750 2869 4703 
Q 3141 4656 3425 4563 
L 3425 3794 
L 3072 3794 
Q 3034 4109 2831 4275 
Q 2628 4441 2284 4441 
Q 1678 4441 1381 3981 
Q 1084 3522 1075 2569 
z
" transform="scale(0.015625)"/>
       </defs>
       <use xlink:href="#DejaVuSerif-36"/>
      </g>
     </g>
    </g>
    <g id="xtick_7">
     <g id="line2d_7">
      <g>
       <use xlink:href="#md9eb5dffc6" x="206.815556" y="252" style="stroke: #000000; stroke-width: 0.8"/>
      </g>
     </g>
     <g id="text_7">
      <!-- 7 -->
      <g transform="translate(201.725556 271.1575) scale(0.16 -0.16)">
       <defs>
        <path id="DejaVuSerif-37" d="M 3609 4347 
L 1784 0 
L 1319 0 
L 3059 4153 
L 903 4153 
L 903 3578 
L 538 3578 
L 538 4666 
L 3609 4666 
L 3609 4347 
z
" transform="scale(0.015625)"/>
       </defs>
       <use xlink:href="#DejaVuSerif-37"/>
      </g>
     </g>
    </g>
    <g id="xtick_8">
     <g id="line2d_8">
      <g>
       <use xlink:href="#md9eb5dffc6" x="228.816481" y="252" style="stroke: #000000; stroke-width: 0.8"/>
      </g>
     </g>
     <g id="text_8">
      <!-- 8 -->
      <g transform="translate(223.726481 271.1575) scale(0.16 -0.16)">
       <defs>
        <path id="DejaVuSerif-38" d="M 2981 1275 
Q 2981 1775 2732 2051 
Q 2484 2328 2034 2328 
Q 1584 2328 1336 2051 
Q 1088 1775 1088 1275 
Q 1088 772 1336 495 
Q 1584 219 2034 219 
Q 2484 219 2732 495 
Q 2981 772 2981 1275 
z
M 2853 3541 
Q 2853 3966 2637 4203 
Q 2422 4441 2034 4441 
Q 1650 4441 1433 4203 
Q 1216 3966 1216 3541 
Q 1216 3113 1433 2875 
Q 1650 2638 2034 2638 
Q 2422 2638 2637 2875 
Q 2853 3113 2853 3541 
z
M 2516 2484 
Q 3047 2413 3344 2092 
Q 3641 1772 3641 1275 
Q 3641 619 3225 264 
Q 2809 -91 2034 -91 
Q 1263 -91 845 264 
Q 428 619 428 1275 
Q 428 1772 725 2092 
Q 1022 2413 1556 2484 
Q 1084 2569 832 2842 
Q 581 3116 581 3541 
Q 581 4103 968 4426 
Q 1356 4750 2034 4750 
Q 2713 4750 3100 4426 
Q 3488 4103 3488 3541 
Q 3488 3116 3236 2842 
Q 2984 2569 2516 2484 
z
" transform="scale(0.015625)"/>
       </defs>
       <use xlink:href="#DejaVuSerif-38"/>
      </g>
     </g>
    </g>
    <g id="xtick_9">
     <g id="line2d_9">
      <g>
       <use xlink:href="#md9eb5dffc6" x="250.817407" y="252" style="stroke: #000000; stroke-width: 0.8"/>
      </g>
     </g>
     <g id="text_9">
      <!-- 9 -->
      <g transform="translate(245.727407 271.1575) scale(0.16 -0.16)">
       <defs>
        <path id="DejaVuSerif-39" d="M 2994 2091 
Q 2784 1856 2512 1740 
Q 2241 1625 1900 1625 
Q 1206 1625 804 2044 
Q 403 2463 403 3188 
Q 403 3897 839 4323 
Q 1275 4750 2003 4750 
Q 2794 4750 3217 4161 
Q 3641 3572 3641 2478 
Q 3641 1253 3137 581 
Q 2634 -91 1722 -91 
Q 1475 -91 1203 -44 
Q 931 3 647 97 
L 647 872 
L 997 872 
Q 1038 556 1241 387 
Q 1444 219 1784 219 
Q 2391 219 2687 676 
Q 2984 1134 2994 2091 
z
M 1978 4441 
Q 1534 4441 1298 4117 
Q 1063 3794 1063 3188 
Q 1063 2581 1298 2256 
Q 1534 1931 1978 1931 
Q 2422 1931 2658 2245 
Q 2894 2559 2894 3150 
Q 2894 3772 2656 4106 
Q 2419 4441 1978 4441 
z
" transform="scale(0.015625)"/>
       </defs>
       <use xlink:href="#DejaVuSerif-39"/>
      </g>
     </g>
    </g>
    <g id="xtick_10">
     <g id="line2d_10">
      <g>
       <use xlink:href="#md9eb5dffc6" x="272.818333" y="252" style="stroke: #000000; stroke-width: 0.8"/>
      </g>
     </g>
     <g id="text_10">
      <!-- 10 -->
      <g transform="translate(262.638333 271.1575) scale(0.16 -0.16)">
       <defs>
        <path id="DejaVuSerif-30" d="M 2034 219 
Q 2513 219 2750 744 
Q 2988 1269 2988 2328 
Q 2988 3391 2750 3916 
Q 2513 4441 2034 4441 
Q 1556 4441 1318 3916 
Q 1081 3391 1081 2328 
Q 1081 1269 1318 744 
Q 1556 219 2034 219 
z
M 2034 -91 
Q 1275 -91 848 546 
Q 422 1184 422 2328 
Q 422 3475 848 4112 
Q 1275 4750 2034 4750 
Q 2797 4750 3222 4112 
Q 3647 3475 3647 2328 
Q 3647 1184 3222 546 
Q 2797 -91 2034 -91 
z
" transform="scale(0.015625)"/>
       </defs>
       <use xlink:href="#DejaVuSerif-31"/>
       <use xlink:href="#DejaVuSerif-30" x="63.623047"/>
      </g>
     </g>
    </g>
    <g id="text_11">
     <!-- Epoch -->
     <g transform="translate(148.404167 290.6425) scale(0.16 -0.16)">
      <defs>
       <path id="DejaVuSerif-45" d="M 353 0 
L 353 331 
L 947 331 
L 947 4331 
L 353 4331 
L 353 4666 
L 4109 4666 
L 4109 3628 
L 3725 3628 
L 3725 4281 
L 1581 4281 
L 1581 2719 
L 3109 2719 
L 3109 3303 
L 3494 3303 
L 3494 1753 
L 3109 1753 
L 3109 2338 
L 1581 2338 
L 1581 384 
L 3775 384 
L 3775 1038 
L 4159 1038 
L 4159 0 
L 353 0 
z
" transform="scale(0.015625)"/>
       <path id="DejaVuSerif-70" d="M 1313 1825 
L 1313 1497 
Q 1313 897 1542 583 
Q 1772 269 2209 269 
Q 2650 269 2876 622 
Q 3103 975 3103 1663 
Q 3103 2353 2876 2703 
Q 2650 3053 2209 3053 
Q 1772 3053 1542 2737 
Q 1313 2422 1313 1825 
z
M 738 2988 
L 184 2988 
L 184 3322 
L 1313 3322 
L 1313 2803 
Q 1481 3116 1742 3264 
Q 2003 3413 2388 3413 
Q 3000 3413 3387 2928 
Q 3775 2444 3775 1663 
Q 3775 881 3387 395 
Q 3000 -91 2388 -91 
Q 2003 -91 1742 57 
Q 1481 206 1313 519 
L 1313 -997 
L 1856 -997 
L 1856 -1331 
L 184 -1331 
L 184 -997 
L 738 -997 
L 738 2988 
z
" transform="scale(0.015625)"/>
       <path id="DejaVuSerif-6f" d="M 1925 219 
Q 2388 219 2623 584 
Q 2859 950 2859 1663 
Q 2859 2375 2623 2739 
Q 2388 3103 1925 3103 
Q 1463 3103 1227 2739 
Q 991 2375 991 1663 
Q 991 950 1228 584 
Q 1466 219 1925 219 
z
M 1925 -91 
Q 1200 -91 759 389 
Q 319 869 319 1663 
Q 319 2456 758 2934 
Q 1197 3413 1925 3413 
Q 2653 3413 3092 2934 
Q 3531 2456 3531 1663 
Q 3531 869 3092 389 
Q 2653 -91 1925 -91 
z
" transform="scale(0.015625)"/>
       <path id="DejaVuSerif-63" d="M 3291 997 
Q 3169 466 2822 187 
Q 2475 -91 1925 -91 
Q 1200 -91 759 389 
Q 319 869 319 1663 
Q 319 2459 759 2936 
Q 1200 3413 1925 3413 
Q 2241 3413 2553 3339 
Q 2866 3266 3181 3116 
L 3181 2266 
L 2847 2266 
Q 2781 2703 2561 2903 
Q 2341 3103 1931 3103 
Q 1466 3103 1228 2742 
Q 991 2381 991 1663 
Q 991 944 1227 581 
Q 1463 219 1931 219 
Q 2303 219 2525 412 
Q 2747 606 2828 997 
L 3291 997 
z
" transform="scale(0.015625)"/>
       <path id="DejaVuSerif-68" d="M 263 0 
L 263 331 
L 781 331 
L 781 4531 
L 231 4531 
L 231 4863 
L 1356 4863 
L 1356 2731 
Q 1516 3069 1770 3241 
Q 2025 3413 2363 3413 
Q 2913 3413 3172 3097 
Q 3431 2781 3431 2113 
L 3431 331 
L 3944 331 
L 3944 0 
L 2356 0 
L 2356 331 
L 2853 331 
L 2853 1931 
Q 2853 2541 2704 2764 
Q 2556 2988 2175 2988 
Q 1775 2988 1565 2697 
Q 1356 2406 1356 1850 
L 1356 331 
L 1856 331 
L 1856 0 
L 263 0 
z
" transform="scale(0.015625)"/>
      </defs>
      <use xlink:href="#DejaVuSerif-45"/>
      <use xlink:href="#DejaVuSerif-70" x="72.998047"/>
      <use xlink:href="#DejaVuSerif-6f" x="137.011719"/>
      <use xlink:href="#DejaVuSerif-63" x="197.216797"/>
      <use xlink:href="#DejaVuSerif-68" x="253.222656"/>
     </g>
    </g>
   </g>
   <g id="matplotlib.axis_2">
    <g id="ytick_1">
     <g id="line2d_11">
      <defs>
       <path id="m1ad83c6c25" d="M 0 0 
L -3.5 0 
" style="stroke: #000000; stroke-width: 0.8"/>
      </defs>
      <g>
       <use xlink:href="#m1ad83c6c25" x="74.81" y="216.572761" style="stroke: #000000; stroke-width: 0.8"/>
      </g>
     </g>
     <g id="text_12">
      <!-- 75 -->
      <g transform="translate(47.45 222.651511) scale(0.16 -0.16)">
       <use xlink:href="#DejaVuSerif-37"/>
       <use xlink:href="#DejaVuSerif-35" x="63.623047"/>
      </g>
     </g>
    </g>
    <g id="ytick_2">
     <g id="line2d_12">
      <g>
       <use xlink:href="#m1ad83c6c25" x="74.81" y="175.174908" style="stroke: #000000; stroke-width: 0.8"/>
      </g>
     </g>
     <g id="text_13">
      <!-- 100 -->
      <g transform="translate(37.27 181.253658) scale(0.16 -0.16)">
       <use xlink:href="#DejaVuSerif-31"/>
       <use xlink:href="#DejaVuSerif-30" x="63.623047"/>
       <use xlink:href="#DejaVuSerif-30" x="127.246094"/>
      </g>
     </g>
    </g>
    <g id="ytick_3">
     <g id="line2d_13">
      <g>
       <use xlink:href="#m1ad83c6c25" x="74.81" y="133.777054" style="stroke: #000000; stroke-width: 0.8"/>
      </g>
     </g>
     <g id="text_14">
      <!-- 125 -->
      <g transform="translate(37.27 139.855804) scale(0.16 -0.16)">
       <use xlink:href="#DejaVuSerif-31"/>
       <use xlink:href="#DejaVuSerif-32" x="63.623047"/>
       <use xlink:href="#DejaVuSerif-35" x="127.246094"/>
      </g>
     </g>
    </g>
    <g id="ytick_4">
     <g id="line2d_14">
      <g>
       <use xlink:href="#m1ad83c6c25" x="74.81" y="92.3792" style="stroke: #000000; stroke-width: 0.8"/>
      </g>
     </g>
     <g id="text_15">
      <!-- 150 -->
      <g transform="translate(37.27 98.45795) scale(0.16 -0.16)">
       <use xlink:href="#DejaVuSerif-31"/>
       <use xlink:href="#DejaVuSerif-35" x="63.623047"/>
       <use xlink:href="#DejaVuSerif-30" x="127.246094"/>
      </g>
     </g>
    </g>
    <g id="ytick_5">
     <g id="line2d_15">
      <g>
       <use xlink:href="#m1ad83c6c25" x="74.81" y="50.981347" style="stroke: #000000; stroke-width: 0.8"/>
      </g>
     </g>
     <g id="text_16">
      <!-- 175 -->
      <g transform="translate(37.27 57.060097) scale(0.16 -0.16)">
       <use xlink:href="#DejaVuSerif-31"/>
       <use xlink:href="#DejaVuSerif-37" x="63.623047"/>
       <use xlink:href="#DejaVuSerif-35" x="127.246094"/>
      </g>
     </g>
    </g>
    <g id="text_17">
     <!-- Match duration -->
     <g transform="translate(29.9425 197.60125) rotate(-90) scale(0.16 -0.16)">
      <defs>
       <path id="DejaVuSerif-4d" d="M 353 0 
L 353 331 
L 947 331 
L 947 4331 
L 319 4331 
L 319 4666 
L 1678 4666 
L 3316 1344 
L 4953 4666 
L 6228 4666 
L 6228 4331 
L 5606 4331 
L 5606 331 
L 6203 331 
L 6203 0 
L 4378 0 
L 4378 331 
L 4972 331 
L 4972 3938 
L 3372 684 
L 2931 684 
L 1331 3938 
L 1331 331 
L 1925 331 
L 1925 0 
L 353 0 
z
" transform="scale(0.015625)"/>
       <path id="DejaVuSerif-61" d="M 2547 1044 
L 2547 1747 
L 1806 1747 
Q 1378 1747 1168 1562 
Q 959 1378 959 997 
Q 959 650 1171 447 
Q 1384 244 1747 244 
Q 2106 244 2326 466 
Q 2547 688 2547 1044 
z
M 3122 2075 
L 3122 331 
L 3634 331 
L 3634 0 
L 2547 0 
L 2547 359 
Q 2356 128 2106 18 
Q 1856 -91 1522 -91 
Q 969 -91 644 203 
Q 319 497 319 997 
Q 319 1513 691 1797 
Q 1063 2081 1741 2081 
L 2547 2081 
L 2547 2309 
Q 2547 2688 2317 2895 
Q 2088 3103 1672 3103 
Q 1328 3103 1125 2947 
Q 922 2791 872 2484 
L 575 2484 
L 575 3156 
Q 875 3284 1158 3348 
Q 1441 3413 1709 3413 
Q 2400 3413 2761 3070 
Q 3122 2728 3122 2075 
z
" transform="scale(0.015625)"/>
       <path id="DejaVuSerif-74" d="M 691 2988 
L 184 2988 
L 184 3322 
L 691 3322 
L 691 4353 
L 1269 4353 
L 1269 3322 
L 2350 3322 
L 2350 2988 
L 1269 2988 
L 1269 878 
Q 1269 456 1350 337 
Q 1431 219 1650 219 
Q 1875 219 1978 351 
Q 2081 484 2088 781 
L 2522 781 
Q 2497 328 2275 118 
Q 2053 -91 1600 -91 
Q 1103 -91 897 129 
Q 691 350 691 878 
L 691 2988 
z
" transform="scale(0.015625)"/>
       <path id="DejaVuSerif-20" transform="scale(0.015625)"/>
       <path id="DejaVuSerif-64" d="M 3359 331 
L 3909 331 
L 3909 0 
L 2784 0 
L 2784 519 
Q 2616 206 2355 57 
Q 2094 -91 1709 -91 
Q 1097 -91 708 395 
Q 319 881 319 1663 
Q 319 2444 706 2928 
Q 1094 3413 1709 3413 
Q 2094 3413 2355 3264 
Q 2616 3116 2784 2803 
L 2784 4531 
L 2241 4531 
L 2241 4863 
L 3359 4863 
L 3359 331 
z
M 2784 1497 
L 2784 1825 
Q 2784 2422 2554 2737 
Q 2325 3053 1888 3053 
Q 1444 3053 1217 2703 
Q 991 2353 991 1663 
Q 991 975 1217 622 
Q 1444 269 1888 269 
Q 2325 269 2554 583 
Q 2784 897 2784 1497 
z
" transform="scale(0.015625)"/>
       <path id="DejaVuSerif-75" d="M 2266 3322 
L 3341 3322 
L 3341 331 
L 3884 331 
L 3884 0 
L 2766 0 
L 2766 588 
Q 2606 256 2353 82 
Q 2100 -91 1766 -91 
Q 1213 -91 952 223 
Q 691 538 691 1209 
L 691 2988 
L 172 2988 
L 172 3322 
L 1269 3322 
L 1269 1388 
Q 1269 781 1417 556 
Q 1566 331 1947 331 
Q 2347 331 2556 625 
Q 2766 919 2766 1478 
L 2766 2988 
L 2266 2988 
L 2266 3322 
z
" transform="scale(0.015625)"/>
       <path id="DejaVuSerif-72" d="M 3059 3328 
L 3059 2497 
L 2728 2497 
Q 2713 2744 2591 2866 
Q 2469 2988 2234 2988 
Q 1809 2988 1582 2694 
Q 1356 2400 1356 1850 
L 1356 331 
L 2022 331 
L 2022 0 
L 263 0 
L 263 331 
L 781 331 
L 781 2994 
L 231 2994 
L 231 3322 
L 1356 3322 
L 1356 2731 
Q 1525 3078 1790 3245 
Q 2056 3413 2438 3413 
Q 2578 3413 2733 3391 
Q 2888 3369 3059 3328 
z
" transform="scale(0.015625)"/>
       <path id="DejaVuSerif-69" d="M 622 4353 
Q 622 4497 726 4603 
Q 831 4709 978 4709 
Q 1122 4709 1226 4603 
Q 1331 4497 1331 4353 
Q 1331 4206 1228 4103 
Q 1125 4000 978 4000 
Q 831 4000 726 4103 
Q 622 4206 622 4353 
z
M 1356 331 
L 1900 331 
L 1900 0 
L 231 0 
L 231 331 
L 781 331 
L 781 2988 
L 231 2988 
L 231 3322 
L 1356 3322 
L 1356 331 
z
" transform="scale(0.015625)"/>
       <path id="DejaVuSerif-6e" d="M 263 0 
L 263 331 
L 781 331 
L 781 2988 
L 231 2988 
L 231 3322 
L 1356 3322 
L 1356 2731 
Q 1516 3069 1770 3241 
Q 2025 3413 2363 3413 
Q 2913 3413 3172 3097 
Q 3431 2781 3431 2113 
L 3431 331 
L 3944 331 
L 3944 0 
L 2356 0 
L 2356 331 
L 2853 331 
L 2853 1931 
Q 2853 2541 2703 2767 
Q 2553 2994 2175 2994 
Q 1775 2994 1565 2701 
Q 1356 2409 1356 1850 
L 1356 331 
L 1856 331 
L 1856 0 
L 263 0 
z
" transform="scale(0.015625)"/>
      </defs>
      <use xlink:href="#DejaVuSerif-4d"/>
      <use xlink:href="#DejaVuSerif-61" x="102.392578"/>
      <use xlink:href="#DejaVuSerif-74" x="162.011719"/>
      <use xlink:href="#DejaVuSerif-63" x="202.197266"/>
      <use xlink:href="#DejaVuSerif-68" x="258.203125"/>
      <use xlink:href="#DejaVuSerif-20" x="322.607422"/>
      <use xlink:href="#DejaVuSerif-64" x="354.394531"/>
      <use xlink:href="#DejaVuSerif-75" x="418.408203"/>
      <use xlink:href="#DejaVuSerif-72" x="482.8125"/>
      <use xlink:href="#DejaVuSerif-61" x="530.615234"/>
      <use xlink:href="#DejaVuSerif-74" x="590.234375"/>
      <use xlink:href="#DejaVuSerif-69" x="630.419922"/>
      <use xlink:href="#DejaVuSerif-6f" x="662.402344"/>
      <use xlink:href="#DejaVuSerif-6e" x="722.607422"/>
     </g>
    </g>
   </g>
   <g id="line2d_16">
    <path d="M 74.81 96.353384 
L 96.810926 121.688876 
L 140.812778 107.944783 
L 184.81463 122.516833 
L 228.816481 94.200716 
L 272.818333 138.919103 
" clip-path="url(#p2379b1a494)" style="fill: none; stroke: #1f77b4; stroke-width: 3; stroke-linecap: square"/>
   </g>
   <g id="line2d_17">
    <path d="M 74.81 136.923294 
L 96.810926 171.780279 
L 140.812778 154.558782 
L 184.81463 202.91147 
L 228.816481 153.565223 
L 272.818333 199.434053 
" clip-path="url(#p2379b1a494)" style="fill: none; stroke: #2ca02c; stroke-width: 3; stroke-linecap: square"/>
   </g>
   <g id="line2d_18">
    <path d="M 74.81 109.35232 
L 96.810926 147.189956 
L 118.811852 117.300713 
L 140.812778 100.079191 
L 162.813704 115.396397 
L 206.815556 125.663085 
L 250.817407 127.484575 
L 272.818333 101.65233 
" clip-path="url(#p2379b1a494)" style="fill: none; stroke: #ff7f0e; stroke-width: 3; stroke-linecap: square"/>
   </g>
   <g id="line2d_19">
    <path d="M 74.81 86.997479 
L 96.810926 84.596409 
L 118.811852 77.641575 
L 140.812778 89.646952 
L 184.81463 79.545866 
L 272.818333 96.978951 
" clip-path="url(#p2379b1a494)" style="fill: none; stroke: #d62728; stroke-width: 3; stroke-linecap: square"/>
   </g>
   <g id="patch_3">
    <path d="M 74.81 252 
L 74.81 17.28 
" style="fill: none; stroke: #000000; stroke-width: 0.8; stroke-linejoin: miter; stroke-linecap: square"/>
   </g>
   <g id="patch_4">
    <path d="M 272.818333 252 
L 272.818333 17.28 
" style="fill: none; stroke: #000000; stroke-width: 0.8; stroke-linejoin: miter; stroke-linecap: square"/>
   </g>
   <g id="patch_5">
    <path d="M 74.81 252 
L 272.818333 252 
" style="fill: none; stroke: #000000; stroke-width: 0.8; stroke-linejoin: miter; stroke-linecap: square"/>
   </g>
   <g id="patch_6">
    <path d="M 74.81 17.28 
L 272.818333 17.28 
" style="fill: none; stroke: #000000; stroke-width: 0.8; stroke-linejoin: miter; stroke-linecap: square"/>
   </g>
  </g>
  <g id="axes_2">
   <g id="patch_7">
    <path d="M 356.653333 252 
L 554.661667 252 
L 554.661667 17.28 
L 356.653333 17.28 
z
" style="fill: #ffffff"/>
   </g>
   <g id="PolyCollection_5">
    <defs>
     <path id="m72b2b6bcc5" d="M 356.653333 -270.312638 
L 356.653333 -176.724545 
L 378.654259 -168.501195 
L 422.656111 -185.929115 
L 466.657963 -177.405057 
L 510.659815 -170.082169 
L 554.661667 -181.157469 
L 554.661667 -240.237944 
L 554.661667 -240.237944 
L 510.659815 -290.825872 
L 466.657963 -270.975931 
L 422.656111 -261.518212 
L 378.654259 -241.066772 
L 356.653333 -270.312638 
z
" style="stroke: #1f77b4; stroke-opacity: 0.2"/>
    </defs>
    <g clip-path="url(#pa7f2d0b693)">
     <use xlink:href="#m72b2b6bcc5" x="0" y="360" style="fill: #1f77b4; fill-opacity: 0.2; stroke: #1f77b4; stroke-opacity: 0.2"/>
    </g>
   </g>
   <g id="PolyCollection_6">
    <defs>
     <path id="m1e927d1f12" d="M 356.653333 -206.129996 
L 356.653333 -168.397218 
L 378.654259 -145.634142 
L 422.656111 -125.710752 
L 466.657963 -118.669091 
L 510.659815 -121.201133 
L 554.661667 -132.816139 
L 554.661667 -161.734611 
L 554.661667 -161.734611 
L 510.659815 -179.476653 
L 466.657963 -155.832245 
L 422.656111 -168.485943 
L 378.654259 -173.983576 
L 356.653333 -206.129996 
z
" style="stroke: #2ca02c; stroke-opacity: 0.2"/>
    </defs>
    <g clip-path="url(#pa7f2d0b693)">
     <use xlink:href="#m1e927d1f12" x="0" y="360" style="fill: #2ca02c; fill-opacity: 0.2; stroke: #2ca02c; stroke-opacity: 0.2"/>
    </g>
   </g>
   <g id="PolyCollection_7">
    <defs>
     <path id="m6c5ed0b733" d="M 356.653333 -265.917832 
L 356.653333 -171.644189 
L 378.654259 -172.719945 
L 400.655185 -167.329264 
L 422.656111 -181.20524 
L 444.657037 -185.004616 
L 488.658889 -171.167109 
L 532.660741 -175.335768 
L 554.661667 -176.222852 
L 554.661667 -254.939129 
L 554.661667 -254.939129 
L 532.660741 -250.3525 
L 488.658889 -239.340891 
L 444.657037 -230.282609 
L 422.656111 -238.879918 
L 400.655185 -281.518138 
L 378.654259 -236.790598 
L 356.653333 -265.917832 
z
" style="stroke: #ff7f0e; stroke-opacity: 0.2"/>
    </defs>
    <g clip-path="url(#pa7f2d0b693)">
     <use xlink:href="#m6c5ed0b733" x="0" y="360" style="fill: #ff7f0e; fill-opacity: 0.2; stroke: #ff7f0e; stroke-opacity: 0.2"/>
    </g>
   </g>
   <g id="PolyCollection_8">
    <defs>
     <path id="m519b49790f" d="M 356.653333 -288.056115 
L 356.653333 -176.57398 
L 378.654259 -178.200816 
L 400.655185 -177.860407 
L 422.656111 -195.96146 
L 466.657963 -187.739785 
L 554.661667 -190.45907 
L 554.661667 -226.506429 
L 554.661667 -226.506429 
L 466.657963 -303.894458 
L 422.656111 -298.106161 
L 400.655185 -332.050909 
L 378.654259 -294.988862 
L 356.653333 -288.056115 
z
" style="stroke: #d62728; stroke-opacity: 0.2"/>
    </defs>
    <g clip-path="url(#pa7f2d0b693)">
     <use xlink:href="#m519b49790f" x="0" y="360" style="fill: #d62728; fill-opacity: 0.2; stroke: #d62728; stroke-opacity: 0.2"/>
    </g>
   </g>
   <g id="matplotlib.axis_3">
    <g id="xtick_11">
     <g id="line2d_20">
      <g>
       <use xlink:href="#md9eb5dffc6" x="356.653333" y="252" style="stroke: #000000; stroke-width: 0.8"/>
      </g>
     </g>
     <g id="text_18">
      <!-- 1 -->
      <g transform="translate(351.563333 271.1575) scale(0.16 -0.16)">
       <use xlink:href="#DejaVuSerif-31"/>
      </g>
     </g>
    </g>
    <g id="xtick_12">
     <g id="line2d_21">
      <g>
       <use xlink:href="#md9eb5dffc6" x="378.654259" y="252" style="stroke: #000000; stroke-width: 0.8"/>
      </g>
     </g>
     <g id="text_19">
      <!-- 2 -->
      <g transform="translate(373.564259 271.1575) scale(0.16 -0.16)">
       <use xlink:href="#DejaVuSerif-32"/>
      </g>
     </g>
    </g>
    <g id="xtick_13">
     <g id="line2d_22">
      <g>
       <use xlink:href="#md9eb5dffc6" x="400.655185" y="252" style="stroke: #000000; stroke-width: 0.8"/>
      </g>
     </g>
     <g id="text_20">
      <!-- 3 -->
      <g transform="translate(395.565185 271.1575) scale(0.16 -0.16)">
       <use xlink:href="#DejaVuSerif-33"/>
      </g>
     </g>
    </g>
    <g id="xtick_14">
     <g id="line2d_23">
      <g>
       <use xlink:href="#md9eb5dffc6" x="422.656111" y="252" style="stroke: #000000; stroke-width: 0.8"/>
      </g>
     </g>
     <g id="text_21">
      <!-- 4 -->
      <g transform="translate(417.566111 271.1575) scale(0.16 -0.16)">
       <use xlink:href="#DejaVuSerif-34"/>
      </g>
     </g>
    </g>
    <g id="xtick_15">
     <g id="line2d_24">
      <g>
       <use xlink:href="#md9eb5dffc6" x="444.657037" y="252" style="stroke: #000000; stroke-width: 0.8"/>
      </g>
     </g>
     <g id="text_22">
      <!-- 5 -->
      <g transform="translate(439.567037 271.1575) scale(0.16 -0.16)">
       <use xlink:href="#DejaVuSerif-35"/>
      </g>
     </g>
    </g>
    <g id="xtick_16">
     <g id="line2d_25">
      <g>
       <use xlink:href="#md9eb5dffc6" x="466.657963" y="252" style="stroke: #000000; stroke-width: 0.8"/>
      </g>
     </g>
     <g id="text_23">
      <!-- 6 -->
      <g transform="translate(461.567963 271.1575) scale(0.16 -0.16)">
       <use xlink:href="#DejaVuSerif-36"/>
      </g>
     </g>
    </g>
    <g id="xtick_17">
     <g id="line2d_26">
      <g>
       <use xlink:href="#md9eb5dffc6" x="488.658889" y="252" style="stroke: #000000; stroke-width: 0.8"/>
      </g>
     </g>
     <g id="text_24">
      <!-- 7 -->
      <g transform="translate(483.568889 271.1575) scale(0.16 -0.16)">
       <use xlink:href="#DejaVuSerif-37"/>
      </g>
     </g>
    </g>
    <g id="xtick_18">
     <g id="line2d_27">
      <g>
       <use xlink:href="#md9eb5dffc6" x="510.659815" y="252" style="stroke: #000000; stroke-width: 0.8"/>
      </g>
     </g>
     <g id="text_25">
      <!-- 8 -->
      <g transform="translate(505.569815 271.1575) scale(0.16 -0.16)">
       <use xlink:href="#DejaVuSerif-38"/>
      </g>
     </g>
    </g>
    <g id="xtick_19">
     <g id="line2d_28">
      <g>
       <use xlink:href="#md9eb5dffc6" x="532.660741" y="252" style="stroke: #000000; stroke-width: 0.8"/>
      </g>
     </g>
     <g id="text_26">
      <!-- 9 -->
      <g transform="translate(527.570741 271.1575) scale(0.16 -0.16)">
       <use xlink:href="#DejaVuSerif-39"/>
      </g>
     </g>
    </g>
    <g id="xtick_20">
     <g id="line2d_29">
      <g>
       <use xlink:href="#md9eb5dffc6" x="554.661667" y="252" style="stroke: #000000; stroke-width: 0.8"/>
      </g>
     </g>
     <g id="text_27">
      <!-- 10 -->
      <g transform="translate(544.481667 271.1575) scale(0.16 -0.16)">
       <use xlink:href="#DejaVuSerif-31"/>
       <use xlink:href="#DejaVuSerif-30" x="63.623047"/>
      </g>
     </g>
    </g>
    <g id="text_28">
     <!-- Epoch -->
     <g transform="translate(430.2475 290.6425) scale(0.16 -0.16)">
      <use xlink:href="#DejaVuSerif-45"/>
      <use xlink:href="#DejaVuSerif-70" x="72.998047"/>
      <use xlink:href="#DejaVuSerif-6f" x="137.011719"/>
      <use xlink:href="#DejaVuSerif-63" x="197.216797"/>
      <use xlink:href="#DejaVuSerif-68" x="253.222656"/>
     </g>
    </g>
   </g>
   <g id="matplotlib.axis_4">
    <g id="ytick_6">
     <g id="line2d_30">
      <g>
       <use xlink:href="#m1ad83c6c25" x="356.653333" y="234.051423" style="stroke: #000000; stroke-width: 0.8"/>
      </g>
     </g>
     <g id="text_29">
      <!-- -10 -->
      <g transform="translate(323.885833 240.130173) scale(0.16 -0.16)">
       <defs>
        <path id="DejaVuSerif-2d" d="M 281 1959 
L 1881 1959 
L 1881 1472 
L 281 1472 
L 281 1959 
z
" transform="scale(0.015625)"/>
       </defs>
       <use xlink:href="#DejaVuSerif-2d"/>
       <use xlink:href="#DejaVuSerif-31" x="33.789062"/>
       <use xlink:href="#DejaVuSerif-30" x="97.412109"/>
      </g>
     </g>
    </g>
    <g id="ytick_7">
     <g id="line2d_31">
      <g>
       <use xlink:href="#m1ad83c6c25" x="356.653333" y="184.917708" style="stroke: #000000; stroke-width: 0.8"/>
      </g>
     </g>
     <g id="text_30">
      <!-- -8 -->
      <g transform="translate(334.065833 190.996458) scale(0.16 -0.16)">
       <use xlink:href="#DejaVuSerif-2d"/>
       <use xlink:href="#DejaVuSerif-38" x="33.789062"/>
      </g>
     </g>
    </g>
    <g id="ytick_8">
     <g id="line2d_32">
      <g>
       <use xlink:href="#m1ad83c6c25" x="356.653333" y="135.783992" style="stroke: #000000; stroke-width: 0.8"/>
      </g>
     </g>
     <g id="text_31">
      <!-- -6 -->
      <g transform="translate(334.065833 141.862742) scale(0.16 -0.16)">
       <use xlink:href="#DejaVuSerif-2d"/>
       <use xlink:href="#DejaVuSerif-36" x="33.789062"/>
      </g>
     </g>
    </g>
    <g id="ytick_9">
     <g id="line2d_33">
      <g>
       <use xlink:href="#m1ad83c6c25" x="356.653333" y="86.650277" style="stroke: #000000; stroke-width: 0.8"/>
      </g>
     </g>
     <g id="text_32">
      <!-- -4 -->
      <g transform="translate(334.065833 92.729027) scale(0.16 -0.16)">
       <use xlink:href="#DejaVuSerif-2d"/>
       <use xlink:href="#DejaVuSerif-34" x="33.789062"/>
      </g>
     </g>
    </g>
    <g id="ytick_10">
     <g id="line2d_34">
      <g>
       <use xlink:href="#m1ad83c6c25" x="356.653333" y="37.516562" style="stroke: #000000; stroke-width: 0.8"/>
      </g>
     </g>
     <g id="text_33">
      <!-- -2 -->
      <g transform="translate(334.065833 43.595312) scale(0.16 -0.16)">
       <use xlink:href="#DejaVuSerif-2d"/>
       <use xlink:href="#DejaVuSerif-32" x="33.789062"/>
      </g>
     </g>
    </g>
    <g id="text_34">
     <!-- Total reward -->
     <g transform="translate(316.558333 186.38) rotate(-90) scale(0.16 -0.16)">
      <defs>
       <path id="DejaVuSerif-54" d="M 1222 0 
L 1222 331 
L 1819 331 
L 1819 4294 
L 447 4294 
L 447 3566 
L 63 3566 
L 63 4666 
L 4206 4666 
L 4206 3566 
L 3822 3566 
L 3822 4294 
L 2450 4294 
L 2450 331 
L 3047 331 
L 3047 0 
L 1222 0 
z
" transform="scale(0.015625)"/>
       <path id="DejaVuSerif-6c" d="M 1313 331 
L 1856 331 
L 1856 0 
L 184 0 
L 184 331 
L 738 331 
L 738 4531 
L 184 4531 
L 184 4863 
L 1313 4863 
L 1313 331 
z
" transform="scale(0.015625)"/>
       <path id="DejaVuSerif-65" d="M 3469 1600 
L 991 1600 
L 991 1575 
Q 991 903 1244 561 
Q 1497 219 1991 219 
Q 2369 219 2611 417 
Q 2853 616 2950 1006 
L 3413 1006 
Q 3275 459 2904 184 
Q 2534 -91 1931 -91 
Q 1203 -91 761 389 
Q 319 869 319 1663 
Q 319 2450 753 2931 
Q 1188 3413 1894 3413 
Q 2647 3413 3050 2948 
Q 3453 2484 3469 1600 
z
M 2791 1931 
Q 2772 2513 2545 2808 
Q 2319 3103 1894 3103 
Q 1497 3103 1269 2806 
Q 1041 2509 991 1931 
L 2791 1931 
z
" transform="scale(0.015625)"/>
       <path id="DejaVuSerif-77" d="M 3072 3322 
L 3922 728 
L 4672 2988 
L 4191 2988 
L 4191 3322 
L 5394 3322 
L 5394 2988 
L 5025 2988 
L 4038 0 
L 3559 0 
L 2741 2484 
L 1919 0 
L 1459 0 
L 475 2988 
L 103 2988 
L 103 3322 
L 1606 3322 
L 1606 2988 
L 1069 2988 
L 1813 728 
L 2669 3322 
L 3072 3322 
z
" transform="scale(0.015625)"/>
      </defs>
      <use xlink:href="#DejaVuSerif-54"/>
      <use xlink:href="#DejaVuSerif-6f" x="58.949219"/>
      <use xlink:href="#DejaVuSerif-74" x="119.154297"/>
      <use xlink:href="#DejaVuSerif-61" x="159.339844"/>
      <use xlink:href="#DejaVuSerif-6c" x="218.958984"/>
      <use xlink:href="#DejaVuSerif-20" x="250.941406"/>
      <use xlink:href="#DejaVuSerif-72" x="282.728516"/>
      <use xlink:href="#DejaVuSerif-65" x="330.53125"/>
      <use xlink:href="#DejaVuSerif-77" x="389.710938"/>
      <use xlink:href="#DejaVuSerif-61" x="475.306641"/>
      <use xlink:href="#DejaVuSerif-72" x="534.925781"/>
      <use xlink:href="#DejaVuSerif-64" x="582.728516"/>
     </g>
    </g>
   </g>
   <g id="line2d_35">
    <path d="M 356.653333 136.481408 
L 378.654259 155.216022 
L 422.656111 136.276336 
L 466.657963 135.809506 
L 510.659815 129.545986 
L 554.661667 149.302294 
" clip-path="url(#pa7f2d0b693)" style="fill: none; stroke: #1f77b4; stroke-width: 3; stroke-linecap: square"/>
   </g>
   <g id="line2d_36">
    <path d="M 356.653333 172.736393 
L 378.654259 200.191141 
L 422.656111 212.901653 
L 466.657963 222.749332 
L 510.659815 209.661101 
L 554.661667 212.724625 
" clip-path="url(#pa7f2d0b693)" style="fill: none; stroke: #2ca02c; stroke-width: 3; stroke-linecap: square"/>
   </g>
   <g id="line2d_37">
    <path d="M 356.653333 141.218989 
L 378.654259 155.244734 
L 400.655185 135.576296 
L 422.656111 149.957421 
L 444.657037 152.356387 
L 488.658889 154.745994 
L 532.660741 147.155866 
L 554.661667 144.419009 
" clip-path="url(#pa7f2d0b693)" style="fill: none; stroke: #ff7f0e; stroke-width: 3; stroke-linecap: square"/>
   </g>
   <g id="line2d_38">
    <path d="M 356.653333 127.684955 
L 378.654259 123.405161 
L 400.655185 105.044342 
L 422.656111 112.966187 
L 466.657963 114.182879 
L 554.661667 151.517251 
" clip-path="url(#pa7f2d0b693)" style="fill: none; stroke: #d62728; stroke-width: 3; stroke-linecap: square"/>
   </g>
   <g id="patch_8">
    <path d="M 356.653333 252 
L 356.653333 17.28 
" style="fill: none; stroke: #000000; stroke-width: 0.8; stroke-linejoin: miter; stroke-linecap: square"/>
   </g>
   <g id="patch_9">
    <path d="M 554.661667 252 
L 554.661667 17.28 
" style="fill: none; stroke: #000000; stroke-width: 0.8; stroke-linejoin: miter; stroke-linecap: square"/>
   </g>
   <g id="patch_10">
    <path d="M 356.653333 252 
L 554.661667 252 
" style="fill: none; stroke: #000000; stroke-width: 0.8; stroke-linejoin: miter; stroke-linecap: square"/>
   </g>
   <g id="patch_11">
    <path d="M 356.653333 17.28 
L 554.661667 17.28 
" style="fill: none; stroke: #000000; stroke-width: 0.8; stroke-linejoin: miter; stroke-linecap: square"/>
   </g>
  </g>
  <g id="axes_3">
   <g id="patch_12">
    <path d="M 638.496667 252 
L 836.505 252 
L 836.505 17.28 
L 638.496667 17.28 
z
" style="fill: #ffffff"/>
   </g>
   <g id="PolyCollection_9">
    <defs>
     <path id="mb89ec9df76" d="M 638.496667 -303.481151 
L 638.496667 -249.273555 
L 660.497593 -235.597306 
L 704.499444 -189.5636 
L 748.501296 -167.434796 
L 792.503148 -178.577054 
L 836.505 -172.770136 
L 836.505 -235.541796 
L 836.505 -235.541796 
L 792.503148 -228.982653 
L 748.501296 -216.883027 
L 704.499444 -250.788543 
L 660.497593 -332.050909 
L 638.496667 -303.481151 
z
" style="stroke: #1f77b4; stroke-opacity: 0.2"/>
    </defs>
    <g clip-path="url(#p6bd933133d)">
     <use xlink:href="#mb89ec9df76" x="0" y="360" style="fill: #1f77b4; fill-opacity: 0.2; stroke: #1f77b4; stroke-opacity: 0.2"/>
    </g>
   </g>
   <g id="PolyCollection_10">
    <defs>
     <path id="m492a95db86" d="M 638.496667 -138.712134 
L 638.496667 -126.190481 
L 660.497593 -124.177014 
L 704.499444 -120.973343 
L 748.501296 -118.669091 
L 792.503148 -120.64442 
L 836.505 -118.683137 
L 836.505 -123.111166 
L 836.505 -123.111166 
L 792.503148 -125.824976 
L 748.501296 -121.655898 
L 704.499444 -126.431071 
L 660.497593 -131.375417 
L 638.496667 -138.712134 
z
" style="stroke: #2ca02c; stroke-opacity: 0.2"/>
    </defs>
    <g clip-path="url(#p6bd933133d)">
     <use xlink:href="#m492a95db86" x="0" y="360" style="fill: #2ca02c; fill-opacity: 0.2; stroke: #2ca02c; stroke-opacity: 0.2"/>
    </g>
   </g>
   <g id="PolyCollection_11">
    <defs>
     <path id="m1af2982af2" d="M 638.496667 -268.945665 
L 638.496667 -174.812625 
L 660.497593 -161.472824 
L 682.498519 -173.845484 
L 704.499444 -203.567017 
L 726.50037 -191.712859 
L 770.502222 -211.775362 
L 814.504074 -203.071556 
L 836.505 -186.03884 
L 836.505 -290.979372 
L 836.505 -290.979372 
L 814.504074 -295.919591 
L 770.502222 -304.380069 
L 726.50037 -273.751211 
L 704.499444 -301.101027 
L 682.498519 -251.212433 
L 660.497593 -270.397358 
L 638.496667 -268.945665 
z
" style="stroke: #ff7f0e; stroke-opacity: 0.2"/>
    </defs>
    <g clip-path="url(#p6bd933133d)">
     <use xlink:href="#m1af2982af2" x="0" y="360" style="fill: #ff7f0e; fill-opacity: 0.2; stroke: #ff7f0e; stroke-opacity: 0.2"/>
    </g>
   </g>
   <g id="PolyCollection_12">
    <defs>
     <path id="m4a2c64c191" d="M 638.496667 -209.194448 
L 638.496667 -165.372471 
L 660.497593 -192.064654 
L 682.498519 -224.477912 
L 704.499444 -196.158758 
L 748.501296 -214.030393 
L 836.505 -191.11875 
L 836.505 -269.677646 
L 836.505 -269.677646 
L 748.501296 -314.146694 
L 704.499444 -267.635636 
L 682.498519 -288.872446 
L 660.497593 -263.247774 
L 638.496667 -209.194448 
z
" style="stroke: #d62728; stroke-opacity: 0.2"/>
    </defs>
    <g clip-path="url(#p6bd933133d)">
     <use xlink:href="#m4a2c64c191" x="0" y="360" style="fill: #d62728; fill-opacity: 0.2; stroke: #d62728; stroke-opacity: 0.2"/>
    </g>
   </g>
   <g id="matplotlib.axis_5">
    <g id="xtick_21">
     <g id="line2d_39">
      <g>
       <use xlink:href="#md9eb5dffc6" x="638.496667" y="252" style="stroke: #000000; stroke-width: 0.8"/>
      </g>
     </g>
     <g id="text_35">
      <!-- 1 -->
      <g transform="translate(633.406667 271.1575) scale(0.16 -0.16)">
       <use xlink:href="#DejaVuSerif-31"/>
      </g>
     </g>
    </g>
    <g id="xtick_22">
     <g id="line2d_40">
      <g>
       <use xlink:href="#md9eb5dffc6" x="660.497593" y="252" style="stroke: #000000; stroke-width: 0.8"/>
      </g>
     </g>
     <g id="text_36">
      <!-- 2 -->
      <g transform="translate(655.407593 271.1575) scale(0.16 -0.16)">
       <use xlink:href="#DejaVuSerif-32"/>
      </g>
     </g>
    </g>
    <g id="xtick_23">
     <g id="line2d_41">
      <g>
       <use xlink:href="#md9eb5dffc6" x="682.498519" y="252" style="stroke: #000000; stroke-width: 0.8"/>
      </g>
     </g>
     <g id="text_37">
      <!-- 3 -->
      <g transform="translate(677.408519 271.1575) scale(0.16 -0.16)">
       <use xlink:href="#DejaVuSerif-33"/>
      </g>
     </g>
    </g>
    <g id="xtick_24">
     <g id="line2d_42">
      <g>
       <use xlink:href="#md9eb5dffc6" x="704.499444" y="252" style="stroke: #000000; stroke-width: 0.8"/>
      </g>
     </g>
     <g id="text_38">
      <!-- 4 -->
      <g transform="translate(699.409444 271.1575) scale(0.16 -0.16)">
       <use xlink:href="#DejaVuSerif-34"/>
      </g>
     </g>
    </g>
    <g id="xtick_25">
     <g id="line2d_43">
      <g>
       <use xlink:href="#md9eb5dffc6" x="726.50037" y="252" style="stroke: #000000; stroke-width: 0.8"/>
      </g>
     </g>
     <g id="text_39">
      <!-- 5 -->
      <g transform="translate(721.41037 271.1575) scale(0.16 -0.16)">
       <use xlink:href="#DejaVuSerif-35"/>
      </g>
     </g>
    </g>
    <g id="xtick_26">
     <g id="line2d_44">
      <g>
       <use xlink:href="#md9eb5dffc6" x="748.501296" y="252" style="stroke: #000000; stroke-width: 0.8"/>
      </g>
     </g>
     <g id="text_40">
      <!-- 6 -->
      <g transform="translate(743.411296 271.1575) scale(0.16 -0.16)">
       <use xlink:href="#DejaVuSerif-36"/>
      </g>
     </g>
    </g>
    <g id="xtick_27">
     <g id="line2d_45">
      <g>
       <use xlink:href="#md9eb5dffc6" x="770.502222" y="252" style="stroke: #000000; stroke-width: 0.8"/>
      </g>
     </g>
     <g id="text_41">
      <!-- 7 -->
      <g transform="translate(765.412222 271.1575) scale(0.16 -0.16)">
       <use xlink:href="#DejaVuSerif-37"/>
      </g>
     </g>
    </g>
    <g id="xtick_28">
     <g id="line2d_46">
      <g>
       <use xlink:href="#md9eb5dffc6" x="792.503148" y="252" style="stroke: #000000; stroke-width: 0.8"/>
      </g>
     </g>
     <g id="text_42">
      <!-- 8 -->
      <g transform="translate(787.413148 271.1575) scale(0.16 -0.16)">
       <use xlink:href="#DejaVuSerif-38"/>
      </g>
     </g>
    </g>
    <g id="xtick_29">
     <g id="line2d_47">
      <g>
       <use xlink:href="#md9eb5dffc6" x="814.504074" y="252" style="stroke: #000000; stroke-width: 0.8"/>
      </g>
     </g>
     <g id="text_43">
      <!-- 9 -->
      <g transform="translate(809.414074 271.1575) scale(0.16 -0.16)">
       <use xlink:href="#DejaVuSerif-39"/>
      </g>
     </g>
    </g>
    <g id="xtick_30">
     <g id="line2d_48">
      <g>
       <use xlink:href="#md9eb5dffc6" x="836.505" y="252" style="stroke: #000000; stroke-width: 0.8"/>
      </g>
     </g>
     <g id="text_44">
      <!-- 10 -->
      <g transform="translate(826.325 271.1575) scale(0.16 -0.16)">
       <use xlink:href="#DejaVuSerif-31"/>
       <use xlink:href="#DejaVuSerif-30" x="63.623047"/>
      </g>
     </g>
    </g>
    <g id="text_45">
     <!-- Epoch -->
     <g transform="translate(712.090833 290.6425) scale(0.16 -0.16)">
      <use xlink:href="#DejaVuSerif-45"/>
      <use xlink:href="#DejaVuSerif-70" x="72.998047"/>
      <use xlink:href="#DejaVuSerif-6f" x="137.011719"/>
      <use xlink:href="#DejaVuSerif-63" x="197.216797"/>
      <use xlink:href="#DejaVuSerif-68" x="253.222656"/>
     </g>
    </g>
   </g>
   <g id="matplotlib.axis_6">
    <g id="ytick_11">
     <g id="line2d_49">
      <g>
       <use xlink:href="#m1ad83c6c25" x="638.496667" y="242.175052" style="stroke: #000000; stroke-width: 0.8"/>
      </g>
     </g>
     <g id="text_46">
      <!-- 0 -->
      <g transform="translate(621.316667 248.253802) scale(0.16 -0.16)">
       <use xlink:href="#DejaVuSerif-30"/>
      </g>
     </g>
    </g>
    <g id="ytick_12">
     <g id="line2d_50">
      <g>
       <use xlink:href="#m1ad83c6c25" x="638.496667" y="175.388022" style="stroke: #000000; stroke-width: 0.8"/>
      </g>
     </g>
     <g id="text_47">
      <!-- 100 -->
      <g transform="translate(600.956667 181.466772) scale(0.16 -0.16)">
       <use xlink:href="#DejaVuSerif-31"/>
       <use xlink:href="#DejaVuSerif-30" x="63.623047"/>
       <use xlink:href="#DejaVuSerif-30" x="127.246094"/>
      </g>
     </g>
    </g>
    <g id="ytick_13">
     <g id="line2d_51">
      <g>
       <use xlink:href="#m1ad83c6c25" x="638.496667" y="108.600992" style="stroke: #000000; stroke-width: 0.8"/>
      </g>
     </g>
     <g id="text_48">
      <!-- 200 -->
      <g transform="translate(600.956667 114.679742) scale(0.16 -0.16)">
       <use xlink:href="#DejaVuSerif-32"/>
       <use xlink:href="#DejaVuSerif-30" x="63.623047"/>
       <use xlink:href="#DejaVuSerif-30" x="127.246094"/>
      </g>
     </g>
    </g>
    <g id="ytick_14">
     <g id="line2d_52">
      <g>
       <use xlink:href="#m1ad83c6c25" x="638.496667" y="41.813963" style="stroke: #000000; stroke-width: 0.8"/>
      </g>
     </g>
     <g id="text_49">
      <!-- 300 -->
      <g transform="translate(600.956667 47.892713) scale(0.16 -0.16)">
       <use xlink:href="#DejaVuSerif-33"/>
       <use xlink:href="#DejaVuSerif-30" x="63.623047"/>
       <use xlink:href="#DejaVuSerif-30" x="127.246094"/>
      </g>
     </g>
    </g>
    <g id="text_50">
     <!-- Number of actions -->
     <g transform="translate(593.629167 210.01875) rotate(-90) scale(0.16 -0.16)">
      <defs>
       <path id="DejaVuSerif-4e" d="M 313 0 
L 313 331 
L 941 331 
L 941 4331 
L 313 4331 
L 313 4666 
L 1509 4666 
L 4306 984 
L 4306 4331 
L 3681 4331 
L 3681 4666 
L 5319 4666 
L 5319 4331 
L 4691 4331 
L 4691 -91 
L 4313 -91 
L 1325 3841 
L 1325 331 
L 1953 331 
L 1953 0 
L 313 0 
z
" transform="scale(0.015625)"/>
       <path id="DejaVuSerif-6d" d="M 3316 2675 
Q 3481 3041 3739 3227 
Q 3997 3413 4341 3413 
Q 4863 3413 5119 3089 
Q 5375 2766 5375 2113 
L 5375 331 
L 5894 331 
L 5894 0 
L 4300 0 
L 4300 331 
L 4800 331 
L 4800 2047 
Q 4800 2556 4650 2772 
Q 4500 2988 4153 2988 
Q 3769 2988 3567 2697 
Q 3366 2406 3366 1850 
L 3366 331 
L 3866 331 
L 3866 0 
L 2291 0 
L 2291 331 
L 2791 331 
L 2791 2069 
Q 2791 2566 2641 2777 
Q 2491 2988 2144 2988 
Q 1759 2988 1557 2697 
Q 1356 2406 1356 1850 
L 1356 331 
L 1856 331 
L 1856 0 
L 263 0 
L 263 331 
L 781 331 
L 781 2994 
L 231 2994 
L 231 3322 
L 1356 3322 
L 1356 2731 
Q 1516 3063 1762 3238 
Q 2009 3413 2322 3413 
Q 2709 3413 2968 3220 
Q 3228 3028 3316 2675 
z
" transform="scale(0.015625)"/>
       <path id="DejaVuSerif-62" d="M 738 331 
L 738 4531 
L 184 4531 
L 184 4863 
L 1313 4863 
L 1313 2803 
Q 1481 3116 1742 3264 
Q 2003 3413 2388 3413 
Q 3000 3413 3387 2928 
Q 3775 2444 3775 1663 
Q 3775 881 3387 395 
Q 3000 -91 2388 -91 
Q 2003 -91 1742 57 
Q 1481 206 1313 519 
L 1313 0 
L 184 0 
L 184 331 
L 738 331 
z
M 1313 1497 
Q 1313 897 1542 583 
Q 1772 269 2209 269 
Q 2650 269 2876 622 
Q 3103 975 3103 1663 
Q 3103 2353 2876 2703 
Q 2650 3053 2209 3053 
Q 1772 3053 1542 2737 
Q 1313 2422 1313 1825 
L 1313 1497 
z
" transform="scale(0.015625)"/>
       <path id="DejaVuSerif-66" d="M 2753 4078 
L 2450 4078 
Q 2447 4313 2317 4434 
Q 2188 4556 1941 4556 
Q 1619 4556 1487 4379 
Q 1356 4203 1356 3750 
L 1356 3322 
L 2284 3322 
L 2284 2988 
L 1356 2988 
L 1356 331 
L 2094 331 
L 2094 0 
L 231 0 
L 231 331 
L 781 331 
L 781 2988 
L 231 2988 
L 231 3322 
L 781 3322 
L 781 3738 
Q 781 4294 1070 4578 
Q 1359 4863 1919 4863 
Q 2128 4863 2337 4825 
Q 2547 4788 2753 4709 
L 2753 4078 
z
" transform="scale(0.015625)"/>
       <path id="DejaVuSerif-73" d="M 359 184 
L 359 959 
L 691 959 
Q 703 588 923 403 
Q 1144 219 1575 219 
Q 1963 219 2166 364 
Q 2369 509 2369 788 
Q 2369 1006 2220 1140 
Q 2072 1275 1594 1428 
L 1178 1569 
Q 750 1706 558 1912 
Q 366 2119 366 2438 
Q 366 2894 700 3153 
Q 1034 3413 1625 3413 
Q 1888 3413 2178 3344 
Q 2469 3275 2778 3144 
L 2778 2419 
L 2447 2419 
Q 2434 2741 2221 2922 
Q 2009 3103 1644 3103 
Q 1281 3103 1095 2975 
Q 909 2847 909 2591 
Q 909 2381 1050 2254 
Q 1191 2128 1613 1997 
L 2069 1856 
Q 2541 1709 2748 1489 
Q 2956 1269 2956 922 
Q 2956 450 2595 179 
Q 2234 -91 1600 -91 
Q 1278 -91 972 -22 
Q 666 47 359 184 
z
" transform="scale(0.015625)"/>
      </defs>
      <use xlink:href="#DejaVuSerif-4e"/>
      <use xlink:href="#DejaVuSerif-75" x="87.5"/>
      <use xlink:href="#DejaVuSerif-6d" x="151.904297"/>
      <use xlink:href="#DejaVuSerif-62" x="246.728516"/>
      <use xlink:href="#DejaVuSerif-65" x="310.742188"/>
      <use xlink:href="#DejaVuSerif-72" x="369.921875"/>
      <use xlink:href="#DejaVuSerif-20" x="417.724609"/>
      <use xlink:href="#DejaVuSerif-6f" x="449.511719"/>
      <use xlink:href="#DejaVuSerif-66" x="509.716797"/>
      <use xlink:href="#DejaVuSerif-20" x="546.728516"/>
      <use xlink:href="#DejaVuSerif-61" x="578.515625"/>
      <use xlink:href="#DejaVuSerif-63" x="638.134766"/>
      <use xlink:href="#DejaVuSerif-74" x="694.140625"/>
      <use xlink:href="#DejaVuSerif-69" x="734.326172"/>
      <use xlink:href="#DejaVuSerif-6f" x="766.308594"/>
      <use xlink:href="#DejaVuSerif-6e" x="826.513672"/>
      <use xlink:href="#DejaVuSerif-73" x="890.917969"/>
     </g>
    </g>
   </g>
   <g id="line2d_53">
    <path d="M 638.496667 83.622647 
L 660.497593 76.175887 
L 704.499444 139.823929 
L 748.501296 167.841086 
L 792.503148 156.220146 
L 836.505 155.844031 
" clip-path="url(#p6bd933133d)" style="fill: none; stroke: #1f77b4; stroke-width: 3; stroke-linecap: square"/>
   </g>
   <g id="line2d_54">
    <path d="M 638.496667 227.548692 
L 660.497593 232.223785 
L 704.499444 236.297793 
L 748.501296 239.837506 
L 792.503148 236.765302 
L 836.505 239.102848 
" clip-path="url(#p6bd933133d)" style="fill: none; stroke: #2ca02c; stroke-width: 3; stroke-linecap: square"/>
   </g>
   <g id="line2d_55">
    <path d="M 638.496667 138.120857 
L 660.497593 144.064909 
L 682.498519 147.471042 
L 704.499444 107.665978 
L 726.50037 127.267965 
L 770.502222 101.922289 
L 814.504074 110.504427 
L 836.505 121.490891 
" clip-path="url(#p6bd933133d)" style="fill: none; stroke: #ff7f0e; stroke-width: 3; stroke-linecap: square"/>
   </g>
   <g id="line2d_56">
    <path d="M 638.496667 172.716541 
L 660.497593 132.343783 
L 682.498519 103.324821 
L 704.499444 128.102803 
L 748.501296 95.911457 
L 836.505 129.601802 
" clip-path="url(#p6bd933133d)" style="fill: none; stroke: #d62728; stroke-width: 3; stroke-linecap: square"/>
   </g>
   <g id="patch_13">
    <path d="M 638.496667 252 
L 638.496667 17.28 
" style="fill: none; stroke: #000000; stroke-width: 0.8; stroke-linejoin: miter; stroke-linecap: square"/>
   </g>
   <g id="patch_14">
    <path d="M 836.505 252 
L 836.505 17.28 
" style="fill: none; stroke: #000000; stroke-width: 0.8; stroke-linejoin: miter; stroke-linecap: square"/>
   </g>
   <g id="patch_15">
    <path d="M 638.496667 252 
L 836.505 252 
" style="fill: none; stroke: #000000; stroke-width: 0.8; stroke-linejoin: miter; stroke-linecap: square"/>
   </g>
   <g id="patch_16">
    <path d="M 638.496667 17.28 
L 836.505 17.28 
" style="fill: none; stroke: #000000; stroke-width: 0.8; stroke-linejoin: miter; stroke-linecap: square"/>
   </g>
  </g>
  <g id="legend_1">
   <g id="line2d_57">
    <path d="M 114.53625 313.1875 
L 130.53625 313.1875 
L 146.53625 313.1875 
" style="fill: none; stroke: #1f77b4; stroke-width: 3; stroke-linecap: square"/>
   </g>
   <g id="text_51">
    <!-- DT 4L step50 -->
    <g transform="translate(159.33625 318.7875) scale(0.16 -0.16)">
     <defs>
      <path id="DejaVuSerif-44" d="M 1581 331 
L 2163 331 
Q 3072 331 3558 850 
Q 4044 1369 4044 2338 
Q 4044 3306 3559 3818 
Q 3075 4331 2163 4331 
L 1581 4331 
L 1581 331 
z
M 353 0 
L 353 331 
L 947 331 
L 947 4331 
L 353 4331 
L 353 4666 
L 2209 4666 
Q 3416 4666 4089 4050 
Q 4763 3434 4763 2338 
Q 4763 1238 4088 619 
Q 3413 0 2209 0 
L 353 0 
z
" transform="scale(0.015625)"/>
      <path id="DejaVuSerif-4c" d="M 353 0 
L 353 331 
L 947 331 
L 947 4331 
L 353 4331 
L 353 4666 
L 2175 4666 
L 2175 4331 
L 1581 4331 
L 1581 384 
L 3713 384 
L 3713 1166 
L 4097 1166 
L 4097 0 
L 353 0 
z
" transform="scale(0.015625)"/>
     </defs>
     <use xlink:href="#DejaVuSerif-44"/>
     <use xlink:href="#DejaVuSerif-54" x="80.175781"/>
     <use xlink:href="#DejaVuSerif-20" x="146.875"/>
     <use xlink:href="#DejaVuSerif-34" x="178.662109"/>
     <use xlink:href="#DejaVuSerif-4c" x="242.285156"/>
     <use xlink:href="#DejaVuSerif-20" x="308.691406"/>
     <use xlink:href="#DejaVuSerif-73" x="340.478516"/>
     <use xlink:href="#DejaVuSerif-74" x="391.796875"/>
     <use xlink:href="#DejaVuSerif-65" x="431.982422"/>
     <use xlink:href="#DejaVuSerif-70" x="491.162109"/>
     <use xlink:href="#DejaVuSerif-35" x="555.175781"/>
     <use xlink:href="#DejaVuSerif-30" x="618.798828"/>
    </g>
   </g>
   <g id="line2d_58">
    <path d="M 114.53625 336.6725 
L 130.53625 336.6725 
L 146.53625 336.6725 
" style="fill: none; stroke: #2ca02c; stroke-width: 3; stroke-linecap: square"/>
   </g>
   <g id="text_52">
    <!-- StARformer 2L step50 (Discrete actions) -->
    <g transform="translate(159.33625 342.2725) scale(0.16 -0.16)">
     <defs>
      <path id="DejaVuSerif-53" d="M 594 225 
L 594 1288 
L 953 1284 
Q 969 753 1261 498 
Q 1553 244 2150 244 
Q 2706 244 2998 464 
Q 3291 684 3291 1106 
Q 3291 1444 3114 1625 
Q 2938 1806 2369 1978 
L 1753 2163 
Q 1084 2366 811 2669 
Q 538 2972 538 3500 
Q 538 4094 959 4422 
Q 1381 4750 2144 4750 
Q 2469 4750 2856 4679 
Q 3244 4609 3681 4475 
L 3681 3481 
L 3328 3481 
Q 3275 3975 2998 4195 
Q 2722 4416 2156 4416 
Q 1663 4416 1405 4214 
Q 1147 4013 1147 3628 
Q 1147 3294 1340 3103 
Q 1534 2913 2163 2725 
L 2741 2553 
Q 3375 2363 3645 2067 
Q 3916 1772 3916 1275 
Q 3916 597 3481 253 
Q 3047 -91 2188 -91 
Q 1803 -91 1404 -12 
Q 1006 66 594 225 
z
" transform="scale(0.015625)"/>
      <path id="DejaVuSerif-41" d="M 1281 1691 
L 2994 1691 
L 2138 3909 
L 1281 1691 
z
M -38 0 
L -38 331 
L 372 331 
L 2034 4666 
L 2559 4666 
L 4225 331 
L 4684 331 
L 4684 0 
L 2988 0 
L 2988 331 
L 3506 331 
L 3116 1356 
L 1153 1356 
L 763 331 
L 1275 331 
L 1275 0 
L -38 0 
z
" transform="scale(0.015625)"/>
      <path id="DejaVuSerif-52" d="M 3066 2316 
Q 3284 2256 3442 2114 
Q 3600 1972 3725 1716 
L 4403 331 
L 4972 331 
L 4972 0 
L 3872 0 
L 3144 1484 
Q 2934 1916 2759 2042 
Q 2584 2169 2278 2169 
L 1581 2169 
L 1581 331 
L 2241 331 
L 2241 0 
L 353 0 
L 353 331 
L 947 331 
L 947 4331 
L 353 4331 
L 353 4666 
L 2719 4666 
Q 3400 4666 3770 4341 
Q 4141 4016 4141 3419 
Q 4141 2938 3870 2661 
Q 3600 2384 3066 2316 
z
M 1581 2503 
L 2503 2503 
Q 2975 2503 3200 2726 
Q 3425 2950 3425 3419 
Q 3425 3888 3200 4109 
Q 2975 4331 2503 4331 
L 1581 4331 
L 1581 2503 
z
" transform="scale(0.015625)"/>
      <path id="DejaVuSerif-28" d="M 2041 -997 
Q 1281 -656 893 83 
Q 506 822 506 1931 
Q 506 3044 893 3783 
Q 1281 4522 2041 4863 
L 2041 4556 
Q 1559 4225 1350 3623 
Q 1141 3022 1141 1931 
Q 1141 844 1350 242 
Q 1559 -359 2041 -691 
L 2041 -997 
z
" transform="scale(0.015625)"/>
      <path id="DejaVuSerif-29" d="M 453 -997 
L 453 -691 
Q 934 -359 1145 242 
Q 1356 844 1356 1931 
Q 1356 3022 1145 3623 
Q 934 4225 453 4556 
L 453 4863 
Q 1216 4522 1603 3783 
Q 1991 3044 1991 1931 
Q 1991 822 1603 83 
Q 1216 -656 453 -997 
z
" transform="scale(0.015625)"/>
     </defs>
     <use xlink:href="#DejaVuSerif-53"/>
     <use xlink:href="#DejaVuSerif-74" x="68.505859"/>
     <use xlink:href="#DejaVuSerif-41" x="108.691406"/>
     <use xlink:href="#DejaVuSerif-52" x="180.908203"/>
     <use xlink:href="#DejaVuSerif-66" x="256.201172"/>
     <use xlink:href="#DejaVuSerif-6f" x="293.212891"/>
     <use xlink:href="#DejaVuSerif-72" x="353.417969"/>
     <use xlink:href="#DejaVuSerif-6d" x="401.220703"/>
     <use xlink:href="#DejaVuSerif-65" x="496.044922"/>
     <use xlink:href="#DejaVuSerif-72" x="555.224609"/>
     <use xlink:href="#DejaVuSerif-20" x="603.027344"/>
     <use xlink:href="#DejaVuSerif-32" x="634.814453"/>
     <use xlink:href="#DejaVuSerif-4c" x="698.4375"/>
     <use xlink:href="#DejaVuSerif-20" x="764.84375"/>
     <use xlink:href="#DejaVuSerif-73" x="796.630859"/>
     <use xlink:href="#DejaVuSerif-74" x="847.949219"/>
     <use xlink:href="#DejaVuSerif-65" x="888.134766"/>
     <use xlink:href="#DejaVuSerif-70" x="947.314453"/>
     <use xlink:href="#DejaVuSerif-35" x="1011.328125"/>
     <use xlink:href="#DejaVuSerif-30" x="1074.951172"/>
     <use xlink:href="#DejaVuSerif-20" x="1138.574219"/>
     <use xlink:href="#DejaVuSerif-28" x="1170.361328"/>
     <use xlink:href="#DejaVuSerif-44" x="1209.375"/>
     <use xlink:href="#DejaVuSerif-69" x="1289.550781"/>
     <use xlink:href="#DejaVuSerif-73" x="1321.533203"/>
     <use xlink:href="#DejaVuSerif-63" x="1372.851562"/>
     <use xlink:href="#DejaVuSerif-72" x="1428.857422"/>
     <use xlink:href="#DejaVuSerif-65" x="1476.660156"/>
     <use xlink:href="#DejaVuSerif-74" x="1535.839844"/>
     <use xlink:href="#DejaVuSerif-65" x="1576.025391"/>
     <use xlink:href="#DejaVuSerif-20" x="1635.205078"/>
     <use xlink:href="#DejaVuSerif-61" x="1666.992188"/>
     <use xlink:href="#DejaVuSerif-63" x="1726.611328"/>
     <use xlink:href="#DejaVuSerif-74" x="1782.617188"/>
     <use xlink:href="#DejaVuSerif-69" x="1822.802734"/>
     <use xlink:href="#DejaVuSerif-6f" x="1854.785156"/>
     <use xlink:href="#DejaVuSerif-6e" x="1914.990234"/>
     <use xlink:href="#DejaVuSerif-73" x="1979.394531"/>
     <use xlink:href="#DejaVuSerif-29" x="2030.712891"/>
    </g>
   </g>
   <g id="line2d_59">
    <path d="M 522.49125 313.1875 
L 538.49125 313.1875 
L 554.49125 313.1875 
" style="fill: none; stroke: #ff7f0e; stroke-width: 3; stroke-linecap: square"/>
   </g>
   <g id="text_53">
    <!-- StARformer 2L step30 -->
    <g transform="translate(567.29125 318.7875) scale(0.16 -0.16)">
     <use xlink:href="#DejaVuSerif-53"/>
     <use xlink:href="#DejaVuSerif-74" x="68.505859"/>
     <use xlink:href="#DejaVuSerif-41" x="108.691406"/>
     <use xlink:href="#DejaVuSerif-52" x="180.908203"/>
     <use xlink:href="#DejaVuSerif-66" x="256.201172"/>
     <use xlink:href="#DejaVuSerif-6f" x="293.212891"/>
     <use xlink:href="#DejaVuSerif-72" x="353.417969"/>
     <use xlink:href="#DejaVuSerif-6d" x="401.220703"/>
     <use xlink:href="#DejaVuSerif-65" x="496.044922"/>
     <use xlink:href="#DejaVuSerif-72" x="555.224609"/>
     <use xlink:href="#DejaVuSerif-20" x="603.027344"/>
     <use xlink:href="#DejaVuSerif-32" x="634.814453"/>
     <use xlink:href="#DejaVuSerif-4c" x="698.4375"/>
     <use xlink:href="#DejaVuSerif-20" x="764.84375"/>
     <use xlink:href="#DejaVuSerif-73" x="796.630859"/>
     <use xlink:href="#DejaVuSerif-74" x="847.949219"/>
     <use xlink:href="#DejaVuSerif-65" x="888.134766"/>
     <use xlink:href="#DejaVuSerif-70" x="947.314453"/>
     <use xlink:href="#DejaVuSerif-33" x="1011.328125"/>
     <use xlink:href="#DejaVuSerif-30" x="1074.951172"/>
    </g>
   </g>
   <g id="line2d_60">
    <path d="M 522.49125 336.6725 
L 538.49125 336.6725 
L 554.49125 336.6725 
" style="fill: none; stroke: #d62728; stroke-width: 3; stroke-linecap: square"/>
   </g>
   <g id="text_54">
    <!-- StARformer 3L step50 -->
    <g transform="translate(567.29125 342.2725) scale(0.16 -0.16)">
     <use xlink:href="#DejaVuSerif-53"/>
     <use xlink:href="#DejaVuSerif-74" x="68.505859"/>
     <use xlink:href="#DejaVuSerif-41" x="108.691406"/>
     <use xlink:href="#DejaVuSerif-52" x="180.908203"/>
     <use xlink:href="#DejaVuSerif-66" x="256.201172"/>
     <use xlink:href="#DejaVuSerif-6f" x="293.212891"/>
     <use xlink:href="#DejaVuSerif-72" x="353.417969"/>
     <use xlink:href="#DejaVuSerif-6d" x="401.220703"/>
     <use xlink:href="#DejaVuSerif-65" x="496.044922"/>
     <use xlink:href="#DejaVuSerif-72" x="555.224609"/>
     <use xlink:href="#DejaVuSerif-20" x="603.027344"/>
     <use xlink:href="#DejaVuSerif-33" x="634.814453"/>
     <use xlink:href="#DejaVuSerif-4c" x="698.4375"/>
     <use xlink:href="#DejaVuSerif-20" x="764.84375"/>
     <use xlink:href="#DejaVuSerif-73" x="796.630859"/>
     <use xlink:href="#DejaVuSerif-74" x="847.949219"/>
     <use xlink:href="#DejaVuSerif-65" x="888.134766"/>
     <use xlink:href="#DejaVuSerif-70" x="947.314453"/>
     <use xlink:href="#DejaVuSerif-35" x="1011.328125"/>
     <use xlink:href="#DejaVuSerif-30" x="1074.951172"/>
    </g>
   </g>
  </g>
 </g>
 <defs>
  <clipPath id="p2379b1a494">
   <rect x="74.81" y="17.28" width="198.008333" height="234.72"/>
  </clipPath>
  <clipPath id="pa7f2d0b693">
   <rect x="356.653333" y="17.28" width="198.008333" height="234.72"/>
  </clipPath>
  <clipPath id="p6bd933133d">
   <rect x="638.496667" y="17.28" width="198.008333" height="234.72"/>
  </clipPath>
 </defs>
</svg>
