<?xml version="1.0" encoding="utf-8" standalone="no"?>
<!DOCTYPE svg PUBLIC "-//W3C//DTD SVG 1.1//EN"
  "http://www.w3.org/Graphics/SVG/1.1/DTD/svg11.dtd">
<svg xmlns:xlink="http://www.w3.org/1999/xlink" width="864pt" height="360pt" viewBox="0 0 864 360" xmlns="http://www.w3.org/2000/svg" version="1.1">
 <metadata>
  <rdf:RDF xmlns:dc="http://purl.org/dc/elements/1.1/" xmlns:cc="http://creativecommons.org/ns#" xmlns:rdf="http://www.w3.org/1999/02/22-rdf-syntax-ns#">
   <cc:Work>
    <dc:type rdf:resource="http://purl.org/dc/dcmitype/StillImage"/>
    <dc:date>2024-06-01T22:29:14.977960</dc:date>
    <dc:format>image/svg+xml</dc:format>
    <dc:creator>
     <cc:Agent>
      <dc:title>Matplotlib v3.8.2, https://matplotlib.org/</dc:title>
     </cc:Agent>
    </dc:creator>
   </cc:Work>
  </rdf:RDF>
 </metadata>
 <defs>
  <style type="text/css">*{stroke-linejoin: round; stroke-linecap: butt}</style>
 </defs>
 <g id="figure_1">
  <g id="patch_1">
   <path d="M 0 360 
L 864 360 
L 864 0 
L 0 0 
z
" style="fill: #ffffff"/>
  </g>
  <g id="axes_1">
   <g id="patch_2">
    <path d="M 74.81 270 
L 272.878333 270 
L 272.878333 17.28 
L 74.81 17.28 
z
" style="fill: #ffffff"/>
   </g>
   <g id="PolyCollection_1">
    <defs>
     <path id="m3a988b8031" d="M 74.81 -307.380479 
L 74.81 -173.504985 
L 96.817593 -101.487273 
L 118.825185 -163.838314 
L 140.832778 -180.937747 
L 162.84037 -165.129822 
L 206.855556 -142.679978 
L 250.870741 -139.201561 
L 272.878333 -173.558032 
L 272.878333 -325.170254 
L 272.878333 -325.170254 
L 250.870741 -299.666879 
L 206.855556 -300.40933 
L 162.84037 -301.749992 
L 140.832778 -321.435898 
L 118.825185 -298.628719 
L 96.817593 -291.718843 
L 74.81 -307.380479 
z
" style="stroke: #1f77b4; stroke-opacity: 0.2"/>
    </defs>
    <g clip-path="url(#p9acb49e362)">
     <use xlink:href="#m3a988b8031" x="0" y="360" style="fill: #1f77b4; fill-opacity: 0.2; stroke: #1f77b4; stroke-opacity: 0.2"/>
    </g>
   </g>
   <g id="PolyCollection_2">
    <defs>
     <path id="m5592672ae9" d="M 74.81 -331.232727 
L 74.81 -220.832269 
L 96.817593 -213.033112 
L 140.832778 -143.763266 
L 184.847963 -157.512933 
L 206.855556 -165.987984 
L 228.863148 -140.303644 
L 250.870741 -162.656675 
L 272.878333 -163.360146 
L 272.878333 -293.926756 
L 272.878333 -293.926756 
L 250.870741 -316.502074 
L 228.863148 -310.460006 
L 206.855556 -314.513726 
L 184.847963 -287.878715 
L 140.832778 -301.436512 
L 96.817593 -308.718214 
L 74.81 -331.232727 
z
" style="stroke: #2ca02c; stroke-opacity: 0.2"/>
    </defs>
    <g clip-path="url(#p9acb49e362)">
     <use xlink:href="#m5592672ae9" x="0" y="360" style="fill: #2ca02c; fill-opacity: 0.2; stroke: #2ca02c; stroke-opacity: 0.2"/>
    </g>
   </g>
   <g id="PolyCollection_3">
    <defs>
     <path id="m8759c020a2" d="M 74.81 -328.83956 
L 74.81 -192.144329 
L 96.817593 -199.395716 
L 118.825185 -152.418506 
L 140.832778 -148.299853 
L 184.847963 -156.773864 
L 272.878333 -161.223825 
L 272.878333 -284.167809 
L 272.878333 -284.167809 
L 184.847963 -302.431609 
L 140.832778 -292.870855 
L 118.825185 -294.316176 
L 96.817593 -307.006897 
L 74.81 -328.83956 
z
" style="stroke: #d62728; stroke-opacity: 0.2"/>
    </defs>
    <g clip-path="url(#p9acb49e362)">
     <use xlink:href="#m8759c020a2" x="0" y="360" style="fill: #d62728; fill-opacity: 0.2; stroke: #d62728; stroke-opacity: 0.2"/>
    </g>
   </g>
   <g id="matplotlib.axis_1">
    <g id="xtick_1">
     <g id="line2d_1">
      <defs>
       <path id="mbca75d236a" d="M 0 0 
L 0 3.5 
" style="stroke: #000000; stroke-width: 0.8"/>
      </defs>
      <g>
       <use xlink:href="#mbca75d236a" x="74.81" y="270" style="stroke: #000000; stroke-width: 0.8"/>
      </g>
     </g>
     <g id="text_1">
      <!-- 1 -->
      <g transform="translate(69.72 289.1575) scale(0.16 -0.16)">
       <defs>
        <path id="DejaVuSerif-31" d="M 909 0 
L 909 331 
L 1722 331 
L 1722 4213 
L 781 3603 
L 781 4013 
L 1919 4750 
L 2350 4750 
L 2350 331 
L 3163 331 
L 3163 0 
L 909 0 
z
" transform="scale(0.015625)"/>
       </defs>
       <use xlink:href="#DejaVuSerif-31"/>
      </g>
     </g>
    </g>
    <g id="xtick_2">
     <g id="line2d_2">
      <g>
       <use xlink:href="#mbca75d236a" x="96.817593" y="270" style="stroke: #000000; stroke-width: 0.8"/>
      </g>
     </g>
     <g id="text_2">
      <!-- 2 -->
      <g transform="translate(91.727593 289.1575) scale(0.16 -0.16)">
       <defs>
        <path id="DejaVuSerif-32" d="M 819 3553 
L 469 3553 
L 469 4384 
Q 803 4563 1142 4656 
Q 1481 4750 1806 4750 
Q 2534 4750 2956 4397 
Q 3378 4044 3378 3438 
Q 3378 2753 2422 1800 
Q 2347 1728 2309 1691 
L 1131 513 
L 3078 513 
L 3078 1088 
L 3444 1088 
L 3444 0 
L 434 0 
L 434 341 
L 1850 1753 
Q 2319 2222 2519 2614 
Q 2719 3006 2719 3438 
Q 2719 3909 2473 4175 
Q 2228 4441 1797 4441 
Q 1350 4441 1106 4219 
Q 863 3997 819 3553 
z
" transform="scale(0.015625)"/>
       </defs>
       <use xlink:href="#DejaVuSerif-32"/>
      </g>
     </g>
    </g>
    <g id="xtick_3">
     <g id="line2d_3">
      <g>
       <use xlink:href="#mbca75d236a" x="118.825185" y="270" style="stroke: #000000; stroke-width: 0.8"/>
      </g>
     </g>
     <g id="text_3">
      <!-- 3 -->
      <g transform="translate(113.735185 289.1575) scale(0.16 -0.16)">
       <defs>
        <path id="DejaVuSerif-33" d="M 622 4469 
Q 988 4606 1323 4678 
Q 1659 4750 1953 4750 
Q 2638 4750 3022 4454 
Q 3406 4159 3406 3634 
Q 3406 3213 3140 2930 
Q 2875 2647 2388 2547 
Q 2963 2466 3280 2130 
Q 3597 1794 3597 1259 
Q 3597 606 3158 257 
Q 2719 -91 1894 -91 
Q 1528 -91 1179 -12 
Q 831 66 488 225 
L 488 1131 
L 838 1131 
Q 869 681 1141 450 
Q 1413 219 1906 219 
Q 2384 219 2661 495 
Q 2938 772 2938 1253 
Q 2938 1803 2653 2086 
Q 2369 2369 1819 2369 
L 1522 2369 
L 1522 2688 
L 1678 2688 
Q 2225 2688 2498 2914 
Q 2772 3141 2772 3597 
Q 2772 4006 2547 4223 
Q 2322 4441 1900 4441 
Q 1478 4441 1245 4241 
Q 1013 4041 972 3647 
L 622 3647 
L 622 4469 
z
" transform="scale(0.015625)"/>
       </defs>
       <use xlink:href="#DejaVuSerif-33"/>
      </g>
     </g>
    </g>
    <g id="xtick_4">
     <g id="line2d_4">
      <g>
       <use xlink:href="#mbca75d236a" x="140.832778" y="270" style="stroke: #000000; stroke-width: 0.8"/>
      </g>
     </g>
     <g id="text_4">
      <!-- 4 -->
      <g transform="translate(135.742778 289.1575) scale(0.16 -0.16)">
       <defs>
        <path id="DejaVuSerif-34" d="M 2234 1581 
L 2234 4063 
L 641 1581 
L 2234 1581 
z
M 3609 0 
L 1484 0 
L 1484 331 
L 2234 331 
L 2234 1247 
L 197 1247 
L 197 1588 
L 2241 4750 
L 2859 4750 
L 2859 1581 
L 3750 1581 
L 3750 1247 
L 2859 1247 
L 2859 331 
L 3609 331 
L 3609 0 
z
" transform="scale(0.015625)"/>
       </defs>
       <use xlink:href="#DejaVuSerif-34"/>
      </g>
     </g>
    </g>
    <g id="xtick_5">
     <g id="line2d_5">
      <g>
       <use xlink:href="#mbca75d236a" x="162.84037" y="270" style="stroke: #000000; stroke-width: 0.8"/>
      </g>
     </g>
     <g id="text_5">
      <!-- 5 -->
      <g transform="translate(157.75037 289.1575) scale(0.16 -0.16)">
       <defs>
        <path id="DejaVuSerif-35" d="M 3219 4666 
L 3219 4153 
L 1081 4153 
L 1081 2816 
Q 1244 2928 1461 2984 
Q 1678 3041 1947 3041 
Q 2703 3041 3140 2622 
Q 3578 2203 3578 1478 
Q 3578 738 3136 323 
Q 2694 -91 1894 -91 
Q 1572 -91 1234 -12 
Q 897 66 544 225 
L 544 1131 
L 897 1131 
Q 925 688 1179 453 
Q 1434 219 1894 219 
Q 2388 219 2653 544 
Q 2919 869 2919 1478 
Q 2919 2084 2655 2407 
Q 2391 2731 1894 2731 
Q 1613 2731 1398 2631 
Q 1184 2531 1019 2322 
L 750 2322 
L 750 4666 
L 3219 4666 
z
" transform="scale(0.015625)"/>
       </defs>
       <use xlink:href="#DejaVuSerif-35"/>
      </g>
     </g>
    </g>
    <g id="xtick_6">
     <g id="line2d_6">
      <g>
       <use xlink:href="#mbca75d236a" x="184.847963" y="270" style="stroke: #000000; stroke-width: 0.8"/>
      </g>
     </g>
     <g id="text_6">
      <!-- 6 -->
      <g transform="translate(179.757963 289.1575) scale(0.16 -0.16)">
       <defs>
        <path id="DejaVuSerif-36" d="M 2094 219 
Q 2534 219 2771 542 
Q 3009 866 3009 1472 
Q 3009 2078 2771 2401 
Q 2534 2725 2094 2725 
Q 1647 2725 1412 2412 
Q 1178 2100 1178 1509 
Q 1178 888 1415 553 
Q 1653 219 2094 219 
z
M 1075 2569 
Q 1288 2803 1556 2918 
Q 1825 3034 2163 3034 
Q 2859 3034 3264 2615 
Q 3669 2197 3669 1472 
Q 3669 763 3233 336 
Q 2797 -91 2069 -91 
Q 1278 -91 853 498 
Q 428 1088 428 2181 
Q 428 3406 931 4078 
Q 1434 4750 2350 4750 
Q 2597 4750 2869 4703 
Q 3141 4656 3425 4563 
L 3425 3794 
L 3072 3794 
Q 3034 4109 2831 4275 
Q 2628 4441 2284 4441 
Q 1678 4441 1381 3981 
Q 1084 3522 1075 2569 
z
" transform="scale(0.015625)"/>
       </defs>
       <use xlink:href="#DejaVuSerif-36"/>
      </g>
     </g>
    </g>
    <g id="xtick_7">
     <g id="line2d_7">
      <g>
       <use xlink:href="#mbca75d236a" x="206.855556" y="270" style="stroke: #000000; stroke-width: 0.8"/>
      </g>
     </g>
     <g id="text_7">
      <!-- 7 -->
      <g transform="translate(201.765556 289.1575) scale(0.16 -0.16)">
       <defs>
        <path id="DejaVuSerif-37" d="M 3609 4347 
L 1784 0 
L 1319 0 
L 3059 4153 
L 903 4153 
L 903 3578 
L 538 3578 
L 538 4666 
L 3609 4666 
L 3609 4347 
z
" transform="scale(0.015625)"/>
       </defs>
       <use xlink:href="#DejaVuSerif-37"/>
      </g>
     </g>
    </g>
    <g id="xtick_8">
     <g id="line2d_8">
      <g>
       <use xlink:href="#mbca75d236a" x="228.863148" y="270" style="stroke: #000000; stroke-width: 0.8"/>
      </g>
     </g>
     <g id="text_8">
      <!-- 8 -->
      <g transform="translate(223.773148 289.1575) scale(0.16 -0.16)">
       <defs>
        <path id="DejaVuSerif-38" d="M 2981 1275 
Q 2981 1775 2732 2051 
Q 2484 2328 2034 2328 
Q 1584 2328 1336 2051 
Q 1088 1775 1088 1275 
Q 1088 772 1336 495 
Q 1584 219 2034 219 
Q 2484 219 2732 495 
Q 2981 772 2981 1275 
z
M 2853 3541 
Q 2853 3966 2637 4203 
Q 2422 4441 2034 4441 
Q 1650 4441 1433 4203 
Q 1216 3966 1216 3541 
Q 1216 3113 1433 2875 
Q 1650 2638 2034 2638 
Q 2422 2638 2637 2875 
Q 2853 3113 2853 3541 
z
M 2516 2484 
Q 3047 2413 3344 2092 
Q 3641 1772 3641 1275 
Q 3641 619 3225 264 
Q 2809 -91 2034 -91 
Q 1263 -91 845 264 
Q 428 619 428 1275 
Q 428 1772 725 2092 
Q 1022 2413 1556 2484 
Q 1084 2569 832 2842 
Q 581 3116 581 3541 
Q 581 4103 968 4426 
Q 1356 4750 2034 4750 
Q 2713 4750 3100 4426 
Q 3488 4103 3488 3541 
Q 3488 3116 3236 2842 
Q 2984 2569 2516 2484 
z
" transform="scale(0.015625)"/>
       </defs>
       <use xlink:href="#DejaVuSerif-38"/>
      </g>
     </g>
    </g>
    <g id="xtick_9">
     <g id="line2d_9">
      <g>
       <use xlink:href="#mbca75d236a" x="250.870741" y="270" style="stroke: #000000; stroke-width: 0.8"/>
      </g>
     </g>
     <g id="text_9">
      <!-- 9 -->
      <g transform="translate(245.780741 289.1575) scale(0.16 -0.16)">
       <defs>
        <path id="DejaVuSerif-39" d="M 2994 2091 
Q 2784 1856 2512 1740 
Q 2241 1625 1900 1625 
Q 1206 1625 804 2044 
Q 403 2463 403 3188 
Q 403 3897 839 4323 
Q 1275 4750 2003 4750 
Q 2794 4750 3217 4161 
Q 3641 3572 3641 2478 
Q 3641 1253 3137 581 
Q 2634 -91 1722 -91 
Q 1475 -91 1203 -44 
Q 931 3 647 97 
L 647 872 
L 997 872 
Q 1038 556 1241 387 
Q 1444 219 1784 219 
Q 2391 219 2687 676 
Q 2984 1134 2994 2091 
z
M 1978 4441 
Q 1534 4441 1298 4117 
Q 1063 3794 1063 3188 
Q 1063 2581 1298 2256 
Q 1534 1931 1978 1931 
Q 2422 1931 2658 2245 
Q 2894 2559 2894 3150 
Q 2894 3772 2656 4106 
Q 2419 4441 1978 4441 
z
" transform="scale(0.015625)"/>
       </defs>
       <use xlink:href="#DejaVuSerif-39"/>
      </g>
     </g>
    </g>
    <g id="xtick_10">
     <g id="line2d_10">
      <g>
       <use xlink:href="#mbca75d236a" x="272.878333" y="270" style="stroke: #000000; stroke-width: 0.8"/>
      </g>
     </g>
     <g id="text_10">
      <!-- 10 -->
      <g transform="translate(262.698333 289.1575) scale(0.16 -0.16)">
       <defs>
        <path id="DejaVuSerif-30" d="M 2034 219 
Q 2513 219 2750 744 
Q 2988 1269 2988 2328 
Q 2988 3391 2750 3916 
Q 2513 4441 2034 4441 
Q 1556 4441 1318 3916 
Q 1081 3391 1081 2328 
Q 1081 1269 1318 744 
Q 1556 219 2034 219 
z
M 2034 -91 
Q 1275 -91 848 546 
Q 422 1184 422 2328 
Q 422 3475 848 4112 
Q 1275 4750 2034 4750 
Q 2797 4750 3222 4112 
Q 3647 3475 3647 2328 
Q 3647 1184 3222 546 
Q 2797 -91 2034 -91 
z
" transform="scale(0.015625)"/>
       </defs>
       <use xlink:href="#DejaVuSerif-31"/>
       <use xlink:href="#DejaVuSerif-30" x="63.623047"/>
      </g>
     </g>
    </g>
    <g id="text_11">
     <!-- Epoch -->
     <g transform="translate(148.434167 308.6425) scale(0.16 -0.16)">
      <defs>
       <path id="DejaVuSerif-45" d="M 353 0 
L 353 331 
L 947 331 
L 947 4331 
L 353 4331 
L 353 4666 
L 4109 4666 
L 4109 3628 
L 3725 3628 
L 3725 4281 
L 1581 4281 
L 1581 2719 
L 3109 2719 
L 3109 3303 
L 3494 3303 
L 3494 1753 
L 3109 1753 
L 3109 2338 
L 1581 2338 
L 1581 384 
L 3775 384 
L 3775 1038 
L 4159 1038 
L 4159 0 
L 353 0 
z
" transform="scale(0.015625)"/>
       <path id="DejaVuSerif-70" d="M 1313 1825 
L 1313 1497 
Q 1313 897 1542 583 
Q 1772 269 2209 269 
Q 2650 269 2876 622 
Q 3103 975 3103 1663 
Q 3103 2353 2876 2703 
Q 2650 3053 2209 3053 
Q 1772 3053 1542 2737 
Q 1313 2422 1313 1825 
z
M 738 2988 
L 184 2988 
L 184 3322 
L 1313 3322 
L 1313 2803 
Q 1481 3116 1742 3264 
Q 2003 3413 2388 3413 
Q 3000 3413 3387 2928 
Q 3775 2444 3775 1663 
Q 3775 881 3387 395 
Q 3000 -91 2388 -91 
Q 2003 -91 1742 57 
Q 1481 206 1313 519 
L 1313 -997 
L 1856 -997 
L 1856 -1331 
L 184 -1331 
L 184 -997 
L 738 -997 
L 738 2988 
z
" transform="scale(0.015625)"/>
       <path id="DejaVuSerif-6f" d="M 1925 219 
Q 2388 219 2623 584 
Q 2859 950 2859 1663 
Q 2859 2375 2623 2739 
Q 2388 3103 1925 3103 
Q 1463 3103 1227 2739 
Q 991 2375 991 1663 
Q 991 950 1228 584 
Q 1466 219 1925 219 
z
M 1925 -91 
Q 1200 -91 759 389 
Q 319 869 319 1663 
Q 319 2456 758 2934 
Q 1197 3413 1925 3413 
Q 2653 3413 3092 2934 
Q 3531 2456 3531 1663 
Q 3531 869 3092 389 
Q 2653 -91 1925 -91 
z
" transform="scale(0.015625)"/>
       <path id="DejaVuSerif-63" d="M 3291 997 
Q 3169 466 2822 187 
Q 2475 -91 1925 -91 
Q 1200 -91 759 389 
Q 319 869 319 1663 
Q 319 2459 759 2936 
Q 1200 3413 1925 3413 
Q 2241 3413 2553 3339 
Q 2866 3266 3181 3116 
L 3181 2266 
L 2847 2266 
Q 2781 2703 2561 2903 
Q 2341 3103 1931 3103 
Q 1466 3103 1228 2742 
Q 991 2381 991 1663 
Q 991 944 1227 581 
Q 1463 219 1931 219 
Q 2303 219 2525 412 
Q 2747 606 2828 997 
L 3291 997 
z
" transform="scale(0.015625)"/>
       <path id="DejaVuSerif-68" d="M 263 0 
L 263 331 
L 781 331 
L 781 4531 
L 231 4531 
L 231 4863 
L 1356 4863 
L 1356 2731 
Q 1516 3069 1770 3241 
Q 2025 3413 2363 3413 
Q 2913 3413 3172 3097 
Q 3431 2781 3431 2113 
L 3431 331 
L 3944 331 
L 3944 0 
L 2356 0 
L 2356 331 
L 2853 331 
L 2853 1931 
Q 2853 2541 2704 2764 
Q 2556 2988 2175 2988 
Q 1775 2988 1565 2697 
Q 1356 2406 1356 1850 
L 1356 331 
L 1856 331 
L 1856 0 
L 263 0 
z
" transform="scale(0.015625)"/>
      </defs>
      <use xlink:href="#DejaVuSerif-45"/>
      <use xlink:href="#DejaVuSerif-70" x="72.998047"/>
      <use xlink:href="#DejaVuSerif-6f" x="137.011719"/>
      <use xlink:href="#DejaVuSerif-63" x="197.216797"/>
      <use xlink:href="#DejaVuSerif-68" x="253.222656"/>
     </g>
    </g>
   </g>
   <g id="matplotlib.axis_2">
    <g id="ytick_1">
     <g id="line2d_11">
      <defs>
       <path id="mc698c0c972" d="M 0 0 
L -3.5 0 
" style="stroke: #000000; stroke-width: 0.8"/>
      </defs>
      <g>
       <use xlink:href="#mc698c0c972" x="74.81" y="234.192748" style="stroke: #000000; stroke-width: 0.8"/>
      </g>
     </g>
     <g id="text_12">
      <!-- 80 -->
      <g transform="translate(47.45 240.271498) scale(0.16 -0.16)">
       <use xlink:href="#DejaVuSerif-38"/>
       <use xlink:href="#DejaVuSerif-30" x="63.623047"/>
      </g>
     </g>
    </g>
    <g id="ytick_2">
     <g id="line2d_12">
      <g>
       <use xlink:href="#mc698c0c972" x="74.81" y="195.821039" style="stroke: #000000; stroke-width: 0.8"/>
      </g>
     </g>
     <g id="text_13">
      <!-- 100 -->
      <g transform="translate(37.27 201.899789) scale(0.16 -0.16)">
       <use xlink:href="#DejaVuSerif-31"/>
       <use xlink:href="#DejaVuSerif-30" x="63.623047"/>
       <use xlink:href="#DejaVuSerif-30" x="127.246094"/>
      </g>
     </g>
    </g>
    <g id="ytick_3">
     <g id="line2d_13">
      <g>
       <use xlink:href="#mc698c0c972" x="74.81" y="157.44933" style="stroke: #000000; stroke-width: 0.8"/>
      </g>
     </g>
     <g id="text_14">
      <!-- 120 -->
      <g transform="translate(37.27 163.52808) scale(0.16 -0.16)">
       <use xlink:href="#DejaVuSerif-31"/>
       <use xlink:href="#DejaVuSerif-32" x="63.623047"/>
       <use xlink:href="#DejaVuSerif-30" x="127.246094"/>
      </g>
     </g>
    </g>
    <g id="ytick_4">
     <g id="line2d_14">
      <g>
       <use xlink:href="#mc698c0c972" x="74.81" y="119.077621" style="stroke: #000000; stroke-width: 0.8"/>
      </g>
     </g>
     <g id="text_15">
      <!-- 140 -->
      <g transform="translate(37.27 125.156371) scale(0.16 -0.16)">
       <use xlink:href="#DejaVuSerif-31"/>
       <use xlink:href="#DejaVuSerif-34" x="63.623047"/>
       <use xlink:href="#DejaVuSerif-30" x="127.246094"/>
      </g>
     </g>
    </g>
    <g id="ytick_5">
     <g id="line2d_15">
      <g>
       <use xlink:href="#mc698c0c972" x="74.81" y="80.705912" style="stroke: #000000; stroke-width: 0.8"/>
      </g>
     </g>
     <g id="text_16">
      <!-- 160 -->
      <g transform="translate(37.27 86.784662) scale(0.16 -0.16)">
       <use xlink:href="#DejaVuSerif-31"/>
       <use xlink:href="#DejaVuSerif-36" x="63.623047"/>
       <use xlink:href="#DejaVuSerif-30" x="127.246094"/>
      </g>
     </g>
    </g>
    <g id="ytick_6">
     <g id="line2d_16">
      <g>
       <use xlink:href="#mc698c0c972" x="74.81" y="42.334204" style="stroke: #000000; stroke-width: 0.8"/>
      </g>
     </g>
     <g id="text_17">
      <!-- 180 -->
      <g transform="translate(37.27 48.412954) scale(0.16 -0.16)">
       <use xlink:href="#DejaVuSerif-31"/>
       <use xlink:href="#DejaVuSerif-38" x="63.623047"/>
       <use xlink:href="#DejaVuSerif-30" x="127.246094"/>
      </g>
     </g>
    </g>
    <g id="text_18">
     <!-- Match duration -->
     <g transform="translate(29.9425 206.60125) rotate(-90) scale(0.16 -0.16)">
      <defs>
       <path id="DejaVuSerif-4d" d="M 353 0 
L 353 331 
L 947 331 
L 947 4331 
L 319 4331 
L 319 4666 
L 1678 4666 
L 3316 1344 
L 4953 4666 
L 6228 4666 
L 6228 4331 
L 5606 4331 
L 5606 331 
L 6203 331 
L 6203 0 
L 4378 0 
L 4378 331 
L 4972 331 
L 4972 3938 
L 3372 684 
L 2931 684 
L 1331 3938 
L 1331 331 
L 1925 331 
L 1925 0 
L 353 0 
z
" transform="scale(0.015625)"/>
       <path id="DejaVuSerif-61" d="M 2547 1044 
L 2547 1747 
L 1806 1747 
Q 1378 1747 1168 1562 
Q 959 1378 959 997 
Q 959 650 1171 447 
Q 1384 244 1747 244 
Q 2106 244 2326 466 
Q 2547 688 2547 1044 
z
M 3122 2075 
L 3122 331 
L 3634 331 
L 3634 0 
L 2547 0 
L 2547 359 
Q 2356 128 2106 18 
Q 1856 -91 1522 -91 
Q 969 -91 644 203 
Q 319 497 319 997 
Q 319 1513 691 1797 
Q 1063 2081 1741 2081 
L 2547 2081 
L 2547 2309 
Q 2547 2688 2317 2895 
Q 2088 3103 1672 3103 
Q 1328 3103 1125 2947 
Q 922 2791 872 2484 
L 575 2484 
L 575 3156 
Q 875 3284 1158 3348 
Q 1441 3413 1709 3413 
Q 2400 3413 2761 3070 
Q 3122 2728 3122 2075 
z
" transform="scale(0.015625)"/>
       <path id="DejaVuSerif-74" d="M 691 2988 
L 184 2988 
L 184 3322 
L 691 3322 
L 691 4353 
L 1269 4353 
L 1269 3322 
L 2350 3322 
L 2350 2988 
L 1269 2988 
L 1269 878 
Q 1269 456 1350 337 
Q 1431 219 1650 219 
Q 1875 219 1978 351 
Q 2081 484 2088 781 
L 2522 781 
Q 2497 328 2275 118 
Q 2053 -91 1600 -91 
Q 1103 -91 897 129 
Q 691 350 691 878 
L 691 2988 
z
" transform="scale(0.015625)"/>
       <path id="DejaVuSerif-20" transform="scale(0.015625)"/>
       <path id="DejaVuSerif-64" d="M 3359 331 
L 3909 331 
L 3909 0 
L 2784 0 
L 2784 519 
Q 2616 206 2355 57 
Q 2094 -91 1709 -91 
Q 1097 -91 708 395 
Q 319 881 319 1663 
Q 319 2444 706 2928 
Q 1094 3413 1709 3413 
Q 2094 3413 2355 3264 
Q 2616 3116 2784 2803 
L 2784 4531 
L 2241 4531 
L 2241 4863 
L 3359 4863 
L 3359 331 
z
M 2784 1497 
L 2784 1825 
Q 2784 2422 2554 2737 
Q 2325 3053 1888 3053 
Q 1444 3053 1217 2703 
Q 991 2353 991 1663 
Q 991 975 1217 622 
Q 1444 269 1888 269 
Q 2325 269 2554 583 
Q 2784 897 2784 1497 
z
" transform="scale(0.015625)"/>
       <path id="DejaVuSerif-75" d="M 2266 3322 
L 3341 3322 
L 3341 331 
L 3884 331 
L 3884 0 
L 2766 0 
L 2766 588 
Q 2606 256 2353 82 
Q 2100 -91 1766 -91 
Q 1213 -91 952 223 
Q 691 538 691 1209 
L 691 2988 
L 172 2988 
L 172 3322 
L 1269 3322 
L 1269 1388 
Q 1269 781 1417 556 
Q 1566 331 1947 331 
Q 2347 331 2556 625 
Q 2766 919 2766 1478 
L 2766 2988 
L 2266 2988 
L 2266 3322 
z
" transform="scale(0.015625)"/>
       <path id="DejaVuSerif-72" d="M 3059 3328 
L 3059 2497 
L 2728 2497 
Q 2713 2744 2591 2866 
Q 2469 2988 2234 2988 
Q 1809 2988 1582 2694 
Q 1356 2400 1356 1850 
L 1356 331 
L 2022 331 
L 2022 0 
L 263 0 
L 263 331 
L 781 331 
L 781 2994 
L 231 2994 
L 231 3322 
L 1356 3322 
L 1356 2731 
Q 1525 3078 1790 3245 
Q 2056 3413 2438 3413 
Q 2578 3413 2733 3391 
Q 2888 3369 3059 3328 
z
" transform="scale(0.015625)"/>
       <path id="DejaVuSerif-69" d="M 622 4353 
Q 622 4497 726 4603 
Q 831 4709 978 4709 
Q 1122 4709 1226 4603 
Q 1331 4497 1331 4353 
Q 1331 4206 1228 4103 
Q 1125 4000 978 4000 
Q 831 4000 726 4103 
Q 622 4206 622 4353 
z
M 1356 331 
L 1900 331 
L 1900 0 
L 231 0 
L 231 331 
L 781 331 
L 781 2988 
L 231 2988 
L 231 3322 
L 1356 3322 
L 1356 331 
z
" transform="scale(0.015625)"/>
       <path id="DejaVuSerif-6e" d="M 263 0 
L 263 331 
L 781 331 
L 781 2988 
L 231 2988 
L 231 3322 
L 1356 3322 
L 1356 2731 
Q 1516 3069 1770 3241 
Q 2025 3413 2363 3413 
Q 2913 3413 3172 3097 
Q 3431 2781 3431 2113 
L 3431 331 
L 3944 331 
L 3944 0 
L 2356 0 
L 2356 331 
L 2853 331 
L 2853 1931 
Q 2853 2541 2703 2767 
Q 2553 2994 2175 2994 
Q 1775 2994 1565 2701 
Q 1356 2409 1356 1850 
L 1356 331 
L 1856 331 
L 1856 0 
L 263 0 
z
" transform="scale(0.015625)"/>
      </defs>
      <use xlink:href="#DejaVuSerif-4d"/>
      <use xlink:href="#DejaVuSerif-61" x="102.392578"/>
      <use xlink:href="#DejaVuSerif-74" x="162.011719"/>
      <use xlink:href="#DejaVuSerif-63" x="202.197266"/>
      <use xlink:href="#DejaVuSerif-68" x="258.203125"/>
      <use xlink:href="#DejaVuSerif-20" x="322.607422"/>
      <use xlink:href="#DejaVuSerif-64" x="354.394531"/>
      <use xlink:href="#DejaVuSerif-75" x="418.408203"/>
      <use xlink:href="#DejaVuSerif-72" x="482.8125"/>
      <use xlink:href="#DejaVuSerif-61" x="530.615234"/>
      <use xlink:href="#DejaVuSerif-74" x="590.234375"/>
      <use xlink:href="#DejaVuSerif-69" x="630.419922"/>
      <use xlink:href="#DejaVuSerif-6f" x="662.402344"/>
      <use xlink:href="#DejaVuSerif-6e" x="722.607422"/>
     </g>
    </g>
   </g>
   <g id="line2d_17">
    <path d="M 74.81 119.557268 
L 96.817593 163.396942 
L 118.825185 128.766484 
L 140.832778 108.813177 
L 162.84037 126.560093 
L 206.855556 138.455346 
L 250.870741 140.565772 
L 272.878333 110.635857 
" clip-path="url(#p9acb49e362)" style="fill: none; stroke: #1f77b4; stroke-width: 3; stroke-linecap: square"/>
   </g>
   <g id="line2d_18">
    <path d="M 74.81 83.967502 
L 96.817593 99.124344 
L 140.832778 137.400118 
L 184.847963 137.304183 
L 206.855556 119.749138 
L 228.863148 134.618175 
L 250.870741 120.420625 
L 272.878333 131.356556 
" clip-path="url(#p9acb49e362)" style="fill: none; stroke: #2ca02c; stroke-width: 3; stroke-linecap: square"/>
   </g>
   <g id="line2d_19">
    <path d="M 74.81 99.508056 
L 96.817593 106.798686 
L 118.825185 136.632666 
L 140.832778 139.414639 
L 184.847963 130.397264 
L 272.878333 137.304183 
" clip-path="url(#p9acb49e362)" style="fill: none; stroke: #d62728; stroke-width: 3; stroke-linecap: square"/>
   </g>
   <g id="patch_3">
    <path d="M 74.81 270 
L 74.81 17.28 
" style="fill: none; stroke: #000000; stroke-width: 0.8; stroke-linejoin: miter; stroke-linecap: square"/>
   </g>
   <g id="patch_4">
    <path d="M 272.878333 270 
L 272.878333 17.28 
" style="fill: none; stroke: #000000; stroke-width: 0.8; stroke-linejoin: miter; stroke-linecap: square"/>
   </g>
   <g id="patch_5">
    <path d="M 74.81 270 
L 272.878333 270 
" style="fill: none; stroke: #000000; stroke-width: 0.8; stroke-linejoin: miter; stroke-linecap: square"/>
   </g>
   <g id="patch_6">
    <path d="M 74.81 17.28 
L 272.878333 17.28 
" style="fill: none; stroke: #000000; stroke-width: 0.8; stroke-linejoin: miter; stroke-linecap: square"/>
   </g>
  </g>
  <g id="axes_2">
   <g id="patch_7">
    <path d="M 356.623333 270 
L 554.691667 270 
L 554.691667 17.28 
L 356.623333 17.28 
z
" style="fill: #ffffff"/>
   </g>
   <g id="PolyCollection_4">
    <defs>
     <path id="m343a8982c5" d="M 356.623333 -253.083049 
L 356.623333 -113.858067 
L 378.630926 -115.446762 
L 400.638519 -107.485708 
L 422.646111 -127.977996 
L 444.653704 -133.58898 
L 488.668889 -113.153506 
L 532.684074 -119.309856 
L 554.691667 -120.619917 
L 554.691667 -236.869506 
L 554.691667 -236.869506 
L 532.684074 -230.095891 
L 488.668889 -213.833752 
L 444.653704 -200.456322 
L 422.646111 -213.152979 
L 400.638519 -276.121856 
L 378.630926 -210.067434 
L 356.623333 -253.083049 
z
" style="stroke: #1f77b4; stroke-opacity: 0.2"/>
    </defs>
    <g clip-path="url(#p08461b4131)">
     <use xlink:href="#m343a8982c5" x="0" y="360" style="fill: #1f77b4; fill-opacity: 0.2; stroke: #1f77b4; stroke-opacity: 0.2"/>
    </g>
   </g>
   <g id="PolyCollection_5">
    <defs>
     <path id="mb6699d2616" d="M 356.623333 -275.384088 
L 356.623333 -125.046612 
L 378.630926 -101.487273 
L 422.646111 -124.286172 
L 466.661296 -110.843158 
L 488.668889 -116.736201 
L 510.676481 -103.028116 
L 532.684074 -126.197686 
L 554.691667 -112.625025 
L 554.691667 -240.69044 
L 554.691667 -240.69044 
L 532.684074 -271.227239 
L 510.676481 -265.595426 
L 488.668889 -247.83969 
L 466.661296 -217.305468 
L 422.646111 -216.032844 
L 378.630926 -274.594481 
L 356.623333 -275.384088 
z
" style="stroke: #2ca02c; stroke-opacity: 0.2"/>
    </defs>
    <g clip-path="url(#p08461b4131)">
     <use xlink:href="#mb6699d2616" x="0" y="360" style="fill: #2ca02c; fill-opacity: 0.2; stroke: #2ca02c; stroke-opacity: 0.2"/>
    </g>
   </g>
   <g id="PolyCollection_6">
    <defs>
     <path id="m5fea9dd032" d="M 356.623333 -331.232727 
L 356.623333 -128.039861 
L 378.630926 -131.320913 
L 400.638519 -103.569226 
L 422.646111 -117.586636 
L 466.661296 -118.018167 
L 554.691667 -117.517332 
L 554.691667 -214.551772 
L 554.691667 -214.551772 
L 466.661296 -236.970987 
L 422.646111 -233.359522 
L 400.638519 -247.250901 
L 378.630926 -261.394047 
L 356.623333 -331.232727 
z
" style="stroke: #d62728; stroke-opacity: 0.2"/>
    </defs>
    <g clip-path="url(#p08461b4131)">
     <use xlink:href="#m5fea9dd032" x="0" y="360" style="fill: #d62728; fill-opacity: 0.2; stroke: #d62728; stroke-opacity: 0.2"/>
    </g>
   </g>
   <g id="matplotlib.axis_3">
    <g id="xtick_11">
     <g id="line2d_20">
      <g>
       <use xlink:href="#mbca75d236a" x="356.623333" y="270" style="stroke: #000000; stroke-width: 0.8"/>
      </g>
     </g>
     <g id="text_19">
      <!-- 1 -->
      <g transform="translate(351.533333 289.1575) scale(0.16 -0.16)">
       <use xlink:href="#DejaVuSerif-31"/>
      </g>
     </g>
    </g>
    <g id="xtick_12">
     <g id="line2d_21">
      <g>
       <use xlink:href="#mbca75d236a" x="378.630926" y="270" style="stroke: #000000; stroke-width: 0.8"/>
      </g>
     </g>
     <g id="text_20">
      <!-- 2 -->
      <g transform="translate(373.540926 289.1575) scale(0.16 -0.16)">
       <use xlink:href="#DejaVuSerif-32"/>
      </g>
     </g>
    </g>
    <g id="xtick_13">
     <g id="line2d_22">
      <g>
       <use xlink:href="#mbca75d236a" x="400.638519" y="270" style="stroke: #000000; stroke-width: 0.8"/>
      </g>
     </g>
     <g id="text_21">
      <!-- 3 -->
      <g transform="translate(395.548519 289.1575) scale(0.16 -0.16)">
       <use xlink:href="#DejaVuSerif-33"/>
      </g>
     </g>
    </g>
    <g id="xtick_14">
     <g id="line2d_23">
      <g>
       <use xlink:href="#mbca75d236a" x="422.646111" y="270" style="stroke: #000000; stroke-width: 0.8"/>
      </g>
     </g>
     <g id="text_22">
      <!-- 4 -->
      <g transform="translate(417.556111 289.1575) scale(0.16 -0.16)">
       <use xlink:href="#DejaVuSerif-34"/>
      </g>
     </g>
    </g>
    <g id="xtick_15">
     <g id="line2d_24">
      <g>
       <use xlink:href="#mbca75d236a" x="444.653704" y="270" style="stroke: #000000; stroke-width: 0.8"/>
      </g>
     </g>
     <g id="text_23">
      <!-- 5 -->
      <g transform="translate(439.563704 289.1575) scale(0.16 -0.16)">
       <use xlink:href="#DejaVuSerif-35"/>
      </g>
     </g>
    </g>
    <g id="xtick_16">
     <g id="line2d_25">
      <g>
       <use xlink:href="#mbca75d236a" x="466.661296" y="270" style="stroke: #000000; stroke-width: 0.8"/>
      </g>
     </g>
     <g id="text_24">
      <!-- 6 -->
      <g transform="translate(461.571296 289.1575) scale(0.16 -0.16)">
       <use xlink:href="#DejaVuSerif-36"/>
      </g>
     </g>
    </g>
    <g id="xtick_17">
     <g id="line2d_26">
      <g>
       <use xlink:href="#mbca75d236a" x="488.668889" y="270" style="stroke: #000000; stroke-width: 0.8"/>
      </g>
     </g>
     <g id="text_25">
      <!-- 7 -->
      <g transform="translate(483.578889 289.1575) scale(0.16 -0.16)">
       <use xlink:href="#DejaVuSerif-37"/>
      </g>
     </g>
    </g>
    <g id="xtick_18">
     <g id="line2d_27">
      <g>
       <use xlink:href="#mbca75d236a" x="510.676481" y="270" style="stroke: #000000; stroke-width: 0.8"/>
      </g>
     </g>
     <g id="text_26">
      <!-- 8 -->
      <g transform="translate(505.586481 289.1575) scale(0.16 -0.16)">
       <use xlink:href="#DejaVuSerif-38"/>
      </g>
     </g>
    </g>
    <g id="xtick_19">
     <g id="line2d_28">
      <g>
       <use xlink:href="#mbca75d236a" x="532.684074" y="270" style="stroke: #000000; stroke-width: 0.8"/>
      </g>
     </g>
     <g id="text_27">
      <!-- 9 -->
      <g transform="translate(527.594074 289.1575) scale(0.16 -0.16)">
       <use xlink:href="#DejaVuSerif-39"/>
      </g>
     </g>
    </g>
    <g id="xtick_20">
     <g id="line2d_29">
      <g>
       <use xlink:href="#mbca75d236a" x="554.691667" y="270" style="stroke: #000000; stroke-width: 0.8"/>
      </g>
     </g>
     <g id="text_28">
      <!-- 10 -->
      <g transform="translate(544.511667 289.1575) scale(0.16 -0.16)">
       <use xlink:href="#DejaVuSerif-31"/>
       <use xlink:href="#DejaVuSerif-30" x="63.623047"/>
      </g>
     </g>
    </g>
    <g id="text_29">
     <!-- Epoch -->
     <g transform="translate(430.2475 308.6425) scale(0.16 -0.16)">
      <use xlink:href="#DejaVuSerif-45"/>
      <use xlink:href="#DejaVuSerif-70" x="72.998047"/>
      <use xlink:href="#DejaVuSerif-6f" x="137.011719"/>
      <use xlink:href="#DejaVuSerif-63" x="197.216797"/>
      <use xlink:href="#DejaVuSerif-68" x="253.222656"/>
     </g>
    </g>
   </g>
   <g id="matplotlib.axis_4">
    <g id="ytick_7">
     <g id="line2d_30">
      <g>
       <use xlink:href="#mc698c0c972" x="356.623333" y="241.064482" style="stroke: #000000; stroke-width: 0.8"/>
      </g>
     </g>
     <g id="text_30">
      <!-- -8 -->
      <g transform="translate(334.035833 247.143232) scale(0.16 -0.16)">
       <defs>
        <path id="DejaVuSerif-2d" d="M 281 1959 
L 1881 1959 
L 1881 1472 
L 281 1472 
L 281 1959 
z
" transform="scale(0.015625)"/>
       </defs>
       <use xlink:href="#DejaVuSerif-2d"/>
       <use xlink:href="#DejaVuSerif-38" x="33.789062"/>
      </g>
     </g>
    </g>
    <g id="ytick_8">
     <g id="line2d_31">
      <g>
       <use xlink:href="#mc698c0c972" x="356.623333" y="204.783712" style="stroke: #000000; stroke-width: 0.8"/>
      </g>
     </g>
     <g id="text_31">
      <!-- -7 -->
      <g transform="translate(334.035833 210.862462) scale(0.16 -0.16)">
       <use xlink:href="#DejaVuSerif-2d"/>
       <use xlink:href="#DejaVuSerif-37" x="33.789062"/>
      </g>
     </g>
    </g>
    <g id="ytick_9">
     <g id="line2d_32">
      <g>
       <use xlink:href="#mc698c0c972" x="356.623333" y="168.502943" style="stroke: #000000; stroke-width: 0.8"/>
      </g>
     </g>
     <g id="text_32">
      <!-- -6 -->
      <g transform="translate(334.035833 174.581693) scale(0.16 -0.16)">
       <use xlink:href="#DejaVuSerif-2d"/>
       <use xlink:href="#DejaVuSerif-36" x="33.789062"/>
      </g>
     </g>
    </g>
    <g id="ytick_10">
     <g id="line2d_33">
      <g>
       <use xlink:href="#mc698c0c972" x="356.623333" y="132.222173" style="stroke: #000000; stroke-width: 0.8"/>
      </g>
     </g>
     <g id="text_33">
      <!-- -5 -->
      <g transform="translate(334.035833 138.300923) scale(0.16 -0.16)">
       <use xlink:href="#DejaVuSerif-2d"/>
       <use xlink:href="#DejaVuSerif-35" x="33.789062"/>
      </g>
     </g>
    </g>
    <g id="ytick_11">
     <g id="line2d_34">
      <g>
       <use xlink:href="#mc698c0c972" x="356.623333" y="95.941404" style="stroke: #000000; stroke-width: 0.8"/>
      </g>
     </g>
     <g id="text_34">
      <!-- -4 -->
      <g transform="translate(334.035833 102.020154) scale(0.16 -0.16)">
       <use xlink:href="#DejaVuSerif-2d"/>
       <use xlink:href="#DejaVuSerif-34" x="33.789062"/>
      </g>
     </g>
    </g>
    <g id="ytick_12">
     <g id="line2d_35">
      <g>
       <use xlink:href="#mc698c0c972" x="356.623333" y="59.660635" style="stroke: #000000; stroke-width: 0.8"/>
      </g>
     </g>
     <g id="text_35">
      <!-- -3 -->
      <g transform="translate(334.035833 65.739385) scale(0.16 -0.16)">
       <use xlink:href="#DejaVuSerif-2d"/>
       <use xlink:href="#DejaVuSerif-33" x="33.789062"/>
      </g>
     </g>
    </g>
    <g id="ytick_13">
     <g id="line2d_36">
      <g>
       <use xlink:href="#mc698c0c972" x="356.623333" y="23.379865" style="stroke: #000000; stroke-width: 0.8"/>
      </g>
     </g>
     <g id="text_36">
      <!-- -2 -->
      <g transform="translate(334.035833 29.458615) scale(0.16 -0.16)">
       <use xlink:href="#DejaVuSerif-2d"/>
       <use xlink:href="#DejaVuSerif-32" x="33.789062"/>
      </g>
     </g>
    </g>
    <g id="text_37">
     <!-- Total reward -->
     <g transform="translate(326.708333 195.38) rotate(-90) scale(0.16 -0.16)">
      <defs>
       <path id="DejaVuSerif-54" d="M 1222 0 
L 1222 331 
L 1819 331 
L 1819 4294 
L 447 4294 
L 447 3566 
L 63 3566 
L 63 4666 
L 4206 4666 
L 4206 3566 
L 3822 3566 
L 3822 4294 
L 2450 4294 
L 2450 331 
L 3047 331 
L 3047 0 
L 1222 0 
z
" transform="scale(0.015625)"/>
       <path id="DejaVuSerif-6c" d="M 1313 331 
L 1856 331 
L 1856 0 
L 184 0 
L 184 331 
L 738 331 
L 738 4531 
L 184 4531 
L 184 4863 
L 1313 4863 
L 1313 331 
z
" transform="scale(0.015625)"/>
       <path id="DejaVuSerif-65" d="M 3469 1600 
L 991 1600 
L 991 1575 
Q 991 903 1244 561 
Q 1497 219 1991 219 
Q 2369 219 2611 417 
Q 2853 616 2950 1006 
L 3413 1006 
Q 3275 459 2904 184 
Q 2534 -91 1931 -91 
Q 1203 -91 761 389 
Q 319 869 319 1663 
Q 319 2450 753 2931 
Q 1188 3413 1894 3413 
Q 2647 3413 3050 2948 
Q 3453 2484 3469 1600 
z
M 2791 1931 
Q 2772 2513 2545 2808 
Q 2319 3103 1894 3103 
Q 1497 3103 1269 2806 
Q 1041 2509 991 1931 
L 2791 1931 
z
" transform="scale(0.015625)"/>
       <path id="DejaVuSerif-77" d="M 3072 3322 
L 3922 728 
L 4672 2988 
L 4191 2988 
L 4191 3322 
L 5394 3322 
L 5394 2988 
L 5025 2988 
L 4038 0 
L 3559 0 
L 2741 2484 
L 1919 0 
L 1459 0 
L 475 2988 
L 103 2988 
L 103 3322 
L 1606 3322 
L 1606 2988 
L 1069 2988 
L 1813 728 
L 2669 3322 
L 3072 3322 
z
" transform="scale(0.015625)"/>
      </defs>
      <use xlink:href="#DejaVuSerif-54"/>
      <use xlink:href="#DejaVuSerif-6f" x="58.949219"/>
      <use xlink:href="#DejaVuSerif-74" x="119.154297"/>
      <use xlink:href="#DejaVuSerif-61" x="159.339844"/>
      <use xlink:href="#DejaVuSerif-6c" x="218.958984"/>
      <use xlink:href="#DejaVuSerif-20" x="250.941406"/>
      <use xlink:href="#DejaVuSerif-72" x="282.728516"/>
      <use xlink:href="#DejaVuSerif-65" x="330.53125"/>
      <use xlink:href="#DejaVuSerif-77" x="389.710938"/>
      <use xlink:href="#DejaVuSerif-61" x="475.306641"/>
      <use xlink:href="#DejaVuSerif-72" x="534.925781"/>
      <use xlink:href="#DejaVuSerif-64" x="582.728516"/>
     </g>
    </g>
   </g>
   <g id="line2d_37">
    <path d="M 356.623333 176.529442 
L 378.630926 197.242911 
L 400.638519 168.196214 
L 422.646111 189.434513 
L 444.653704 192.977349 
L 488.668889 196.506363 
L 532.684074 185.297127 
L 554.691667 181.255289 
" clip-path="url(#p08461b4131)" style="fill: none; stroke: #1f77b4; stroke-width: 3; stroke-linecap: square"/>
   </g>
   <g id="line2d_38">
    <path d="M 356.623333 159.78465 
L 378.630926 171.959123 
L 422.646111 189.840492 
L 466.661296 195.925687 
L 488.668889 177.712054 
L 510.676481 175.688229 
L 532.684074 161.287537 
L 554.691667 183.342276 
" clip-path="url(#p08461b4131)" style="fill: none; stroke: #2ca02c; stroke-width: 3; stroke-linecap: square"/>
   </g>
   <g id="line2d_39">
    <path d="M 356.623333 130.363702 
L 378.630926 163.64252 
L 400.638519 184.589936 
L 422.646111 184.52693 
L 466.661296 182.505423 
L 554.691667 193.96544 
" clip-path="url(#p08461b4131)" style="fill: none; stroke: #d62728; stroke-width: 3; stroke-linecap: square"/>
   </g>
   <g id="patch_8">
    <path d="M 356.623333 270 
L 356.623333 17.28 
" style="fill: none; stroke: #000000; stroke-width: 0.8; stroke-linejoin: miter; stroke-linecap: square"/>
   </g>
   <g id="patch_9">
    <path d="M 554.691667 270 
L 554.691667 17.28 
" style="fill: none; stroke: #000000; stroke-width: 0.8; stroke-linejoin: miter; stroke-linecap: square"/>
   </g>
   <g id="patch_10">
    <path d="M 356.623333 270 
L 554.691667 270 
" style="fill: none; stroke: #000000; stroke-width: 0.8; stroke-linejoin: miter; stroke-linecap: square"/>
   </g>
   <g id="patch_11">
    <path d="M 356.623333 17.28 
L 554.691667 17.28 
" style="fill: none; stroke: #000000; stroke-width: 0.8; stroke-linejoin: miter; stroke-linecap: square"/>
   </g>
  </g>
  <g id="axes_3">
   <g id="patch_12">
    <path d="M 638.436667 270 
L 836.505 270 
L 836.505 17.28 
L 638.436667 17.28 
z
" style="fill: #ffffff"/>
   </g>
   <g id="PolyCollection_7">
    <defs>
     <path id="m0e59b93d5e" d="M 638.436667 -274.266453 
L 638.436667 -122.933062 
L 660.444259 -101.487273 
L 682.451852 -121.378233 
L 704.459444 -169.160185 
L 726.467037 -150.102797 
L 770.482222 -182.356367 
L 814.497407 -168.363655 
L 836.505 -140.980936 
L 836.505 -309.689039 
L 836.505 -309.689039 
L 814.497407 -317.631202 
L 770.482222 -331.232727 
L 726.467037 -281.99211 
L 704.459444 -325.961161 
L 682.451852 -245.757545 
L 660.444259 -276.600273 
L 638.436667 -274.266453 
z
" style="stroke: #1f77b4; stroke-opacity: 0.2"/>
    </defs>
    <g clip-path="url(#pefc1cc8833)">
     <use xlink:href="#m0e59b93d5e" x="0" y="360" style="fill: #1f77b4; fill-opacity: 0.2; stroke: #1f77b4; stroke-opacity: 0.2"/>
    </g>
   </g>
   <g id="PolyCollection_8">
    <defs>
     <path id="m781c47bc45" d="M 638.436667 -255.241767 
L 638.436667 -133.582825 
L 660.444259 -173.344612 
L 704.459444 -113.010887 
L 748.47463 -160.390797 
L 770.482222 -172.193676 
L 792.489815 -166.029417 
L 814.497407 -181.923042 
L 836.505 -151.715328 
L 836.505 -299.384122 
L 836.505 -299.384122 
L 814.497407 -318.996335 
L 792.489815 -315.885384 
L 770.482222 -278.046832 
L 748.47463 -247.760485 
L 704.459444 -235.227684 
L 660.444259 -314.046081 
L 638.436667 -255.241767 
z
" style="stroke: #2ca02c; stroke-opacity: 0.2"/>
    </defs>
    <g clip-path="url(#pefc1cc8833)">
     <use xlink:href="#m781c47bc45" x="0" y="360" style="fill: #2ca02c; fill-opacity: 0.2; stroke: #2ca02c; stroke-opacity: 0.2"/>
    </g>
   </g>
   <g id="PolyCollection_9">
    <defs>
     <path id="m2f83932ab7" d="M 638.436667 -284.51003 
L 638.436667 -180.977095 
L 660.444259 -151.778052 
L 682.451852 -135.39906 
L 704.459444 -127.199062 
L 748.47463 -128.370256 
L 836.505 -107.325361 
L 836.505 -168.652888 
L 836.505 -168.652888 
L 748.47463 -216.861956 
L 704.459444 -232.850252 
L 682.451852 -231.414588 
L 660.444259 -274.626201 
L 638.436667 -284.51003 
z
" style="stroke: #d62728; stroke-opacity: 0.2"/>
    </defs>
    <g clip-path="url(#pefc1cc8833)">
     <use xlink:href="#m2f83932ab7" x="0" y="360" style="fill: #d62728; fill-opacity: 0.2; stroke: #d62728; stroke-opacity: 0.2"/>
    </g>
   </g>
   <g id="matplotlib.axis_5">
    <g id="xtick_21">
     <g id="line2d_40">
      <g>
       <use xlink:href="#mbca75d236a" x="638.436667" y="270" style="stroke: #000000; stroke-width: 0.8"/>
      </g>
     </g>
     <g id="text_38">
      <!-- 1 -->
      <g transform="translate(633.346667 289.1575) scale(0.16 -0.16)">
       <use xlink:href="#DejaVuSerif-31"/>
      </g>
     </g>
    </g>
    <g id="xtick_22">
     <g id="line2d_41">
      <g>
       <use xlink:href="#mbca75d236a" x="660.444259" y="270" style="stroke: #000000; stroke-width: 0.8"/>
      </g>
     </g>
     <g id="text_39">
      <!-- 2 -->
      <g transform="translate(655.354259 289.1575) scale(0.16 -0.16)">
       <use xlink:href="#DejaVuSerif-32"/>
      </g>
     </g>
    </g>
    <g id="xtick_23">
     <g id="line2d_42">
      <g>
       <use xlink:href="#mbca75d236a" x="682.451852" y="270" style="stroke: #000000; stroke-width: 0.8"/>
      </g>
     </g>
     <g id="text_40">
      <!-- 3 -->
      <g transform="translate(677.361852 289.1575) scale(0.16 -0.16)">
       <use xlink:href="#DejaVuSerif-33"/>
      </g>
     </g>
    </g>
    <g id="xtick_24">
     <g id="line2d_43">
      <g>
       <use xlink:href="#mbca75d236a" x="704.459444" y="270" style="stroke: #000000; stroke-width: 0.8"/>
      </g>
     </g>
     <g id="text_41">
      <!-- 4 -->
      <g transform="translate(699.369444 289.1575) scale(0.16 -0.16)">
       <use xlink:href="#DejaVuSerif-34"/>
      </g>
     </g>
    </g>
    <g id="xtick_25">
     <g id="line2d_44">
      <g>
       <use xlink:href="#mbca75d236a" x="726.467037" y="270" style="stroke: #000000; stroke-width: 0.8"/>
      </g>
     </g>
     <g id="text_42">
      <!-- 5 -->
      <g transform="translate(721.377037 289.1575) scale(0.16 -0.16)">
       <use xlink:href="#DejaVuSerif-35"/>
      </g>
     </g>
    </g>
    <g id="xtick_26">
     <g id="line2d_45">
      <g>
       <use xlink:href="#mbca75d236a" x="748.47463" y="270" style="stroke: #000000; stroke-width: 0.8"/>
      </g>
     </g>
     <g id="text_43">
      <!-- 6 -->
      <g transform="translate(743.38463 289.1575) scale(0.16 -0.16)">
       <use xlink:href="#DejaVuSerif-36"/>
      </g>
     </g>
    </g>
    <g id="xtick_27">
     <g id="line2d_46">
      <g>
       <use xlink:href="#mbca75d236a" x="770.482222" y="270" style="stroke: #000000; stroke-width: 0.8"/>
      </g>
     </g>
     <g id="text_44">
      <!-- 7 -->
      <g transform="translate(765.392222 289.1575) scale(0.16 -0.16)">
       <use xlink:href="#DejaVuSerif-37"/>
      </g>
     </g>
    </g>
    <g id="xtick_28">
     <g id="line2d_47">
      <g>
       <use xlink:href="#mbca75d236a" x="792.489815" y="270" style="stroke: #000000; stroke-width: 0.8"/>
      </g>
     </g>
     <g id="text_45">
      <!-- 8 -->
      <g transform="translate(787.399815 289.1575) scale(0.16 -0.16)">
       <use xlink:href="#DejaVuSerif-38"/>
      </g>
     </g>
    </g>
    <g id="xtick_29">
     <g id="line2d_48">
      <g>
       <use xlink:href="#mbca75d236a" x="814.497407" y="270" style="stroke: #000000; stroke-width: 0.8"/>
      </g>
     </g>
     <g id="text_46">
      <!-- 9 -->
      <g transform="translate(809.407407 289.1575) scale(0.16 -0.16)">
       <use xlink:href="#DejaVuSerif-39"/>
      </g>
     </g>
    </g>
    <g id="xtick_30">
     <g id="line2d_49">
      <g>
       <use xlink:href="#mbca75d236a" x="836.505" y="270" style="stroke: #000000; stroke-width: 0.8"/>
      </g>
     </g>
     <g id="text_47">
      <!-- 10 -->
      <g transform="translate(826.325 289.1575) scale(0.16 -0.16)">
       <use xlink:href="#DejaVuSerif-31"/>
       <use xlink:href="#DejaVuSerif-30" x="63.623047"/>
      </g>
     </g>
    </g>
    <g id="text_48">
     <!-- Epoch -->
     <g transform="translate(712.060833 308.6425) scale(0.16 -0.16)">
      <use xlink:href="#DejaVuSerif-45"/>
      <use xlink:href="#DejaVuSerif-70" x="72.998047"/>
      <use xlink:href="#DejaVuSerif-6f" x="137.011719"/>
      <use xlink:href="#DejaVuSerif-63" x="197.216797"/>
      <use xlink:href="#DejaVuSerif-68" x="253.222656"/>
     </g>
    </g>
   </g>
   <g id="matplotlib.axis_6">
    <g id="ytick_14">
     <g id="line2d_50">
      <g>
       <use xlink:href="#mc698c0c972" x="638.436667" y="221.312966" style="stroke: #000000; stroke-width: 0.8"/>
      </g>
     </g>
     <g id="text_49">
      <!-- 100 -->
      <g transform="translate(600.896667 227.391716) scale(0.16 -0.16)">
       <use xlink:href="#DejaVuSerif-31"/>
       <use xlink:href="#DejaVuSerif-30" x="63.623047"/>
       <use xlink:href="#DejaVuSerif-30" x="127.246094"/>
      </g>
     </g>
    </g>
    <g id="ytick_15">
     <g id="line2d_51">
      <g>
       <use xlink:href="#mc698c0c972" x="638.436667" y="167.627736" style="stroke: #000000; stroke-width: 0.8"/>
      </g>
     </g>
     <g id="text_50">
      <!-- 150 -->
      <g transform="translate(600.896667 173.706486) scale(0.16 -0.16)">
       <use xlink:href="#DejaVuSerif-31"/>
       <use xlink:href="#DejaVuSerif-35" x="63.623047"/>
       <use xlink:href="#DejaVuSerif-30" x="127.246094"/>
      </g>
     </g>
    </g>
    <g id="ytick_16">
     <g id="line2d_52">
      <g>
       <use xlink:href="#mc698c0c972" x="638.436667" y="113.942507" style="stroke: #000000; stroke-width: 0.8"/>
      </g>
     </g>
     <g id="text_51">
      <!-- 200 -->
      <g transform="translate(600.896667 120.021257) scale(0.16 -0.16)">
       <use xlink:href="#DejaVuSerif-32"/>
       <use xlink:href="#DejaVuSerif-30" x="63.623047"/>
       <use xlink:href="#DejaVuSerif-30" x="127.246094"/>
      </g>
     </g>
    </g>
    <g id="ytick_17">
     <g id="line2d_53">
      <g>
       <use xlink:href="#mc698c0c972" x="638.436667" y="60.257277" style="stroke: #000000; stroke-width: 0.8"/>
      </g>
     </g>
     <g id="text_52">
      <!-- 250 -->
      <g transform="translate(600.896667 66.336027) scale(0.16 -0.16)">
       <use xlink:href="#DejaVuSerif-32"/>
       <use xlink:href="#DejaVuSerif-35" x="63.623047"/>
       <use xlink:href="#DejaVuSerif-30" x="127.246094"/>
      </g>
     </g>
    </g>
    <g id="text_53">
     <!-- Number of actions -->
     <g transform="translate(593.569167 219.01875) rotate(-90) scale(0.16 -0.16)">
      <defs>
       <path id="DejaVuSerif-4e" d="M 313 0 
L 313 331 
L 941 331 
L 941 4331 
L 313 4331 
L 313 4666 
L 1509 4666 
L 4306 984 
L 4306 4331 
L 3681 4331 
L 3681 4666 
L 5319 4666 
L 5319 4331 
L 4691 4331 
L 4691 -91 
L 4313 -91 
L 1325 3841 
L 1325 331 
L 1953 331 
L 1953 0 
L 313 0 
z
" transform="scale(0.015625)"/>
       <path id="DejaVuSerif-6d" d="M 3316 2675 
Q 3481 3041 3739 3227 
Q 3997 3413 4341 3413 
Q 4863 3413 5119 3089 
Q 5375 2766 5375 2113 
L 5375 331 
L 5894 331 
L 5894 0 
L 4300 0 
L 4300 331 
L 4800 331 
L 4800 2047 
Q 4800 2556 4650 2772 
Q 4500 2988 4153 2988 
Q 3769 2988 3567 2697 
Q 3366 2406 3366 1850 
L 3366 331 
L 3866 331 
L 3866 0 
L 2291 0 
L 2291 331 
L 2791 331 
L 2791 2069 
Q 2791 2566 2641 2777 
Q 2491 2988 2144 2988 
Q 1759 2988 1557 2697 
Q 1356 2406 1356 1850 
L 1356 331 
L 1856 331 
L 1856 0 
L 263 0 
L 263 331 
L 781 331 
L 781 2994 
L 231 2994 
L 231 3322 
L 1356 3322 
L 1356 2731 
Q 1516 3063 1762 3238 
Q 2009 3413 2322 3413 
Q 2709 3413 2968 3220 
Q 3228 3028 3316 2675 
z
" transform="scale(0.015625)"/>
       <path id="DejaVuSerif-62" d="M 738 331 
L 738 4531 
L 184 4531 
L 184 4863 
L 1313 4863 
L 1313 2803 
Q 1481 3116 1742 3264 
Q 2003 3413 2388 3413 
Q 3000 3413 3387 2928 
Q 3775 2444 3775 1663 
Q 3775 881 3387 395 
Q 3000 -91 2388 -91 
Q 2003 -91 1742 57 
Q 1481 206 1313 519 
L 1313 0 
L 184 0 
L 184 331 
L 738 331 
z
M 1313 1497 
Q 1313 897 1542 583 
Q 1772 269 2209 269 
Q 2650 269 2876 622 
Q 3103 975 3103 1663 
Q 3103 2353 2876 2703 
Q 2650 3053 2209 3053 
Q 1772 3053 1542 2737 
Q 1313 2422 1313 1825 
L 1313 1497 
z
" transform="scale(0.015625)"/>
       <path id="DejaVuSerif-66" d="M 2753 4078 
L 2450 4078 
Q 2447 4313 2317 4434 
Q 2188 4556 1941 4556 
Q 1619 4556 1487 4379 
Q 1356 4203 1356 3750 
L 1356 3322 
L 2284 3322 
L 2284 2988 
L 1356 2988 
L 1356 331 
L 2094 331 
L 2094 0 
L 231 0 
L 231 331 
L 781 331 
L 781 2988 
L 231 2988 
L 231 3322 
L 781 3322 
L 781 3738 
Q 781 4294 1070 4578 
Q 1359 4863 1919 4863 
Q 2128 4863 2337 4825 
Q 2547 4788 2753 4709 
L 2753 4078 
z
" transform="scale(0.015625)"/>
       <path id="DejaVuSerif-73" d="M 359 184 
L 359 959 
L 691 959 
Q 703 588 923 403 
Q 1144 219 1575 219 
Q 1963 219 2166 364 
Q 2369 509 2369 788 
Q 2369 1006 2220 1140 
Q 2072 1275 1594 1428 
L 1178 1569 
Q 750 1706 558 1912 
Q 366 2119 366 2438 
Q 366 2894 700 3153 
Q 1034 3413 1625 3413 
Q 1888 3413 2178 3344 
Q 2469 3275 2778 3144 
L 2778 2419 
L 2447 2419 
Q 2434 2741 2221 2922 
Q 2009 3103 1644 3103 
Q 1281 3103 1095 2975 
Q 909 2847 909 2591 
Q 909 2381 1050 2254 
Q 1191 2128 1613 1997 
L 2069 1856 
Q 2541 1709 2748 1489 
Q 2956 1269 2956 922 
Q 2956 450 2595 179 
Q 2234 -91 1600 -91 
Q 1278 -91 972 -22 
Q 666 47 359 184 
z
" transform="scale(0.015625)"/>
      </defs>
      <use xlink:href="#DejaVuSerif-4e"/>
      <use xlink:href="#DejaVuSerif-75" x="87.5"/>
      <use xlink:href="#DejaVuSerif-6d" x="151.904297"/>
      <use xlink:href="#DejaVuSerif-62" x="246.728516"/>
      <use xlink:href="#DejaVuSerif-65" x="310.742188"/>
      <use xlink:href="#DejaVuSerif-72" x="369.921875"/>
      <use xlink:href="#DejaVuSerif-20" x="417.724609"/>
      <use xlink:href="#DejaVuSerif-6f" x="449.511719"/>
      <use xlink:href="#DejaVuSerif-66" x="509.716797"/>
      <use xlink:href="#DejaVuSerif-20" x="546.728516"/>
      <use xlink:href="#DejaVuSerif-61" x="578.515625"/>
      <use xlink:href="#DejaVuSerif-63" x="638.134766"/>
      <use xlink:href="#DejaVuSerif-74" x="694.140625"/>
      <use xlink:href="#DejaVuSerif-69" x="734.326172"/>
      <use xlink:href="#DejaVuSerif-6f" x="766.308594"/>
      <use xlink:href="#DejaVuSerif-6e" x="826.513672"/>
      <use xlink:href="#DejaVuSerif-73" x="890.917969"/>
     </g>
    </g>
   </g>
   <g id="line2d_54">
    <path d="M 638.436667 161.400246 
L 660.444259 170.956227 
L 682.451852 176.432111 
L 704.459444 112.439327 
L 726.467037 143.952547 
L 770.482222 103.205461 
L 814.497407 117.002571 
L 836.505 134.665009 
" clip-path="url(#pefc1cc8833)" style="fill: none; stroke: #1f77b4; stroke-width: 3; stroke-linecap: square"/>
   </g>
   <g id="line2d_55">
    <path d="M 638.436667 165.587704 
L 660.444259 116.304654 
L 704.459444 185.880714 
L 748.47463 155.924363 
L 770.482222 134.879746 
L 792.489815 119.042604 
L 814.497407 109.540311 
L 836.505 134.450271 
" clip-path="url(#pefc1cc8833)" style="fill: none; stroke: #2ca02c; stroke-width: 3; stroke-linecap: square"/>
   </g>
   <g id="line2d_56">
    <path d="M 638.436667 127.256437 
L 660.444259 146.797874 
L 682.451852 176.593176 
L 704.459444 179.975339 
L 748.47463 187.383894 
L 836.505 222.010875 
" clip-path="url(#pefc1cc8833)" style="fill: none; stroke: #d62728; stroke-width: 3; stroke-linecap: square"/>
   </g>
   <g id="patch_13">
    <path d="M 638.436667 270 
L 638.436667 17.28 
" style="fill: none; stroke: #000000; stroke-width: 0.8; stroke-linejoin: miter; stroke-linecap: square"/>
   </g>
   <g id="patch_14">
    <path d="M 836.505 270 
L 836.505 17.28 
" style="fill: none; stroke: #000000; stroke-width: 0.8; stroke-linejoin: miter; stroke-linecap: square"/>
   </g>
   <g id="patch_15">
    <path d="M 638.436667 270 
L 836.505 270 
" style="fill: none; stroke: #000000; stroke-width: 0.8; stroke-linejoin: miter; stroke-linecap: square"/>
   </g>
   <g id="patch_16">
    <path d="M 638.436667 17.28 
L 836.505 17.28 
" style="fill: none; stroke: #000000; stroke-width: 0.8; stroke-linejoin: miter; stroke-linecap: square"/>
   </g>
  </g>
  <g id="legend_1">
   <g id="line2d_57">
    <path d="M 54.45125 336.6725 
L 70.45125 336.6725 
L 86.45125 336.6725 
" style="fill: none; stroke: #1f77b4; stroke-width: 3; stroke-linecap: square"/>
   </g>
   <g id="text_54">
    <!-- StARformer 2L step30 -->
    <g transform="translate(99.25125 342.2725) scale(0.16 -0.16)">
     <defs>
      <path id="DejaVuSerif-53" d="M 594 225 
L 594 1288 
L 953 1284 
Q 969 753 1261 498 
Q 1553 244 2150 244 
Q 2706 244 2998 464 
Q 3291 684 3291 1106 
Q 3291 1444 3114 1625 
Q 2938 1806 2369 1978 
L 1753 2163 
Q 1084 2366 811 2669 
Q 538 2972 538 3500 
Q 538 4094 959 4422 
Q 1381 4750 2144 4750 
Q 2469 4750 2856 4679 
Q 3244 4609 3681 4475 
L 3681 3481 
L 3328 3481 
Q 3275 3975 2998 4195 
Q 2722 4416 2156 4416 
Q 1663 4416 1405 4214 
Q 1147 4013 1147 3628 
Q 1147 3294 1340 3103 
Q 1534 2913 2163 2725 
L 2741 2553 
Q 3375 2363 3645 2067 
Q 3916 1772 3916 1275 
Q 3916 597 3481 253 
Q 3047 -91 2188 -91 
Q 1803 -91 1404 -12 
Q 1006 66 594 225 
z
" transform="scale(0.015625)"/>
      <path id="DejaVuSerif-41" d="M 1281 1691 
L 2994 1691 
L 2138 3909 
L 1281 1691 
z
M -38 0 
L -38 331 
L 372 331 
L 2034 4666 
L 2559 4666 
L 4225 331 
L 4684 331 
L 4684 0 
L 2988 0 
L 2988 331 
L 3506 331 
L 3116 1356 
L 1153 1356 
L 763 331 
L 1275 331 
L 1275 0 
L -38 0 
z
" transform="scale(0.015625)"/>
      <path id="DejaVuSerif-52" d="M 3066 2316 
Q 3284 2256 3442 2114 
Q 3600 1972 3725 1716 
L 4403 331 
L 4972 331 
L 4972 0 
L 3872 0 
L 3144 1484 
Q 2934 1916 2759 2042 
Q 2584 2169 2278 2169 
L 1581 2169 
L 1581 331 
L 2241 331 
L 2241 0 
L 353 0 
L 353 331 
L 947 331 
L 947 4331 
L 353 4331 
L 353 4666 
L 2719 4666 
Q 3400 4666 3770 4341 
Q 4141 4016 4141 3419 
Q 4141 2938 3870 2661 
Q 3600 2384 3066 2316 
z
M 1581 2503 
L 2503 2503 
Q 2975 2503 3200 2726 
Q 3425 2950 3425 3419 
Q 3425 3888 3200 4109 
Q 2975 4331 2503 4331 
L 1581 4331 
L 1581 2503 
z
" transform="scale(0.015625)"/>
      <path id="DejaVuSerif-4c" d="M 353 0 
L 353 331 
L 947 331 
L 947 4331 
L 353 4331 
L 353 4666 
L 2175 4666 
L 2175 4331 
L 1581 4331 
L 1581 384 
L 3713 384 
L 3713 1166 
L 4097 1166 
L 4097 0 
L 353 0 
z
" transform="scale(0.015625)"/>
     </defs>
     <use xlink:href="#DejaVuSerif-53"/>
     <use xlink:href="#DejaVuSerif-74" x="68.505859"/>
     <use xlink:href="#DejaVuSerif-41" x="108.691406"/>
     <use xlink:href="#DejaVuSerif-52" x="180.908203"/>
     <use xlink:href="#DejaVuSerif-66" x="256.201172"/>
     <use xlink:href="#DejaVuSerif-6f" x="293.212891"/>
     <use xlink:href="#DejaVuSerif-72" x="353.417969"/>
     <use xlink:href="#DejaVuSerif-6d" x="401.220703"/>
     <use xlink:href="#DejaVuSerif-65" x="496.044922"/>
     <use xlink:href="#DejaVuSerif-72" x="555.224609"/>
     <use xlink:href="#DejaVuSerif-20" x="603.027344"/>
     <use xlink:href="#DejaVuSerif-32" x="634.814453"/>
     <use xlink:href="#DejaVuSerif-4c" x="698.4375"/>
     <use xlink:href="#DejaVuSerif-20" x="764.84375"/>
     <use xlink:href="#DejaVuSerif-73" x="796.630859"/>
     <use xlink:href="#DejaVuSerif-74" x="847.949219"/>
     <use xlink:href="#DejaVuSerif-65" x="888.134766"/>
     <use xlink:href="#DejaVuSerif-70" x="947.314453"/>
     <use xlink:href="#DejaVuSerif-33" x="1011.328125"/>
     <use xlink:href="#DejaVuSerif-30" x="1074.951172"/>
    </g>
   </g>
   <g id="line2d_58">
    <path d="M 313.42375 336.6725 
L 329.42375 336.6725 
L 345.42375 336.6725 
" style="fill: none; stroke: #2ca02c; stroke-width: 3; stroke-linecap: square"/>
   </g>
   <g id="text_55">
    <!-- StARformer 2L step50 -->
    <g transform="translate(358.22375 342.2725) scale(0.16 -0.16)">
     <use xlink:href="#DejaVuSerif-53"/>
     <use xlink:href="#DejaVuSerif-74" x="68.505859"/>
     <use xlink:href="#DejaVuSerif-41" x="108.691406"/>
     <use xlink:href="#DejaVuSerif-52" x="180.908203"/>
     <use xlink:href="#DejaVuSerif-66" x="256.201172"/>
     <use xlink:href="#DejaVuSerif-6f" x="293.212891"/>
     <use xlink:href="#DejaVuSerif-72" x="353.417969"/>
     <use xlink:href="#DejaVuSerif-6d" x="401.220703"/>
     <use xlink:href="#DejaVuSerif-65" x="496.044922"/>
     <use xlink:href="#DejaVuSerif-72" x="555.224609"/>
     <use xlink:href="#DejaVuSerif-20" x="603.027344"/>
     <use xlink:href="#DejaVuSerif-32" x="634.814453"/>
     <use xlink:href="#DejaVuSerif-4c" x="698.4375"/>
     <use xlink:href="#DejaVuSerif-20" x="764.84375"/>
     <use xlink:href="#DejaVuSerif-73" x="796.630859"/>
     <use xlink:href="#DejaVuSerif-74" x="847.949219"/>
     <use xlink:href="#DejaVuSerif-65" x="888.134766"/>
     <use xlink:href="#DejaVuSerif-70" x="947.314453"/>
     <use xlink:href="#DejaVuSerif-35" x="1011.328125"/>
     <use xlink:href="#DejaVuSerif-30" x="1074.951172"/>
    </g>
   </g>
   <g id="line2d_59">
    <path d="M 572.39625 336.6725 
L 588.39625 336.6725 
L 604.39625 336.6725 
" style="fill: none; stroke: #d62728; stroke-width: 3; stroke-linecap: square"/>
   </g>
   <g id="text_56">
    <!-- StARformer 2L step100 -->
    <g transform="translate(617.19625 342.2725) scale(0.16 -0.16)">
     <use xlink:href="#DejaVuSerif-53"/>
     <use xlink:href="#DejaVuSerif-74" x="68.505859"/>
     <use xlink:href="#DejaVuSerif-41" x="108.691406"/>
     <use xlink:href="#DejaVuSerif-52" x="180.908203"/>
     <use xlink:href="#DejaVuSerif-66" x="256.201172"/>
     <use xlink:href="#DejaVuSerif-6f" x="293.212891"/>
     <use xlink:href="#DejaVuSerif-72" x="353.417969"/>
     <use xlink:href="#DejaVuSerif-6d" x="401.220703"/>
     <use xlink:href="#DejaVuSerif-65" x="496.044922"/>
     <use xlink:href="#DejaVuSerif-72" x="555.224609"/>
     <use xlink:href="#DejaVuSerif-20" x="603.027344"/>
     <use xlink:href="#DejaVuSerif-32" x="634.814453"/>
     <use xlink:href="#DejaVuSerif-4c" x="698.4375"/>
     <use xlink:href="#DejaVuSerif-20" x="764.84375"/>
     <use xlink:href="#DejaVuSerif-73" x="796.630859"/>
     <use xlink:href="#DejaVuSerif-74" x="847.949219"/>
     <use xlink:href="#DejaVuSerif-65" x="888.134766"/>
     <use xlink:href="#DejaVuSerif-70" x="947.314453"/>
     <use xlink:href="#DejaVuSerif-31" x="1011.328125"/>
     <use xlink:href="#DejaVuSerif-30" x="1074.951172"/>
     <use xlink:href="#DejaVuSerif-30" x="1138.574219"/>
    </g>
   </g>
  </g>
 </g>
 <defs>
  <clipPath id="p9acb49e362">
   <rect x="74.81" y="17.28" width="198.068333" height="252.72"/>
  </clipPath>
  <clipPath id="p08461b4131">
   <rect x="356.623333" y="17.28" width="198.068333" height="252.72"/>
  </clipPath>
  <clipPath id="pefc1cc8833">
   <rect x="638.436667" y="17.28" width="198.068333" height="252.72"/>
  </clipPath>
 </defs>
</svg>
