<?xml version="1.0" encoding="utf-8" standalone="no"?>
<!DOCTYPE svg PUBLIC "-//W3C//DTD SVG 1.1//EN"
  "http://www.w3.org/Graphics/SVG/1.1/DTD/svg11.dtd">
<svg xmlns:xlink="http://www.w3.org/1999/xlink" width="1296pt" height="432pt" viewBox="0 0 1296 432" xmlns="http://www.w3.org/2000/svg" version="1.1">
 <metadata>
  <rdf:RDF xmlns:dc="http://purl.org/dc/elements/1.1/" xmlns:cc="http://creativecommons.org/ns#" xmlns:rdf="http://www.w3.org/1999/02/22-rdf-syntax-ns#">
   <cc:Work>
    <dc:type rdf:resource="http://purl.org/dc/dcmitype/StillImage"/>
    <dc:date>2024-06-04T14:18:50.636300</dc:date>
    <dc:format>image/svg+xml</dc:format>
    <dc:creator>
     <cc:Agent>
      <dc:title>Matplotlib v3.8.2, https://matplotlib.org/</dc:title>
     </cc:Agent>
    </dc:creator>
   </cc:Work>
  </rdf:RDF>
 </metadata>
 <defs>
  <style type="text/css">*{stroke-linejoin: round; stroke-linecap: butt}</style>
 </defs>
 <g id="figure_1">
  <g id="patch_1">
   <path d="M 0 432 
L 1296 432 
L 1296 0 
L 0 0 
z
" style="fill: #ffffff"/>
  </g>
  <g id="axes_1">
   <g id="patch_2">
    <path d="M 89.302813 360.26125 
L 1258.623 360.26125 
L 1258.623 26.769614 
L 89.302813 26.769614 
z
" style="fill: #ffffff"/>
   </g>
   <g id="matplotlib.axis_1">
    <g id="xtick_1">
     <g id="line2d_1">
      <defs>
       <path id="m277a20d713" d="M 0 0 
L 0 3.5 
" style="stroke: #000000; stroke-width: 0.8"/>
      </defs>
      <g>
       <use xlink:href="#m277a20d713" x="93.200546" y="360.26125" style="stroke: #000000; stroke-width: 0.8"/>
      </g>
     </g>
     <g id="text_1">
      <!-- 1 -->
      <g transform="translate(86.838046 382.458125) scale(0.2 -0.2)">
       <defs>
        <path id="DejaVuSerif-31" d="M 909 0 
L 909 331 
L 1722 331 
L 1722 4213 
L 781 3603 
L 781 4013 
L 1919 4750 
L 2350 4750 
L 2350 331 
L 3163 331 
L 3163 0 
L 909 0 
z
" transform="scale(0.015625)"/>
       </defs>
       <use xlink:href="#DejaVuSerif-31"/>
      </g>
     </g>
    </g>
    <g id="xtick_2">
     <g id="line2d_2">
      <g>
       <use xlink:href="#m277a20d713" x="163.359758" y="360.26125" style="stroke: #000000; stroke-width: 0.8"/>
      </g>
     </g>
     <g id="text_2">
      <!-- 10 -->
      <g transform="translate(150.634758 382.458125) scale(0.2 -0.2)">
       <defs>
        <path id="DejaVuSerif-30" d="M 2034 219 
Q 2513 219 2750 744 
Q 2988 1269 2988 2328 
Q 2988 3391 2750 3916 
Q 2513 4441 2034 4441 
Q 1556 4441 1318 3916 
Q 1081 3391 1081 2328 
Q 1081 1269 1318 744 
Q 1556 219 2034 219 
z
M 2034 -91 
Q 1275 -91 848 546 
Q 422 1184 422 2328 
Q 422 3475 848 4112 
Q 1275 4750 2034 4750 
Q 2797 4750 3222 4112 
Q 3647 3475 3647 2328 
Q 3647 1184 3222 546 
Q 2797 -91 2034 -91 
z
" transform="scale(0.015625)"/>
       </defs>
       <use xlink:href="#DejaVuSerif-31"/>
       <use xlink:href="#DejaVuSerif-30" x="63.623047"/>
      </g>
     </g>
    </g>
    <g id="xtick_3">
     <g id="line2d_3">
      <g>
       <use xlink:href="#m277a20d713" x="241.314437" y="360.26125" style="stroke: #000000; stroke-width: 0.8"/>
      </g>
     </g>
     <g id="text_3">
      <!-- 20 -->
      <g transform="translate(228.589437 382.458125) scale(0.2 -0.2)">
       <defs>
        <path id="DejaVuSerif-32" d="M 819 3553 
L 469 3553 
L 469 4384 
Q 803 4563 1142 4656 
Q 1481 4750 1806 4750 
Q 2534 4750 2956 4397 
Q 3378 4044 3378 3438 
Q 3378 2753 2422 1800 
Q 2347 1728 2309 1691 
L 1131 513 
L 3078 513 
L 3078 1088 
L 3444 1088 
L 3444 0 
L 434 0 
L 434 341 
L 1850 1753 
Q 2319 2222 2519 2614 
Q 2719 3006 2719 3438 
Q 2719 3909 2473 4175 
Q 2228 4441 1797 4441 
Q 1350 4441 1106 4219 
Q 863 3997 819 3553 
z
" transform="scale(0.015625)"/>
       </defs>
       <use xlink:href="#DejaVuSerif-32"/>
       <use xlink:href="#DejaVuSerif-30" x="63.623047"/>
      </g>
     </g>
    </g>
    <g id="xtick_4">
     <g id="line2d_4">
      <g>
       <use xlink:href="#m277a20d713" x="319.269116" y="360.26125" style="stroke: #000000; stroke-width: 0.8"/>
      </g>
     </g>
     <g id="text_4">
      <!-- 30 -->
      <g transform="translate(306.544116 382.458125) scale(0.2 -0.2)">
       <defs>
        <path id="DejaVuSerif-33" d="M 622 4469 
Q 988 4606 1323 4678 
Q 1659 4750 1953 4750 
Q 2638 4750 3022 4454 
Q 3406 4159 3406 3634 
Q 3406 3213 3140 2930 
Q 2875 2647 2388 2547 
Q 2963 2466 3280 2130 
Q 3597 1794 3597 1259 
Q 3597 606 3158 257 
Q 2719 -91 1894 -91 
Q 1528 -91 1179 -12 
Q 831 66 488 225 
L 488 1131 
L 838 1131 
Q 869 681 1141 450 
Q 1413 219 1906 219 
Q 2384 219 2661 495 
Q 2938 772 2938 1253 
Q 2938 1803 2653 2086 
Q 2369 2369 1819 2369 
L 1522 2369 
L 1522 2688 
L 1678 2688 
Q 2225 2688 2498 2914 
Q 2772 3141 2772 3597 
Q 2772 4006 2547 4223 
Q 2322 4441 1900 4441 
Q 1478 4441 1245 4241 
Q 1013 4041 972 3647 
L 622 3647 
L 622 4469 
z
" transform="scale(0.015625)"/>
       </defs>
       <use xlink:href="#DejaVuSerif-33"/>
       <use xlink:href="#DejaVuSerif-30" x="63.623047"/>
      </g>
     </g>
    </g>
    <g id="xtick_5">
     <g id="line2d_5">
      <g>
       <use xlink:href="#m277a20d713" x="397.223795" y="360.26125" style="stroke: #000000; stroke-width: 0.8"/>
      </g>
     </g>
     <g id="text_5">
      <!-- 40 -->
      <g transform="translate(384.498795 382.458125) scale(0.2 -0.2)">
       <defs>
        <path id="DejaVuSerif-34" d="M 2234 1581 
L 2234 4063 
L 641 1581 
L 2234 1581 
z
M 3609 0 
L 1484 0 
L 1484 331 
L 2234 331 
L 2234 1247 
L 197 1247 
L 197 1588 
L 2241 4750 
L 2859 4750 
L 2859 1581 
L 3750 1581 
L 3750 1247 
L 2859 1247 
L 2859 331 
L 3609 331 
L 3609 0 
z
" transform="scale(0.015625)"/>
       </defs>
       <use xlink:href="#DejaVuSerif-34"/>
       <use xlink:href="#DejaVuSerif-30" x="63.623047"/>
      </g>
     </g>
    </g>
    <g id="xtick_6">
     <g id="line2d_6">
      <g>
       <use xlink:href="#m277a20d713" x="475.178474" y="360.26125" style="stroke: #000000; stroke-width: 0.8"/>
      </g>
     </g>
     <g id="text_6">
      <!-- 50 -->
      <g transform="translate(462.453474 382.458125) scale(0.2 -0.2)">
       <defs>
        <path id="DejaVuSerif-35" d="M 3219 4666 
L 3219 4153 
L 1081 4153 
L 1081 2816 
Q 1244 2928 1461 2984 
Q 1678 3041 1947 3041 
Q 2703 3041 3140 2622 
Q 3578 2203 3578 1478 
Q 3578 738 3136 323 
Q 2694 -91 1894 -91 
Q 1572 -91 1234 -12 
Q 897 66 544 225 
L 544 1131 
L 897 1131 
Q 925 688 1179 453 
Q 1434 219 1894 219 
Q 2388 219 2653 544 
Q 2919 869 2919 1478 
Q 2919 2084 2655 2407 
Q 2391 2731 1894 2731 
Q 1613 2731 1398 2631 
Q 1184 2531 1019 2322 
L 750 2322 
L 750 4666 
L 3219 4666 
z
" transform="scale(0.015625)"/>
       </defs>
       <use xlink:href="#DejaVuSerif-35"/>
       <use xlink:href="#DejaVuSerif-30" x="63.623047"/>
      </g>
     </g>
    </g>
    <g id="xtick_7">
     <g id="line2d_7">
      <g>
       <use xlink:href="#m277a20d713" x="553.133154" y="360.26125" style="stroke: #000000; stroke-width: 0.8"/>
      </g>
     </g>
     <g id="text_7">
      <!-- 60 -->
      <g transform="translate(540.408154 382.458125) scale(0.2 -0.2)">
       <defs>
        <path id="DejaVuSerif-36" d="M 2094 219 
Q 2534 219 2771 542 
Q 3009 866 3009 1472 
Q 3009 2078 2771 2401 
Q 2534 2725 2094 2725 
Q 1647 2725 1412 2412 
Q 1178 2100 1178 1509 
Q 1178 888 1415 553 
Q 1653 219 2094 219 
z
M 1075 2569 
Q 1288 2803 1556 2918 
Q 1825 3034 2163 3034 
Q 2859 3034 3264 2615 
Q 3669 2197 3669 1472 
Q 3669 763 3233 336 
Q 2797 -91 2069 -91 
Q 1278 -91 853 498 
Q 428 1088 428 2181 
Q 428 3406 931 4078 
Q 1434 4750 2350 4750 
Q 2597 4750 2869 4703 
Q 3141 4656 3425 4563 
L 3425 3794 
L 3072 3794 
Q 3034 4109 2831 4275 
Q 2628 4441 2284 4441 
Q 1678 4441 1381 3981 
Q 1084 3522 1075 2569 
z
" transform="scale(0.015625)"/>
       </defs>
       <use xlink:href="#DejaVuSerif-36"/>
       <use xlink:href="#DejaVuSerif-30" x="63.623047"/>
      </g>
     </g>
    </g>
    <g id="xtick_8">
     <g id="line2d_8">
      <g>
       <use xlink:href="#m277a20d713" x="670.065172" y="360.26125" style="stroke: #000000; stroke-width: 0.8"/>
      </g>
     </g>
     <g id="text_8">
      <!-- 75 -->
      <g transform="translate(657.340172 382.458125) scale(0.2 -0.2)">
       <defs>
        <path id="DejaVuSerif-37" d="M 3609 4347 
L 1784 0 
L 1319 0 
L 3059 4153 
L 903 4153 
L 903 3578 
L 538 3578 
L 538 4666 
L 3609 4666 
L 3609 4347 
z
" transform="scale(0.015625)"/>
       </defs>
       <use xlink:href="#DejaVuSerif-37"/>
       <use xlink:href="#DejaVuSerif-35" x="63.623047"/>
      </g>
     </g>
    </g>
    <g id="xtick_9">
     <g id="line2d_9">
      <g>
       <use xlink:href="#m277a20d713" x="709.042512" y="360.26125" style="stroke: #000000; stroke-width: 0.8"/>
      </g>
     </g>
     <g id="text_9">
      <!-- 80 -->
      <g transform="translate(696.317512 382.458125) scale(0.2 -0.2)">
       <defs>
        <path id="DejaVuSerif-38" d="M 2981 1275 
Q 2981 1775 2732 2051 
Q 2484 2328 2034 2328 
Q 1584 2328 1336 2051 
Q 1088 1775 1088 1275 
Q 1088 772 1336 495 
Q 1584 219 2034 219 
Q 2484 219 2732 495 
Q 2981 772 2981 1275 
z
M 2853 3541 
Q 2853 3966 2637 4203 
Q 2422 4441 2034 4441 
Q 1650 4441 1433 4203 
Q 1216 3966 1216 3541 
Q 1216 3113 1433 2875 
Q 1650 2638 2034 2638 
Q 2422 2638 2637 2875 
Q 2853 3113 2853 3541 
z
M 2516 2484 
Q 3047 2413 3344 2092 
Q 3641 1772 3641 1275 
Q 3641 619 3225 264 
Q 2809 -91 2034 -91 
Q 1263 -91 845 264 
Q 428 619 428 1275 
Q 428 1772 725 2092 
Q 1022 2413 1556 2484 
Q 1084 2569 832 2842 
Q 581 3116 581 3541 
Q 581 4103 968 4426 
Q 1356 4750 2034 4750 
Q 2713 4750 3100 4426 
Q 3488 4103 3488 3541 
Q 3488 3116 3236 2842 
Q 2984 2569 2516 2484 
z
" transform="scale(0.015625)"/>
       </defs>
       <use xlink:href="#DejaVuSerif-38"/>
       <use xlink:href="#DejaVuSerif-30" x="63.623047"/>
      </g>
     </g>
    </g>
    <g id="xtick_10">
     <g id="line2d_10">
      <g>
       <use xlink:href="#m277a20d713" x="864.95187" y="360.26125" style="stroke: #000000; stroke-width: 0.8"/>
      </g>
     </g>
     <g id="text_10">
      <!-- 100 -->
      <g transform="translate(845.86437 382.458125) scale(0.2 -0.2)">
       <use xlink:href="#DejaVuSerif-31"/>
       <use xlink:href="#DejaVuSerif-30" x="63.623047"/>
       <use xlink:href="#DejaVuSerif-30" x="127.246094"/>
      </g>
     </g>
    </g>
    <g id="xtick_11">
     <g id="line2d_11">
      <g>
       <use xlink:href="#m277a20d713" x="1020.861229" y="360.26125" style="stroke: #000000; stroke-width: 0.8"/>
      </g>
     </g>
     <g id="text_11">
      <!-- 120 -->
      <g transform="translate(1001.773729 382.458125) scale(0.2 -0.2)">
       <use xlink:href="#DejaVuSerif-31"/>
       <use xlink:href="#DejaVuSerif-32" x="63.623047"/>
       <use xlink:href="#DejaVuSerif-30" x="127.246094"/>
      </g>
     </g>
    </g>
    <g id="xtick_12">
     <g id="line2d_12">
      <g>
       <use xlink:href="#m277a20d713" x="1176.770587" y="360.26125" style="stroke: #000000; stroke-width: 0.8"/>
      </g>
     </g>
     <g id="text_12">
      <!-- 140 -->
      <g transform="translate(1157.683087 382.458125) scale(0.2 -0.2)">
       <use xlink:href="#DejaVuSerif-31"/>
       <use xlink:href="#DejaVuSerif-34" x="63.623047"/>
       <use xlink:href="#DejaVuSerif-30" x="127.246094"/>
      </g>
     </g>
    </g>
    <g id="xtick_13">
     <g id="line2d_13">
      <g>
       <use xlink:href="#m277a20d713" x="1254.725266" y="360.26125" style="stroke: #000000; stroke-width: 0.8"/>
      </g>
     </g>
     <g id="text_13">
      <!-- 150 -->
      <g transform="translate(1235.637766 382.458125) scale(0.2 -0.2)">
       <use xlink:href="#DejaVuSerif-31"/>
       <use xlink:href="#DejaVuSerif-35" x="63.623047"/>
       <use xlink:href="#DejaVuSerif-30" x="127.246094"/>
      </g>
     </g>
    </g>
    <g id="text_14">
     <!-- Slice number (sorted by slice area) -->
     <g transform="translate(496.047281 405.814375) scale(0.2 -0.2)">
      <defs>
       <path id="DejaVuSerif-53" d="M 594 225 
L 594 1288 
L 953 1284 
Q 969 753 1261 498 
Q 1553 244 2150 244 
Q 2706 244 2998 464 
Q 3291 684 3291 1106 
Q 3291 1444 3114 1625 
Q 2938 1806 2369 1978 
L 1753 2163 
Q 1084 2366 811 2669 
Q 538 2972 538 3500 
Q 538 4094 959 4422 
Q 1381 4750 2144 4750 
Q 2469 4750 2856 4679 
Q 3244 4609 3681 4475 
L 3681 3481 
L 3328 3481 
Q 3275 3975 2998 4195 
Q 2722 4416 2156 4416 
Q 1663 4416 1405 4214 
Q 1147 4013 1147 3628 
Q 1147 3294 1340 3103 
Q 1534 2913 2163 2725 
L 2741 2553 
Q 3375 2363 3645 2067 
Q 3916 1772 3916 1275 
Q 3916 597 3481 253 
Q 3047 -91 2188 -91 
Q 1803 -91 1404 -12 
Q 1006 66 594 225 
z
" transform="scale(0.015625)"/>
       <path id="DejaVuSerif-6c" d="M 1313 331 
L 1856 331 
L 1856 0 
L 184 0 
L 184 331 
L 738 331 
L 738 4531 
L 184 4531 
L 184 4863 
L 1313 4863 
L 1313 331 
z
" transform="scale(0.015625)"/>
       <path id="DejaVuSerif-69" d="M 622 4353 
Q 622 4497 726 4603 
Q 831 4709 978 4709 
Q 1122 4709 1226 4603 
Q 1331 4497 1331 4353 
Q 1331 4206 1228 4103 
Q 1125 4000 978 4000 
Q 831 4000 726 4103 
Q 622 4206 622 4353 
z
M 1356 331 
L 1900 331 
L 1900 0 
L 231 0 
L 231 331 
L 781 331 
L 781 2988 
L 231 2988 
L 231 3322 
L 1356 3322 
L 1356 331 
z
" transform="scale(0.015625)"/>
       <path id="DejaVuSerif-63" d="M 3291 997 
Q 3169 466 2822 187 
Q 2475 -91 1925 -91 
Q 1200 -91 759 389 
Q 319 869 319 1663 
Q 319 2459 759 2936 
Q 1200 3413 1925 3413 
Q 2241 3413 2553 3339 
Q 2866 3266 3181 3116 
L 3181 2266 
L 2847 2266 
Q 2781 2703 2561 2903 
Q 2341 3103 1931 3103 
Q 1466 3103 1228 2742 
Q 991 2381 991 1663 
Q 991 944 1227 581 
Q 1463 219 1931 219 
Q 2303 219 2525 412 
Q 2747 606 2828 997 
L 3291 997 
z
" transform="scale(0.015625)"/>
       <path id="DejaVuSerif-65" d="M 3469 1600 
L 991 1600 
L 991 1575 
Q 991 903 1244 561 
Q 1497 219 1991 219 
Q 2369 219 2611 417 
Q 2853 616 2950 1006 
L 3413 1006 
Q 3275 459 2904 184 
Q 2534 -91 1931 -91 
Q 1203 -91 761 389 
Q 319 869 319 1663 
Q 319 2450 753 2931 
Q 1188 3413 1894 3413 
Q 2647 3413 3050 2948 
Q 3453 2484 3469 1600 
z
M 2791 1931 
Q 2772 2513 2545 2808 
Q 2319 3103 1894 3103 
Q 1497 3103 1269 2806 
Q 1041 2509 991 1931 
L 2791 1931 
z
" transform="scale(0.015625)"/>
       <path id="DejaVuSerif-20" transform="scale(0.015625)"/>
       <path id="DejaVuSerif-6e" d="M 263 0 
L 263 331 
L 781 331 
L 781 2988 
L 231 2988 
L 231 3322 
L 1356 3322 
L 1356 2731 
Q 1516 3069 1770 3241 
Q 2025 3413 2363 3413 
Q 2913 3413 3172 3097 
Q 3431 2781 3431 2113 
L 3431 331 
L 3944 331 
L 3944 0 
L 2356 0 
L 2356 331 
L 2853 331 
L 2853 1931 
Q 2853 2541 2703 2767 
Q 2553 2994 2175 2994 
Q 1775 2994 1565 2701 
Q 1356 2409 1356 1850 
L 1356 331 
L 1856 331 
L 1856 0 
L 263 0 
z
" transform="scale(0.015625)"/>
       <path id="DejaVuSerif-75" d="M 2266 3322 
L 3341 3322 
L 3341 331 
L 3884 331 
L 3884 0 
L 2766 0 
L 2766 588 
Q 2606 256 2353 82 
Q 2100 -91 1766 -91 
Q 1213 -91 952 223 
Q 691 538 691 1209 
L 691 2988 
L 172 2988 
L 172 3322 
L 1269 3322 
L 1269 1388 
Q 1269 781 1417 556 
Q 1566 331 1947 331 
Q 2347 331 2556 625 
Q 2766 919 2766 1478 
L 2766 2988 
L 2266 2988 
L 2266 3322 
z
" transform="scale(0.015625)"/>
       <path id="DejaVuSerif-6d" d="M 3316 2675 
Q 3481 3041 3739 3227 
Q 3997 3413 4341 3413 
Q 4863 3413 5119 3089 
Q 5375 2766 5375 2113 
L 5375 331 
L 5894 331 
L 5894 0 
L 4300 0 
L 4300 331 
L 4800 331 
L 4800 2047 
Q 4800 2556 4650 2772 
Q 4500 2988 4153 2988 
Q 3769 2988 3567 2697 
Q 3366 2406 3366 1850 
L 3366 331 
L 3866 331 
L 3866 0 
L 2291 0 
L 2291 331 
L 2791 331 
L 2791 2069 
Q 2791 2566 2641 2777 
Q 2491 2988 2144 2988 
Q 1759 2988 1557 2697 
Q 1356 2406 1356 1850 
L 1356 331 
L 1856 331 
L 1856 0 
L 263 0 
L 263 331 
L 781 331 
L 781 2994 
L 231 2994 
L 231 3322 
L 1356 3322 
L 1356 2731 
Q 1516 3063 1762 3238 
Q 2009 3413 2322 3413 
Q 2709 3413 2968 3220 
Q 3228 3028 3316 2675 
z
" transform="scale(0.015625)"/>
       <path id="DejaVuSerif-62" d="M 738 331 
L 738 4531 
L 184 4531 
L 184 4863 
L 1313 4863 
L 1313 2803 
Q 1481 3116 1742 3264 
Q 2003 3413 2388 3413 
Q 3000 3413 3387 2928 
Q 3775 2444 3775 1663 
Q 3775 881 3387 395 
Q 3000 -91 2388 -91 
Q 2003 -91 1742 57 
Q 1481 206 1313 519 
L 1313 0 
L 184 0 
L 184 331 
L 738 331 
z
M 1313 1497 
Q 1313 897 1542 583 
Q 1772 269 2209 269 
Q 2650 269 2876 622 
Q 3103 975 3103 1663 
Q 3103 2353 2876 2703 
Q 2650 3053 2209 3053 
Q 1772 3053 1542 2737 
Q 1313 2422 1313 1825 
L 1313 1497 
z
" transform="scale(0.015625)"/>
       <path id="DejaVuSerif-72" d="M 3059 3328 
L 3059 2497 
L 2728 2497 
Q 2713 2744 2591 2866 
Q 2469 2988 2234 2988 
Q 1809 2988 1582 2694 
Q 1356 2400 1356 1850 
L 1356 331 
L 2022 331 
L 2022 0 
L 263 0 
L 263 331 
L 781 331 
L 781 2994 
L 231 2994 
L 231 3322 
L 1356 3322 
L 1356 2731 
Q 1525 3078 1790 3245 
Q 2056 3413 2438 3413 
Q 2578 3413 2733 3391 
Q 2888 3369 3059 3328 
z
" transform="scale(0.015625)"/>
       <path id="DejaVuSerif-28" d="M 2041 -997 
Q 1281 -656 893 83 
Q 506 822 506 1931 
Q 506 3044 893 3783 
Q 1281 4522 2041 4863 
L 2041 4556 
Q 1559 4225 1350 3623 
Q 1141 3022 1141 1931 
Q 1141 844 1350 242 
Q 1559 -359 2041 -691 
L 2041 -997 
z
" transform="scale(0.015625)"/>
       <path id="DejaVuSerif-73" d="M 359 184 
L 359 959 
L 691 959 
Q 703 588 923 403 
Q 1144 219 1575 219 
Q 1963 219 2166 364 
Q 2369 509 2369 788 
Q 2369 1006 2220 1140 
Q 2072 1275 1594 1428 
L 1178 1569 
Q 750 1706 558 1912 
Q 366 2119 366 2438 
Q 366 2894 700 3153 
Q 1034 3413 1625 3413 
Q 1888 3413 2178 3344 
Q 2469 3275 2778 3144 
L 2778 2419 
L 2447 2419 
Q 2434 2741 2221 2922 
Q 2009 3103 1644 3103 
Q 1281 3103 1095 2975 
Q 909 2847 909 2591 
Q 909 2381 1050 2254 
Q 1191 2128 1613 1997 
L 2069 1856 
Q 2541 1709 2748 1489 
Q 2956 1269 2956 922 
Q 2956 450 2595 179 
Q 2234 -91 1600 -91 
Q 1278 -91 972 -22 
Q 666 47 359 184 
z
" transform="scale(0.015625)"/>
       <path id="DejaVuSerif-6f" d="M 1925 219 
Q 2388 219 2623 584 
Q 2859 950 2859 1663 
Q 2859 2375 2623 2739 
Q 2388 3103 1925 3103 
Q 1463 3103 1227 2739 
Q 991 2375 991 1663 
Q 991 950 1228 584 
Q 1466 219 1925 219 
z
M 1925 -91 
Q 1200 -91 759 389 
Q 319 869 319 1663 
Q 319 2456 758 2934 
Q 1197 3413 1925 3413 
Q 2653 3413 3092 2934 
Q 3531 2456 3531 1663 
Q 3531 869 3092 389 
Q 2653 -91 1925 -91 
z
" transform="scale(0.015625)"/>
       <path id="DejaVuSerif-74" d="M 691 2988 
L 184 2988 
L 184 3322 
L 691 3322 
L 691 4353 
L 1269 4353 
L 1269 3322 
L 2350 3322 
L 2350 2988 
L 1269 2988 
L 1269 878 
Q 1269 456 1350 337 
Q 1431 219 1650 219 
Q 1875 219 1978 351 
Q 2081 484 2088 781 
L 2522 781 
Q 2497 328 2275 118 
Q 2053 -91 1600 -91 
Q 1103 -91 897 129 
Q 691 350 691 878 
L 691 2988 
z
" transform="scale(0.015625)"/>
       <path id="DejaVuSerif-64" d="M 3359 331 
L 3909 331 
L 3909 0 
L 2784 0 
L 2784 519 
Q 2616 206 2355 57 
Q 2094 -91 1709 -91 
Q 1097 -91 708 395 
Q 319 881 319 1663 
Q 319 2444 706 2928 
Q 1094 3413 1709 3413 
Q 2094 3413 2355 3264 
Q 2616 3116 2784 2803 
L 2784 4531 
L 2241 4531 
L 2241 4863 
L 3359 4863 
L 3359 331 
z
M 2784 1497 
L 2784 1825 
Q 2784 2422 2554 2737 
Q 2325 3053 1888 3053 
Q 1444 3053 1217 2703 
Q 991 2353 991 1663 
Q 991 975 1217 622 
Q 1444 269 1888 269 
Q 2325 269 2554 583 
Q 2784 897 2784 1497 
z
" transform="scale(0.015625)"/>
       <path id="DejaVuSerif-79" d="M 1381 -609 
L 1600 -56 
L 359 2988 
L -19 2988 
L -19 3322 
L 1509 3322 
L 1509 2988 
L 978 2988 
L 1913 703 
L 2847 2988 
L 2350 2988 
L 2350 3322 
L 3597 3322 
L 3597 2988 
L 3225 2988 
L 1703 -750 
Q 1547 -1138 1356 -1280 
Q 1166 -1422 819 -1422 
Q 672 -1422 517 -1397 
Q 363 -1372 206 -1325 
L 206 -691 
L 500 -691 
Q 519 -903 608 -995 
Q 697 -1088 884 -1088 
Q 1056 -1088 1161 -992 
Q 1266 -897 1381 -609 
z
" transform="scale(0.015625)"/>
       <path id="DejaVuSerif-61" d="M 2547 1044 
L 2547 1747 
L 1806 1747 
Q 1378 1747 1168 1562 
Q 959 1378 959 997 
Q 959 650 1171 447 
Q 1384 244 1747 244 
Q 2106 244 2326 466 
Q 2547 688 2547 1044 
z
M 3122 2075 
L 3122 331 
L 3634 331 
L 3634 0 
L 2547 0 
L 2547 359 
Q 2356 128 2106 18 
Q 1856 -91 1522 -91 
Q 969 -91 644 203 
Q 319 497 319 997 
Q 319 1513 691 1797 
Q 1063 2081 1741 2081 
L 2547 2081 
L 2547 2309 
Q 2547 2688 2317 2895 
Q 2088 3103 1672 3103 
Q 1328 3103 1125 2947 
Q 922 2791 872 2484 
L 575 2484 
L 575 3156 
Q 875 3284 1158 3348 
Q 1441 3413 1709 3413 
Q 2400 3413 2761 3070 
Q 3122 2728 3122 2075 
z
" transform="scale(0.015625)"/>
       <path id="DejaVuSerif-29" d="M 453 -997 
L 453 -691 
Q 934 -359 1145 242 
Q 1356 844 1356 1931 
Q 1356 3022 1145 3623 
Q 934 4225 453 4556 
L 453 4863 
Q 1216 4522 1603 3783 
Q 1991 3044 1991 1931 
Q 1991 822 1603 83 
Q 1216 -656 453 -997 
z
" transform="scale(0.015625)"/>
      </defs>
      <use xlink:href="#DejaVuSerif-53"/>
      <use xlink:href="#DejaVuSerif-6c" x="68.505859"/>
      <use xlink:href="#DejaVuSerif-69" x="100.488281"/>
      <use xlink:href="#DejaVuSerif-63" x="132.470703"/>
      <use xlink:href="#DejaVuSerif-65" x="188.476562"/>
      <use xlink:href="#DejaVuSerif-20" x="247.65625"/>
      <use xlink:href="#DejaVuSerif-6e" x="279.443359"/>
      <use xlink:href="#DejaVuSerif-75" x="343.847656"/>
      <use xlink:href="#DejaVuSerif-6d" x="408.251953"/>
      <use xlink:href="#DejaVuSerif-62" x="503.076172"/>
      <use xlink:href="#DejaVuSerif-65" x="567.089844"/>
      <use xlink:href="#DejaVuSerif-72" x="626.269531"/>
      <use xlink:href="#DejaVuSerif-20" x="674.072266"/>
      <use xlink:href="#DejaVuSerif-28" x="705.859375"/>
      <use xlink:href="#DejaVuSerif-73" x="744.873047"/>
      <use xlink:href="#DejaVuSerif-6f" x="796.191406"/>
      <use xlink:href="#DejaVuSerif-72" x="856.396484"/>
      <use xlink:href="#DejaVuSerif-74" x="904.199219"/>
      <use xlink:href="#DejaVuSerif-65" x="944.384766"/>
      <use xlink:href="#DejaVuSerif-64" x="1003.564453"/>
      <use xlink:href="#DejaVuSerif-20" x="1067.578125"/>
      <use xlink:href="#DejaVuSerif-62" x="1099.365234"/>
      <use xlink:href="#DejaVuSerif-79" x="1163.378906"/>
      <use xlink:href="#DejaVuSerif-20" x="1219.873047"/>
      <use xlink:href="#DejaVuSerif-73" x="1251.660156"/>
      <use xlink:href="#DejaVuSerif-6c" x="1302.978516"/>
      <use xlink:href="#DejaVuSerif-69" x="1334.960938"/>
      <use xlink:href="#DejaVuSerif-63" x="1366.943359"/>
      <use xlink:href="#DejaVuSerif-65" x="1422.949219"/>
      <use xlink:href="#DejaVuSerif-20" x="1482.128906"/>
      <use xlink:href="#DejaVuSerif-61" x="1513.916016"/>
      <use xlink:href="#DejaVuSerif-72" x="1573.535156"/>
      <use xlink:href="#DejaVuSerif-65" x="1621.337891"/>
      <use xlink:href="#DejaVuSerif-61" x="1680.517578"/>
      <use xlink:href="#DejaVuSerif-29" x="1740.136719"/>
     </g>
    </g>
   </g>
   <g id="matplotlib.axis_2">
    <g id="ytick_1">
     <g id="line2d_14">
      <defs>
       <path id="me3cc14a1be" d="M 0 0 
L -3.5 0 
" style="stroke: #000000; stroke-width: 0.8"/>
      </defs>
      <g>
       <use xlink:href="#me3cc14a1be" x="89.302813" y="360.26125" style="stroke: #000000; stroke-width: 0.8"/>
      </g>
     </g>
     <g id="text_15">
      <!-- 0 -->
      <g transform="translate(69.577812 367.859687) scale(0.2 -0.2)">
       <use xlink:href="#DejaVuSerif-30"/>
      </g>
     </g>
    </g>
    <g id="ytick_2">
     <g id="line2d_15">
      <g>
       <use xlink:href="#me3cc14a1be" x="89.302813" y="291.283098" style="stroke: #000000; stroke-width: 0.8"/>
      </g>
     </g>
     <g id="text_16">
      <!-- 2 -->
      <g transform="translate(69.577812 298.881535) scale(0.2 -0.2)">
       <use xlink:href="#DejaVuSerif-32"/>
      </g>
     </g>
    </g>
    <g id="ytick_3">
     <g id="line2d_16">
      <g>
       <use xlink:href="#me3cc14a1be" x="89.302813" y="222.304946" style="stroke: #000000; stroke-width: 0.8"/>
      </g>
     </g>
     <g id="text_17">
      <!-- 4 -->
      <g transform="translate(69.577812 229.903383) scale(0.2 -0.2)">
       <use xlink:href="#DejaVuSerif-34"/>
      </g>
     </g>
    </g>
    <g id="ytick_4">
     <g id="line2d_17">
      <g>
       <use xlink:href="#me3cc14a1be" x="89.302813" y="153.326794" style="stroke: #000000; stroke-width: 0.8"/>
      </g>
     </g>
     <g id="text_18">
      <!-- 6 -->
      <g transform="translate(69.577812 160.925231) scale(0.2 -0.2)">
       <use xlink:href="#DejaVuSerif-36"/>
      </g>
     </g>
    </g>
    <g id="ytick_5">
     <g id="line2d_18">
      <g>
       <use xlink:href="#me3cc14a1be" x="89.302813" y="84.348642" style="stroke: #000000; stroke-width: 0.8"/>
      </g>
     </g>
     <g id="text_19">
      <!-- 8 -->
      <g transform="translate(69.577812 91.947079) scale(0.2 -0.2)">
       <use xlink:href="#DejaVuSerif-38"/>
      </g>
     </g>
    </g>
    <g id="ytick_6">
     <g id="line2d_19">
      <g>
       <use xlink:href="#me3cc14a1be" x="89.302813" y="29.16612" style="stroke: #000000; stroke-width: 0.8"/>
      </g>
     </g>
     <g id="text_20">
      <!-- 9.6 -->
      <g transform="translate(50.496562 36.764557) scale(0.2 -0.2)">
       <defs>
        <path id="DejaVuSerif-39" d="M 2994 2091 
Q 2784 1856 2512 1740 
Q 2241 1625 1900 1625 
Q 1206 1625 804 2044 
Q 403 2463 403 3188 
Q 403 3897 839 4323 
Q 1275 4750 2003 4750 
Q 2794 4750 3217 4161 
Q 3641 3572 3641 2478 
Q 3641 1253 3137 581 
Q 2634 -91 1722 -91 
Q 1475 -91 1203 -44 
Q 931 3 647 97 
L 647 872 
L 997 872 
Q 1038 556 1241 387 
Q 1444 219 1784 219 
Q 2391 219 2687 676 
Q 2984 1134 2994 2091 
z
M 1978 4441 
Q 1534 4441 1298 4117 
Q 1063 3794 1063 3188 
Q 1063 2581 1298 2256 
Q 1534 1931 1978 1931 
Q 2422 1931 2658 2245 
Q 2894 2559 2894 3150 
Q 2894 3772 2656 4106 
Q 2419 4441 1978 4441 
z
" transform="scale(0.015625)"/>
        <path id="DejaVuSerif-2e" d="M 603 325 
Q 603 500 722 622 
Q 841 744 1019 744 
Q 1191 744 1312 622 
Q 1434 500 1434 325 
Q 1434 153 1312 31 
Q 1191 -91 1019 -91 
Q 841 -91 722 29 
Q 603 150 603 325 
z
" transform="scale(0.015625)"/>
       </defs>
       <use xlink:href="#DejaVuSerif-39"/>
       <use xlink:href="#DejaVuSerif-2e" x="63.623047"/>
       <use xlink:href="#DejaVuSerif-36" x="95.410156"/>
      </g>
     </g>
    </g>
    <g id="text_21">
     <!-- Average slice area (unit: pixels $\times 10^4$) -->
     <g transform="translate(41.896562 380.115432) rotate(-90) scale(0.2 -0.2)">
      <defs>
       <path id="DejaVuSerif-41" d="M 1281 1691 
L 2994 1691 
L 2138 3909 
L 1281 1691 
z
M -38 0 
L -38 331 
L 372 331 
L 2034 4666 
L 2559 4666 
L 4225 331 
L 4684 331 
L 4684 0 
L 2988 0 
L 2988 331 
L 3506 331 
L 3116 1356 
L 1153 1356 
L 763 331 
L 1275 331 
L 1275 0 
L -38 0 
z
" transform="scale(0.015625)"/>
       <path id="DejaVuSerif-76" d="M 1581 0 
L 359 2988 
L -19 2988 
L -19 3322 
L 1509 3322 
L 1509 2988 
L 978 2988 
L 1913 703 
L 2847 2988 
L 2350 2988 
L 2350 3322 
L 3597 3322 
L 3597 2988 
L 3225 2988 
L 2003 0 
L 1581 0 
z
" transform="scale(0.015625)"/>
       <path id="DejaVuSerif-67" d="M 3359 2988 
L 3359 72 
Q 3359 -644 2965 -1033 
Q 2572 -1422 1844 -1422 
Q 1516 -1422 1216 -1362 
Q 916 -1303 641 -1184 
L 641 -488 
L 941 -488 
Q 997 -813 1206 -963 
Q 1416 -1113 1806 -1113 
Q 2313 -1113 2548 -827 
Q 2784 -541 2784 72 
L 2784 519 
Q 2616 206 2355 57 
Q 2094 -91 1709 -91 
Q 1097 -91 708 395 
Q 319 881 319 1663 
Q 319 2444 706 2928 
Q 1094 3413 1709 3413 
Q 2094 3413 2355 3264 
Q 2616 3116 2784 2803 
L 2784 3322 
L 3909 3322 
L 3909 2988 
L 3359 2988 
z
M 2784 1825 
Q 2784 2422 2554 2737 
Q 2325 3053 1888 3053 
Q 1444 3053 1217 2703 
Q 991 2353 991 1663 
Q 991 975 1217 622 
Q 1444 269 1888 269 
Q 2325 269 2554 583 
Q 2784 897 2784 1497 
L 2784 1825 
z
" transform="scale(0.015625)"/>
       <path id="DejaVuSerif-3a" d="M 666 325 
Q 666 500 786 622 
Q 906 744 1081 744 
Q 1256 744 1376 622 
Q 1497 500 1497 325 
Q 1497 150 1378 29 
Q 1259 -91 1081 -91 
Q 903 -91 784 29 
Q 666 150 666 325 
z
M 666 2363 
Q 666 2538 786 2658 
Q 906 2778 1081 2778 
Q 1259 2778 1378 2659 
Q 1497 2541 1497 2363 
Q 1497 2184 1378 2065 
Q 1259 1947 1081 1947 
Q 906 1947 786 2067 
Q 666 2188 666 2363 
z
" transform="scale(0.015625)"/>
       <path id="DejaVuSerif-70" d="M 1313 1825 
L 1313 1497 
Q 1313 897 1542 583 
Q 1772 269 2209 269 
Q 2650 269 2876 622 
Q 3103 975 3103 1663 
Q 3103 2353 2876 2703 
Q 2650 3053 2209 3053 
Q 1772 3053 1542 2737 
Q 1313 2422 1313 1825 
z
M 738 2988 
L 184 2988 
L 184 3322 
L 1313 3322 
L 1313 2803 
Q 1481 3116 1742 3264 
Q 2003 3413 2388 3413 
Q 3000 3413 3387 2928 
Q 3775 2444 3775 1663 
Q 3775 881 3387 395 
Q 3000 -91 2388 -91 
Q 2003 -91 1742 57 
Q 1481 206 1313 519 
L 1313 -997 
L 1856 -997 
L 1856 -1331 
L 184 -1331 
L 184 -997 
L 738 -997 
L 738 2988 
z
" transform="scale(0.015625)"/>
       <path id="DejaVuSerif-78" d="M 1863 2028 
L 2559 2988 
L 2113 2988 
L 2113 3322 
L 3391 3322 
L 3391 2988 
L 2950 2988 
L 2059 1759 
L 3097 331 
L 3531 331 
L 3531 0 
L 1997 0 
L 1997 331 
L 2419 331 
L 1697 1325 
L 972 331 
L 1403 331 
L 1403 0 
L 141 0 
L 141 331 
L 581 331 
L 1497 1594 
L 488 2988 
L 78 2988 
L 78 3322 
L 1563 3322 
L 1563 2988 
L 1166 2988 
L 1863 2028 
z
" transform="scale(0.015625)"/>
       <path id="Cmsy10-a3" d="M 941 184 
Q 941 234 972 275 
L 2303 1600 
L 972 2931 
Q 941 2963 941 3016 
Q 941 3063 978 3103 
Q 1016 3144 1069 3144 
Q 1113 3144 1166 3103 
L 2491 1778 
L 3809 3103 
Q 3863 3144 3903 3144 
Q 3956 3144 3993 3106 
Q 4031 3069 4031 3016 
Q 4031 2963 4000 2931 
L 2669 1600 
L 4000 275 
Q 4031 234 4031 184 
Q 4031 131 3993 93 
Q 3956 56 3903 56 
Q 3856 56 3809 103 
L 2491 1422 
L 1166 103 
Q 1119 56 1069 56 
Q 1016 56 978 97 
Q 941 138 941 184 
z
" transform="scale(0.015625)"/>
       <path id="Cmr10-31" d="M 594 0 
L 594 225 
Q 1394 225 1394 428 
L 1394 3788 
Q 1063 3628 556 3628 
L 556 3853 
Q 1341 3853 1741 4263 
L 1831 4263 
Q 1853 4263 1873 4245 
Q 1894 4228 1894 4206 
L 1894 428 
Q 1894 225 2694 225 
L 2694 0 
L 594 0 
z
" transform="scale(0.015625)"/>
       <path id="Cmr10-30" d="M 1600 -141 
Q 816 -141 533 504 
Q 250 1150 250 2041 
Q 250 2597 351 3087 
Q 453 3578 754 3920 
Q 1056 4263 1600 4263 
Q 2022 4263 2290 4056 
Q 2559 3850 2700 3523 
Q 2841 3197 2892 2823 
Q 2944 2450 2944 2041 
Q 2944 1491 2842 1011 
Q 2741 531 2444 195 
Q 2147 -141 1600 -141 
z
M 1600 25 
Q 1956 25 2131 390 
Q 2306 756 2347 1200 
Q 2388 1644 2388 2144 
Q 2388 2625 2347 3031 
Q 2306 3438 2132 3767 
Q 1959 4097 1600 4097 
Q 1238 4097 1063 3765 
Q 888 3434 847 3029 
Q 806 2625 806 2144 
Q 806 1788 823 1472 
Q 841 1156 916 820 
Q 991 484 1158 254 
Q 1325 25 1600 25 
z
" transform="scale(0.015625)"/>
       <path id="Cmr10-34" d="M 178 1056 
L 178 1281 
L 2156 4231 
Q 2178 4263 2222 4263 
L 2316 4263 
Q 2388 4263 2388 4191 
L 2388 1281 
L 3016 1281 
L 3016 1056 
L 2388 1056 
L 2388 428 
Q 2388 297 2575 261 
Q 2763 225 3009 225 
L 3009 0 
L 1247 0 
L 1247 225 
Q 1494 225 1681 261 
Q 1869 297 1869 428 
L 1869 1056 
L 178 1056 
z
M 391 1281 
L 1906 1281 
L 1906 3547 
L 391 1281 
z
" transform="scale(0.015625)"/>
      </defs>
      <use xlink:href="#DejaVuSerif-41" transform="translate(0 0.109375)"/>
      <use xlink:href="#DejaVuSerif-76" transform="translate(72.216797 0.109375)"/>
      <use xlink:href="#DejaVuSerif-65" transform="translate(128.710938 0.109375)"/>
      <use xlink:href="#DejaVuSerif-72" transform="translate(187.890625 0.109375)"/>
      <use xlink:href="#DejaVuSerif-61" transform="translate(235.693359 0.109375)"/>
      <use xlink:href="#DejaVuSerif-67" transform="translate(295.3125 0.109375)"/>
      <use xlink:href="#DejaVuSerif-65" transform="translate(359.326172 0.109375)"/>
      <use xlink:href="#DejaVuSerif-20" transform="translate(418.505859 0.109375)"/>
      <use xlink:href="#DejaVuSerif-73" transform="translate(450.292969 0.109375)"/>
      <use xlink:href="#DejaVuSerif-6c" transform="translate(501.611328 0.109375)"/>
      <use xlink:href="#DejaVuSerif-69" transform="translate(533.59375 0.109375)"/>
      <use xlink:href="#DejaVuSerif-63" transform="translate(565.576172 0.109375)"/>
      <use xlink:href="#DejaVuSerif-65" transform="translate(621.582031 0.109375)"/>
      <use xlink:href="#DejaVuSerif-20" transform="translate(680.761719 0.109375)"/>
      <use xlink:href="#DejaVuSerif-61" transform="translate(712.548828 0.109375)"/>
      <use xlink:href="#DejaVuSerif-72" transform="translate(772.167969 0.109375)"/>
      <use xlink:href="#DejaVuSerif-65" transform="translate(819.970703 0.109375)"/>
      <use xlink:href="#DejaVuSerif-61" transform="translate(879.150391 0.109375)"/>
      <use xlink:href="#DejaVuSerif-20" transform="translate(938.769531 0.109375)"/>
      <use xlink:href="#DejaVuSerif-28" transform="translate(970.556641 0.109375)"/>
      <use xlink:href="#DejaVuSerif-75" transform="translate(1009.570312 0.109375)"/>
      <use xlink:href="#DejaVuSerif-6e" transform="translate(1073.974609 0.109375)"/>
      <use xlink:href="#DejaVuSerif-69" transform="translate(1138.378906 0.109375)"/>
      <use xlink:href="#DejaVuSerif-74" transform="translate(1170.361328 0.109375)"/>
      <use xlink:href="#DejaVuSerif-3a" transform="translate(1210.546875 0.109375)"/>
      <use xlink:href="#DejaVuSerif-20" transform="translate(1244.238281 0.109375)"/>
      <use xlink:href="#DejaVuSerif-70" transform="translate(1276.025391 0.109375)"/>
      <use xlink:href="#DejaVuSerif-69" transform="translate(1340.039062 0.109375)"/>
      <use xlink:href="#DejaVuSerif-78" transform="translate(1372.021484 0.109375)"/>
      <use xlink:href="#DejaVuSerif-65" transform="translate(1428.417969 0.109375)"/>
      <use xlink:href="#DejaVuSerif-6c" transform="translate(1487.597656 0.109375)"/>
      <use xlink:href="#DejaVuSerif-73" transform="translate(1519.580078 0.109375)"/>
      <use xlink:href="#DejaVuSerif-20" transform="translate(1570.898438 0.109375)"/>
      <use xlink:href="#Cmsy10-a3" transform="translate(1602.685547 0.109375)"/>
      <use xlink:href="#Cmr10-31" transform="translate(1680.371094 0.109375)"/>
      <use xlink:href="#Cmr10-30" transform="translate(1730.371094 0.109375)"/>
      <use xlink:href="#Cmr10-34" transform="translate(1784.835234 38.373438) scale(0.7)"/>
      <use xlink:href="#DejaVuSerif-29" transform="translate(1826.212578 0.109375)"/>
     </g>
    </g>
   </g>
   <g id="line2d_20">
    <path d="M 93.200546 358.813806 
L 100.996014 358.786639 
L 108.791482 358.639497 
L 116.58695 357.177927 
L 132.177886 356.958213 
L 155.56429 356.629669 
L 163.359758 356.350026 
L 178.950694 356.253619 
L 186.746161 355.949253 
L 194.541629 354.750881 
L 202.337097 354.430506 
L 210.132565 354.390224 
L 217.928033 354.18977 
L 225.723501 353.865407 
L 249.109905 353.638427 
L 256.905373 353.17545 
L 280.291776 353.015785 
L 288.087244 352.873435 
L 295.882712 352.848492 
L 303.67818 352.200291 
L 311.473648 351.80039 
L 334.860052 351.708452 
L 342.65552 351.594375 
L 350.450988 351.333915 
L 373.837391 351.226366 
L 381.632859 350.958397 
L 389.428327 350.576717 
L 397.223795 350.4367 
L 412.814731 350.367776 
L 436.201135 350.040987 
L 443.996603 350.001779 
L 467.383006 348.927105 
L 482.973942 348.785585 
L 490.76941 348.506561 
L 498.564878 348.500384 
L 514.155814 348.273997 
L 521.951282 347.701565 
L 529.74675 347.256294 
L 537.542218 346.078882 
L 568.724089 345.893709 
L 592.110493 345.448685 
L 615.496897 345.386495 
L 623.292365 344.907816 
L 638.883301 344.810144 
L 646.678769 344.483877 
L 670.065172 344.335412 
L 677.86064 344.009997 
L 724.633448 343.472862 
L 748.019851 342.394691 
L 755.815319 341.497911 
L 763.610787 341.396876 
L 771.406255 340.512399 
L 779.201723 340.147221 
L 786.997191 340.130773 
L 802.588127 339.578983 
L 825.974531 339.479118 
L 833.769999 339.22322 
L 841.565466 338.833492 
L 849.360934 338.202037 
L 857.156402 337.838177 
L 864.95187 337.749006 
L 872.747338 337.115466 
L 888.338274 336.161776 
L 896.133742 336.039572 
L 903.92921 335.591214 
L 911.724678 335.333172 
L 935.111081 334.194016 
L 942.906549 333.253183 
L 950.702017 333.248255 
L 958.497485 333.103172 
L 966.292953 332.760811 
L 974.088421 332.603188 
L 981.883889 331.843504 
L 989.679357 331.727245 
L 997.474825 331.193857 
L 1005.270293 330.443834 
L 1013.065761 330.117245 
L 1020.861229 328.260904 
L 1044.247632 327.686318 
L 1052.0431 327.037172 
L 1059.838568 326.806846 
L 1067.634036 326.702887 
L 1075.429504 326.172247 
L 1083.224972 325.908598 
L 1091.02044 325.329501 
L 1098.815908 322.785912 
L 1106.611376 321.954924 
L 1114.406844 318.630254 
L 1122.202311 317.408957 
L 1129.997779 316.648779 
L 1145.588715 316.026423 
L 1153.384183 314.545518 
L 1161.179651 314.34727 
L 1168.975119 300.832348 
L 1176.770587 280.018582 
L 1184.566055 279.969529 
L 1192.361523 273.585278 
L 1200.156991 262.879619 
L 1207.952459 262.279166 
L 1215.747926 222.749612 
L 1223.543394 222.220798 
L 1231.338862 182.342453 
L 1239.13433 180.145499 
L 1246.929798 116.290134 
L 1254.725266 31.253194 
L 1254.725266 31.253194 
" clip-path="url(#p30755695cd)" style="fill: none; stroke: #1f77b4; stroke-width: 1.5; stroke-linecap: square"/>
    <defs>
     <path id="m90005c6bd6" d="M 0 3 
C 0.795609 3 1.55874 2.683901 2.12132 2.12132 
C 2.683901 1.55874 3 0.795609 3 0 
C 3 -0.795609 2.683901 -1.55874 2.12132 -2.12132 
C 1.55874 -2.683901 0.795609 -3 0 -3 
C -0.795609 -3 -1.55874 -2.683901 -2.12132 -2.12132 
C -2.683901 -1.55874 -3 -0.795609 -3 0 
C -3 0.795609 -2.683901 1.55874 -2.12132 2.12132 
C -1.55874 2.683901 -0.795609 3 0 3 
z
" style="stroke: #1f77b4"/>
    </defs>
    <g clip-path="url(#p30755695cd)">
     <use xlink:href="#m90005c6bd6" x="93.200546" y="358.813806" style="fill: #1f77b4; stroke: #1f77b4"/>
     <use xlink:href="#m90005c6bd6" x="100.996014" y="358.786639" style="fill: #1f77b4; stroke: #1f77b4"/>
     <use xlink:href="#m90005c6bd6" x="108.791482" y="358.639497" style="fill: #1f77b4; stroke: #1f77b4"/>
     <use xlink:href="#m90005c6bd6" x="116.58695" y="357.177927" style="fill: #1f77b4; stroke: #1f77b4"/>
     <use xlink:href="#m90005c6bd6" x="124.382418" y="357.015947" style="fill: #1f77b4; stroke: #1f77b4"/>
     <use xlink:href="#m90005c6bd6" x="132.177886" y="356.958213" style="fill: #1f77b4; stroke: #1f77b4"/>
     <use xlink:href="#m90005c6bd6" x="139.973354" y="356.863135" style="fill: #1f77b4; stroke: #1f77b4"/>
     <use xlink:href="#m90005c6bd6" x="147.768822" y="356.720372" style="fill: #1f77b4; stroke: #1f77b4"/>
     <use xlink:href="#m90005c6bd6" x="155.56429" y="356.629669" style="fill: #1f77b4; stroke: #1f77b4"/>
     <use xlink:href="#m90005c6bd6" x="163.359758" y="356.350026" style="fill: #1f77b4; stroke: #1f77b4"/>
     <use xlink:href="#m90005c6bd6" x="171.155226" y="356.298455" style="fill: #1f77b4; stroke: #1f77b4"/>
     <use xlink:href="#m90005c6bd6" x="178.950694" y="356.253619" style="fill: #1f77b4; stroke: #1f77b4"/>
     <use xlink:href="#m90005c6bd6" x="186.746161" y="355.949253" style="fill: #1f77b4; stroke: #1f77b4"/>
     <use xlink:href="#m90005c6bd6" x="194.541629" y="354.750881" style="fill: #1f77b4; stroke: #1f77b4"/>
     <use xlink:href="#m90005c6bd6" x="202.337097" y="354.430506" style="fill: #1f77b4; stroke: #1f77b4"/>
     <use xlink:href="#m90005c6bd6" x="210.132565" y="354.390224" style="fill: #1f77b4; stroke: #1f77b4"/>
     <use xlink:href="#m90005c6bd6" x="217.928033" y="354.18977" style="fill: #1f77b4; stroke: #1f77b4"/>
     <use xlink:href="#m90005c6bd6" x="225.723501" y="353.865407" style="fill: #1f77b4; stroke: #1f77b4"/>
     <use xlink:href="#m90005c6bd6" x="233.518969" y="353.766136" style="fill: #1f77b4; stroke: #1f77b4"/>
     <use xlink:href="#m90005c6bd6" x="241.314437" y="353.758178" style="fill: #1f77b4; stroke: #1f77b4"/>
     <use xlink:href="#m90005c6bd6" x="249.109905" y="353.638427" style="fill: #1f77b4; stroke: #1f77b4"/>
     <use xlink:href="#m90005c6bd6" x="256.905373" y="353.17545" style="fill: #1f77b4; stroke: #1f77b4"/>
     <use xlink:href="#m90005c6bd6" x="264.700841" y="353.158403" style="fill: #1f77b4; stroke: #1f77b4"/>
     <use xlink:href="#m90005c6bd6" x="272.496309" y="353.122639" style="fill: #1f77b4; stroke: #1f77b4"/>
     <use xlink:href="#m90005c6bd6" x="280.291776" y="353.015785" style="fill: #1f77b4; stroke: #1f77b4"/>
     <use xlink:href="#m90005c6bd6" x="288.087244" y="352.873435" style="fill: #1f77b4; stroke: #1f77b4"/>
     <use xlink:href="#m90005c6bd6" x="295.882712" y="352.848492" style="fill: #1f77b4; stroke: #1f77b4"/>
     <use xlink:href="#m90005c6bd6" x="303.67818" y="352.200291" style="fill: #1f77b4; stroke: #1f77b4"/>
     <use xlink:href="#m90005c6bd6" x="311.473648" y="351.80039" style="fill: #1f77b4; stroke: #1f77b4"/>
     <use xlink:href="#m90005c6bd6" x="319.269116" y="351.778662" style="fill: #1f77b4; stroke: #1f77b4"/>
     <use xlink:href="#m90005c6bd6" x="327.064584" y="351.715867" style="fill: #1f77b4; stroke: #1f77b4"/>
     <use xlink:href="#m90005c6bd6" x="334.860052" y="351.708452" style="fill: #1f77b4; stroke: #1f77b4"/>
     <use xlink:href="#m90005c6bd6" x="342.65552" y="351.594375" style="fill: #1f77b4; stroke: #1f77b4"/>
     <use xlink:href="#m90005c6bd6" x="350.450988" y="351.333915" style="fill: #1f77b4; stroke: #1f77b4"/>
     <use xlink:href="#m90005c6bd6" x="358.246456" y="351.301519" style="fill: #1f77b4; stroke: #1f77b4"/>
     <use xlink:href="#m90005c6bd6" x="366.041924" y="351.258476" style="fill: #1f77b4; stroke: #1f77b4"/>
     <use xlink:href="#m90005c6bd6" x="373.837391" y="351.226366" style="fill: #1f77b4; stroke: #1f77b4"/>
     <use xlink:href="#m90005c6bd6" x="381.632859" y="350.958397" style="fill: #1f77b4; stroke: #1f77b4"/>
     <use xlink:href="#m90005c6bd6" x="389.428327" y="350.576717" style="fill: #1f77b4; stroke: #1f77b4"/>
     <use xlink:href="#m90005c6bd6" x="397.223795" y="350.4367" style="fill: #1f77b4; stroke: #1f77b4"/>
     <use xlink:href="#m90005c6bd6" x="405.019263" y="350.429023" style="fill: #1f77b4; stroke: #1f77b4"/>
     <use xlink:href="#m90005c6bd6" x="412.814731" y="350.367776" style="fill: #1f77b4; stroke: #1f77b4"/>
     <use xlink:href="#m90005c6bd6" x="420.610199" y="350.238319" style="fill: #1f77b4; stroke: #1f77b4"/>
     <use xlink:href="#m90005c6bd6" x="428.405667" y="350.121661" style="fill: #1f77b4; stroke: #1f77b4"/>
     <use xlink:href="#m90005c6bd6" x="436.201135" y="350.040987" style="fill: #1f77b4; stroke: #1f77b4"/>
     <use xlink:href="#m90005c6bd6" x="443.996603" y="350.001779" style="fill: #1f77b4; stroke: #1f77b4"/>
     <use xlink:href="#m90005c6bd6" x="451.792071" y="349.642293" style="fill: #1f77b4; stroke: #1f77b4"/>
     <use xlink:href="#m90005c6bd6" x="459.587539" y="349.363409" style="fill: #1f77b4; stroke: #1f77b4"/>
     <use xlink:href="#m90005c6bd6" x="467.383006" y="348.927105" style="fill: #1f77b4; stroke: #1f77b4"/>
     <use xlink:href="#m90005c6bd6" x="475.178474" y="348.900548" style="fill: #1f77b4; stroke: #1f77b4"/>
     <use xlink:href="#m90005c6bd6" x="482.973942" y="348.785585" style="fill: #1f77b4; stroke: #1f77b4"/>
     <use xlink:href="#m90005c6bd6" x="490.76941" y="348.506561" style="fill: #1f77b4; stroke: #1f77b4"/>
     <use xlink:href="#m90005c6bd6" x="498.564878" y="348.500384" style="fill: #1f77b4; stroke: #1f77b4"/>
     <use xlink:href="#m90005c6bd6" x="506.360346" y="348.375165" style="fill: #1f77b4; stroke: #1f77b4"/>
     <use xlink:href="#m90005c6bd6" x="514.155814" y="348.273997" style="fill: #1f77b4; stroke: #1f77b4"/>
     <use xlink:href="#m90005c6bd6" x="521.951282" y="347.701565" style="fill: #1f77b4; stroke: #1f77b4"/>
     <use xlink:href="#m90005c6bd6" x="529.74675" y="347.256294" style="fill: #1f77b4; stroke: #1f77b4"/>
     <use xlink:href="#m90005c6bd6" x="537.542218" y="346.078882" style="fill: #1f77b4; stroke: #1f77b4"/>
     <use xlink:href="#m90005c6bd6" x="545.337686" y="346.056678" style="fill: #1f77b4; stroke: #1f77b4"/>
     <use xlink:href="#m90005c6bd6" x="553.133154" y="345.984743" style="fill: #1f77b4; stroke: #1f77b4"/>
     <use xlink:href="#m90005c6bd6" x="560.928621" y="345.974495" style="fill: #1f77b4; stroke: #1f77b4"/>
     <use xlink:href="#m90005c6bd6" x="568.724089" y="345.893709" style="fill: #1f77b4; stroke: #1f77b4"/>
     <use xlink:href="#m90005c6bd6" x="576.519557" y="345.731204" style="fill: #1f77b4; stroke: #1f77b4"/>
     <use xlink:href="#m90005c6bd6" x="584.315025" y="345.463555" style="fill: #1f77b4; stroke: #1f77b4"/>
     <use xlink:href="#m90005c6bd6" x="592.110493" y="345.448685" style="fill: #1f77b4; stroke: #1f77b4"/>
     <use xlink:href="#m90005c6bd6" x="599.905961" y="345.415052" style="fill: #1f77b4; stroke: #1f77b4"/>
     <use xlink:href="#m90005c6bd6" x="607.701429" y="345.396074" style="fill: #1f77b4; stroke: #1f77b4"/>
     <use xlink:href="#m90005c6bd6" x="615.496897" y="345.386495" style="fill: #1f77b4; stroke: #1f77b4"/>
     <use xlink:href="#m90005c6bd6" x="623.292365" y="344.907816" style="fill: #1f77b4; stroke: #1f77b4"/>
     <use xlink:href="#m90005c6bd6" x="631.087833" y="344.882258" style="fill: #1f77b4; stroke: #1f77b4"/>
     <use xlink:href="#m90005c6bd6" x="638.883301" y="344.810144" style="fill: #1f77b4; stroke: #1f77b4"/>
     <use xlink:href="#m90005c6bd6" x="646.678769" y="344.483877" style="fill: #1f77b4; stroke: #1f77b4"/>
     <use xlink:href="#m90005c6bd6" x="654.474236" y="344.424927" style="fill: #1f77b4; stroke: #1f77b4"/>
     <use xlink:href="#m90005c6bd6" x="662.269704" y="344.389653" style="fill: #1f77b4; stroke: #1f77b4"/>
     <use xlink:href="#m90005c6bd6" x="670.065172" y="344.335412" style="fill: #1f77b4; stroke: #1f77b4"/>
     <use xlink:href="#m90005c6bd6" x="677.86064" y="344.009997" style="fill: #1f77b4; stroke: #1f77b4"/>
     <use xlink:href="#m90005c6bd6" x="685.656108" y="343.937954" style="fill: #1f77b4; stroke: #1f77b4"/>
     <use xlink:href="#m90005c6bd6" x="693.451576" y="343.790417" style="fill: #1f77b4; stroke: #1f77b4"/>
     <use xlink:href="#m90005c6bd6" x="701.247044" y="343.750388" style="fill: #1f77b4; stroke: #1f77b4"/>
     <use xlink:href="#m90005c6bd6" x="709.042512" y="343.702942" style="fill: #1f77b4; stroke: #1f77b4"/>
     <use xlink:href="#m90005c6bd6" x="716.83798" y="343.594007" style="fill: #1f77b4; stroke: #1f77b4"/>
     <use xlink:href="#m90005c6bd6" x="724.633448" y="343.472862" style="fill: #1f77b4; stroke: #1f77b4"/>
     <use xlink:href="#m90005c6bd6" x="732.428916" y="343.095346" style="fill: #1f77b4; stroke: #1f77b4"/>
     <use xlink:href="#m90005c6bd6" x="740.224384" y="342.681675" style="fill: #1f77b4; stroke: #1f77b4"/>
     <use xlink:href="#m90005c6bd6" x="748.019851" y="342.394691" style="fill: #1f77b4; stroke: #1f77b4"/>
     <use xlink:href="#m90005c6bd6" x="755.815319" y="341.497911" style="fill: #1f77b4; stroke: #1f77b4"/>
     <use xlink:href="#m90005c6bd6" x="763.610787" y="341.396876" style="fill: #1f77b4; stroke: #1f77b4"/>
     <use xlink:href="#m90005c6bd6" x="771.406255" y="340.512399" style="fill: #1f77b4; stroke: #1f77b4"/>
     <use xlink:href="#m90005c6bd6" x="779.201723" y="340.147221" style="fill: #1f77b4; stroke: #1f77b4"/>
     <use xlink:href="#m90005c6bd6" x="786.997191" y="340.130773" style="fill: #1f77b4; stroke: #1f77b4"/>
     <use xlink:href="#m90005c6bd6" x="794.792659" y="339.867169" style="fill: #1f77b4; stroke: #1f77b4"/>
     <use xlink:href="#m90005c6bd6" x="802.588127" y="339.578983" style="fill: #1f77b4; stroke: #1f77b4"/>
     <use xlink:href="#m90005c6bd6" x="810.383595" y="339.535196" style="fill: #1f77b4; stroke: #1f77b4"/>
     <use xlink:href="#m90005c6bd6" x="818.179063" y="339.498826" style="fill: #1f77b4; stroke: #1f77b4"/>
     <use xlink:href="#m90005c6bd6" x="825.974531" y="339.479118" style="fill: #1f77b4; stroke: #1f77b4"/>
     <use xlink:href="#m90005c6bd6" x="833.769999" y="339.22322" style="fill: #1f77b4; stroke: #1f77b4"/>
     <use xlink:href="#m90005c6bd6" x="841.565466" y="338.833492" style="fill: #1f77b4; stroke: #1f77b4"/>
     <use xlink:href="#m90005c6bd6" x="849.360934" y="338.202037" style="fill: #1f77b4; stroke: #1f77b4"/>
     <use xlink:href="#m90005c6bd6" x="857.156402" y="337.838177" style="fill: #1f77b4; stroke: #1f77b4"/>
     <use xlink:href="#m90005c6bd6" x="864.95187" y="337.749006" style="fill: #1f77b4; stroke: #1f77b4"/>
     <use xlink:href="#m90005c6bd6" x="872.747338" y="337.115466" style="fill: #1f77b4; stroke: #1f77b4"/>
     <use xlink:href="#m90005c6bd6" x="880.542806" y="336.637218" style="fill: #1f77b4; stroke: #1f77b4"/>
     <use xlink:href="#m90005c6bd6" x="888.338274" y="336.161776" style="fill: #1f77b4; stroke: #1f77b4"/>
     <use xlink:href="#m90005c6bd6" x="896.133742" y="336.039572" style="fill: #1f77b4; stroke: #1f77b4"/>
     <use xlink:href="#m90005c6bd6" x="903.92921" y="335.591214" style="fill: #1f77b4; stroke: #1f77b4"/>
     <use xlink:href="#m90005c6bd6" x="911.724678" y="335.333172" style="fill: #1f77b4; stroke: #1f77b4"/>
     <use xlink:href="#m90005c6bd6" x="919.520146" y="334.949717" style="fill: #1f77b4; stroke: #1f77b4"/>
     <use xlink:href="#m90005c6bd6" x="927.315614" y="334.574808" style="fill: #1f77b4; stroke: #1f77b4"/>
     <use xlink:href="#m90005c6bd6" x="935.111081" y="334.194016" style="fill: #1f77b4; stroke: #1f77b4"/>
     <use xlink:href="#m90005c6bd6" x="942.906549" y="333.253183" style="fill: #1f77b4; stroke: #1f77b4"/>
     <use xlink:href="#m90005c6bd6" x="950.702017" y="333.248255" style="fill: #1f77b4; stroke: #1f77b4"/>
     <use xlink:href="#m90005c6bd6" x="958.497485" y="333.103172" style="fill: #1f77b4; stroke: #1f77b4"/>
     <use xlink:href="#m90005c6bd6" x="966.292953" y="332.760811" style="fill: #1f77b4; stroke: #1f77b4"/>
     <use xlink:href="#m90005c6bd6" x="974.088421" y="332.603188" style="fill: #1f77b4; stroke: #1f77b4"/>
     <use xlink:href="#m90005c6bd6" x="981.883889" y="331.843504" style="fill: #1f77b4; stroke: #1f77b4"/>
     <use xlink:href="#m90005c6bd6" x="989.679357" y="331.727245" style="fill: #1f77b4; stroke: #1f77b4"/>
     <use xlink:href="#m90005c6bd6" x="997.474825" y="331.193857" style="fill: #1f77b4; stroke: #1f77b4"/>
     <use xlink:href="#m90005c6bd6" x="1005.270293" y="330.443834" style="fill: #1f77b4; stroke: #1f77b4"/>
     <use xlink:href="#m90005c6bd6" x="1013.065761" y="330.117245" style="fill: #1f77b4; stroke: #1f77b4"/>
     <use xlink:href="#m90005c6bd6" x="1020.861229" y="328.260904" style="fill: #1f77b4; stroke: #1f77b4"/>
     <use xlink:href="#m90005c6bd6" x="1028.656696" y="328.101049" style="fill: #1f77b4; stroke: #1f77b4"/>
     <use xlink:href="#m90005c6bd6" x="1036.452164" y="328.020862" style="fill: #1f77b4; stroke: #1f77b4"/>
     <use xlink:href="#m90005c6bd6" x="1044.247632" y="327.686318" style="fill: #1f77b4; stroke: #1f77b4"/>
     <use xlink:href="#m90005c6bd6" x="1052.0431" y="327.037172" style="fill: #1f77b4; stroke: #1f77b4"/>
     <use xlink:href="#m90005c6bd6" x="1059.838568" y="326.806846" style="fill: #1f77b4; stroke: #1f77b4"/>
     <use xlink:href="#m90005c6bd6" x="1067.634036" y="326.702887" style="fill: #1f77b4; stroke: #1f77b4"/>
     <use xlink:href="#m90005c6bd6" x="1075.429504" y="326.172247" style="fill: #1f77b4; stroke: #1f77b4"/>
     <use xlink:href="#m90005c6bd6" x="1083.224972" y="325.908598" style="fill: #1f77b4; stroke: #1f77b4"/>
     <use xlink:href="#m90005c6bd6" x="1091.02044" y="325.329501" style="fill: #1f77b4; stroke: #1f77b4"/>
     <use xlink:href="#m90005c6bd6" x="1098.815908" y="322.785912" style="fill: #1f77b4; stroke: #1f77b4"/>
     <use xlink:href="#m90005c6bd6" x="1106.611376" y="321.954924" style="fill: #1f77b4; stroke: #1f77b4"/>
     <use xlink:href="#m90005c6bd6" x="1114.406844" y="318.630254" style="fill: #1f77b4; stroke: #1f77b4"/>
     <use xlink:href="#m90005c6bd6" x="1122.202311" y="317.408957" style="fill: #1f77b4; stroke: #1f77b4"/>
     <use xlink:href="#m90005c6bd6" x="1129.997779" y="316.648779" style="fill: #1f77b4; stroke: #1f77b4"/>
     <use xlink:href="#m90005c6bd6" x="1137.793247" y="316.32248" style="fill: #1f77b4; stroke: #1f77b4"/>
     <use xlink:href="#m90005c6bd6" x="1145.588715" y="316.026423" style="fill: #1f77b4; stroke: #1f77b4"/>
     <use xlink:href="#m90005c6bd6" x="1153.384183" y="314.545518" style="fill: #1f77b4; stroke: #1f77b4"/>
     <use xlink:href="#m90005c6bd6" x="1161.179651" y="314.34727" style="fill: #1f77b4; stroke: #1f77b4"/>
     <use xlink:href="#m90005c6bd6" x="1168.975119" y="300.832348" style="fill: #1f77b4; stroke: #1f77b4"/>
     <use xlink:href="#m90005c6bd6" x="1176.770587" y="280.018582" style="fill: #1f77b4; stroke: #1f77b4"/>
     <use xlink:href="#m90005c6bd6" x="1184.566055" y="279.969529" style="fill: #1f77b4; stroke: #1f77b4"/>
     <use xlink:href="#m90005c6bd6" x="1192.361523" y="273.585278" style="fill: #1f77b4; stroke: #1f77b4"/>
     <use xlink:href="#m90005c6bd6" x="1200.156991" y="262.879619" style="fill: #1f77b4; stroke: #1f77b4"/>
     <use xlink:href="#m90005c6bd6" x="1207.952459" y="262.279166" style="fill: #1f77b4; stroke: #1f77b4"/>
     <use xlink:href="#m90005c6bd6" x="1215.747926" y="222.749612" style="fill: #1f77b4; stroke: #1f77b4"/>
     <use xlink:href="#m90005c6bd6" x="1223.543394" y="222.220798" style="fill: #1f77b4; stroke: #1f77b4"/>
     <use xlink:href="#m90005c6bd6" x="1231.338862" y="182.342453" style="fill: #1f77b4; stroke: #1f77b4"/>
     <use xlink:href="#m90005c6bd6" x="1239.13433" y="180.145499" style="fill: #1f77b4; stroke: #1f77b4"/>
     <use xlink:href="#m90005c6bd6" x="1246.929798" y="116.290134" style="fill: #1f77b4; stroke: #1f77b4"/>
     <use xlink:href="#m90005c6bd6" x="1254.725266" y="31.253194" style="fill: #1f77b4; stroke: #1f77b4"/>
    </g>
   </g>
   <g id="line2d_21">
    <path d="M 670.065172 360.26125 
L 670.065172 26.769614 
" clip-path="url(#p30755695cd)" style="fill: none; stroke-dasharray: 7.4,3.2; stroke-dashoffset: 0; stroke: #ff7f0e; stroke-width: 2"/>
   </g>
   <g id="line2d_22">
    <path d="M 475.178474 360.26125 
L 475.178474 26.424723 
L 864.95187 26.424723 
L 864.95187 360.26125 
" clip-path="url(#p30755695cd)" style="fill: none; stroke-dasharray: 7.4,3.2; stroke-dashoffset: 0; stroke: #2ca02c; stroke-width: 2"/>
   </g>
   <g id="line2d_23">
    <defs>
     <path id="m6b6b792f61" d="M 0 -5 
L -1.12257 -1.545085 
L -4.755283 -1.545085 
L -1.816356 0.59017 
L -2.938926 4.045085 
L -0 1.90983 
L 2.938926 4.045085 
L 1.816356 0.59017 
L 4.755283 -1.545085 
L 1.12257 -1.545085 
z
" style="stroke: #ff0000; stroke-linejoin: bevel"/>
    </defs>
    <g clip-path="url(#p30755695cd)">
     <use xlink:href="#m6b6b792f61" x="93.200546" y="358.813806" style="fill: #ff0000; stroke: #ff0000; stroke-linejoin: bevel"/>
     <use xlink:href="#m6b6b792f61" x="163.359758" y="356.350026" style="fill: #ff0000; stroke: #ff0000; stroke-linejoin: bevel"/>
     <use xlink:href="#m6b6b792f61" x="241.314437" y="353.758178" style="fill: #ff0000; stroke: #ff0000; stroke-linejoin: bevel"/>
     <use xlink:href="#m6b6b792f61" x="319.269116" y="351.778662" style="fill: #ff0000; stroke: #ff0000; stroke-linejoin: bevel"/>
     <use xlink:href="#m6b6b792f61" x="397.223795" y="350.4367" style="fill: #ff0000; stroke: #ff0000; stroke-linejoin: bevel"/>
     <use xlink:href="#m6b6b792f61" x="475.178474" y="348.900548" style="fill: #ff0000; stroke: #ff0000; stroke-linejoin: bevel"/>
     <use xlink:href="#m6b6b792f61" x="553.133154" y="345.984743" style="fill: #ff0000; stroke: #ff0000; stroke-linejoin: bevel"/>
     <use xlink:href="#m6b6b792f61" x="709.042512" y="343.702942" style="fill: #ff0000; stroke: #ff0000; stroke-linejoin: bevel"/>
     <use xlink:href="#m6b6b792f61" x="864.95187" y="337.749006" style="fill: #ff0000; stroke: #ff0000; stroke-linejoin: bevel"/>
     <use xlink:href="#m6b6b792f61" x="1020.861229" y="328.260904" style="fill: #ff0000; stroke: #ff0000; stroke-linejoin: bevel"/>
     <use xlink:href="#m6b6b792f61" x="1176.770587" y="280.018582" style="fill: #ff0000; stroke: #ff0000; stroke-linejoin: bevel"/>
    </g>
   </g>
   <g id="patch_3">
    <path d="M 89.302813 360.26125 
L 89.302813 26.769614 
" style="fill: none; stroke: #000000; stroke-width: 0.8; stroke-linejoin: miter; stroke-linecap: square"/>
   </g>
   <g id="patch_4">
    <path d="M 1258.623 360.26125 
L 1258.623 26.769614 
" style="fill: none; stroke: #000000; stroke-width: 0.8; stroke-linejoin: miter; stroke-linecap: square"/>
   </g>
   <g id="patch_5">
    <path d="M 89.302813 360.26125 
L 1258.623 360.26125 
" style="fill: none; stroke: #000000; stroke-width: 0.8; stroke-linejoin: miter; stroke-linecap: square"/>
   </g>
   <g id="patch_6">
    <path d="M 89.302813 26.769614 
L 1258.623 26.769614 
" style="fill: none; stroke: #000000; stroke-width: 0.8; stroke-linejoin: miter; stroke-linecap: square"/>
   </g>
   <g id="legend_1">
    <g id="patch_7">
     <path d="M 103.302813 160.478989 
L 400.746563 160.478989 
Q 404.746563 160.478989 404.746563 156.478989 
L 404.746563 40.769614 
Q 404.746563 36.769614 400.746563 36.769614 
L 103.302813 36.769614 
Q 99.302813 36.769614 99.302813 40.769614 
L 99.302813 156.478989 
Q 99.302813 160.478989 103.302813 160.478989 
z
" style="fill: #ffffff; opacity: 0.8; stroke: #cccccc; stroke-linejoin: miter"/>
    </g>
    <g id="line2d_24">
     <path d="M 107.302813 52.966489 
L 127.302813 52.966489 
L 147.302813 52.966489 
" style="fill: none; stroke: #1f77b4; stroke-width: 1.5; stroke-linecap: square"/>
     <g>
      <use xlink:href="#m90005c6bd6" x="127.302813" y="52.966489" style="fill: #1f77b4; stroke: #1f77b4"/>
     </g>
    </g>
    <g id="text_22">
     <!-- Sliced area -->
     <g transform="translate(163.302813 59.966489) scale(0.2 -0.2)">
      <use xlink:href="#DejaVuSerif-53"/>
      <use xlink:href="#DejaVuSerif-6c" x="68.505859"/>
      <use xlink:href="#DejaVuSerif-69" x="100.488281"/>
      <use xlink:href="#DejaVuSerif-63" x="132.470703"/>
      <use xlink:href="#DejaVuSerif-65" x="188.476562"/>
      <use xlink:href="#DejaVuSerif-64" x="247.65625"/>
      <use xlink:href="#DejaVuSerif-20" x="311.669922"/>
      <use xlink:href="#DejaVuSerif-61" x="343.457031"/>
      <use xlink:href="#DejaVuSerif-72" x="403.076172"/>
      <use xlink:href="#DejaVuSerif-65" x="450.878906"/>
      <use xlink:href="#DejaVuSerif-61" x="510.058594"/>
     </g>
    </g>
    <g id="line2d_25">
     <path d="M 107.302813 82.322739 
L 127.302813 82.322739 
L 147.302813 82.322739 
" style="fill: none; stroke-dasharray: 7.4,3.2; stroke-dashoffset: 0; stroke: #ff7f0e; stroke-width: 2"/>
    </g>
    <g id="text_23">
     <!-- Dual-model separator -->
     <g transform="translate(163.302813 89.322739) scale(0.2 -0.2)">
      <defs>
       <path id="DejaVuSerif-44" d="M 1581 331 
L 2163 331 
Q 3072 331 3558 850 
Q 4044 1369 4044 2338 
Q 4044 3306 3559 3818 
Q 3075 4331 2163 4331 
L 1581 4331 
L 1581 331 
z
M 353 0 
L 353 331 
L 947 331 
L 947 4331 
L 353 4331 
L 353 4666 
L 2209 4666 
Q 3416 4666 4089 4050 
Q 4763 3434 4763 2338 
Q 4763 1238 4088 619 
Q 3413 0 2209 0 
L 353 0 
z
" transform="scale(0.015625)"/>
       <path id="DejaVuSerif-2d" d="M 281 1959 
L 1881 1959 
L 1881 1472 
L 281 1472 
L 281 1959 
z
" transform="scale(0.015625)"/>
      </defs>
      <use xlink:href="#DejaVuSerif-44"/>
      <use xlink:href="#DejaVuSerif-75" x="80.175781"/>
      <use xlink:href="#DejaVuSerif-61" x="144.580078"/>
      <use xlink:href="#DejaVuSerif-6c" x="204.199219"/>
      <use xlink:href="#DejaVuSerif-2d" x="236.181641"/>
      <use xlink:href="#DejaVuSerif-6d" x="269.970703"/>
      <use xlink:href="#DejaVuSerif-6f" x="364.794922"/>
      <use xlink:href="#DejaVuSerif-64" x="425"/>
      <use xlink:href="#DejaVuSerif-65" x="489.013672"/>
      <use xlink:href="#DejaVuSerif-6c" x="548.193359"/>
      <use xlink:href="#DejaVuSerif-20" x="580.175781"/>
      <use xlink:href="#DejaVuSerif-73" x="611.962891"/>
      <use xlink:href="#DejaVuSerif-65" x="663.28125"/>
      <use xlink:href="#DejaVuSerif-70" x="722.460938"/>
      <use xlink:href="#DejaVuSerif-61" x="786.474609"/>
      <use xlink:href="#DejaVuSerif-72" x="846.09375"/>
      <use xlink:href="#DejaVuSerif-61" x="893.896484"/>
      <use xlink:href="#DejaVuSerif-74" x="953.515625"/>
      <use xlink:href="#DejaVuSerif-6f" x="993.701172"/>
      <use xlink:href="#DejaVuSerif-72" x="1053.90625"/>
     </g>
    </g>
    <g id="line2d_26">
     <path d="M 107.302813 111.678989 
L 127.302813 111.678989 
L 147.302813 111.678989 
" style="fill: none; stroke-dasharray: 7.4,3.2; stroke-dashoffset: 0; stroke: #2ca02c; stroke-width: 2"/>
    </g>
    <g id="text_24">
     <!-- Triple-model separator -->
     <g transform="translate(163.302813 118.678989) scale(0.2 -0.2)">
      <defs>
       <path id="DejaVuSerif-54" d="M 1222 0 
L 1222 331 
L 1819 331 
L 1819 4294 
L 447 4294 
L 447 3566 
L 63 3566 
L 63 4666 
L 4206 4666 
L 4206 3566 
L 3822 3566 
L 3822 4294 
L 2450 4294 
L 2450 331 
L 3047 331 
L 3047 0 
L 1222 0 
z
" transform="scale(0.015625)"/>
      </defs>
      <use xlink:href="#DejaVuSerif-54"/>
      <use xlink:href="#DejaVuSerif-72" x="66.699219"/>
      <use xlink:href="#DejaVuSerif-69" x="114.501953"/>
      <use xlink:href="#DejaVuSerif-70" x="146.484375"/>
      <use xlink:href="#DejaVuSerif-6c" x="210.498047"/>
      <use xlink:href="#DejaVuSerif-65" x="242.480469"/>
      <use xlink:href="#DejaVuSerif-2d" x="301.660156"/>
      <use xlink:href="#DejaVuSerif-6d" x="335.449219"/>
      <use xlink:href="#DejaVuSerif-6f" x="430.273438"/>
      <use xlink:href="#DejaVuSerif-64" x="490.478516"/>
      <use xlink:href="#DejaVuSerif-65" x="554.492188"/>
      <use xlink:href="#DejaVuSerif-6c" x="613.671875"/>
      <use xlink:href="#DejaVuSerif-20" x="645.654297"/>
      <use xlink:href="#DejaVuSerif-73" x="677.441406"/>
      <use xlink:href="#DejaVuSerif-65" x="728.759766"/>
      <use xlink:href="#DejaVuSerif-70" x="787.939453"/>
      <use xlink:href="#DejaVuSerif-61" x="851.953125"/>
      <use xlink:href="#DejaVuSerif-72" x="911.572266"/>
      <use xlink:href="#DejaVuSerif-61" x="959.375"/>
      <use xlink:href="#DejaVuSerif-74" x="1018.994141"/>
      <use xlink:href="#DejaVuSerif-6f" x="1059.179688"/>
      <use xlink:href="#DejaVuSerif-72" x="1119.384766"/>
     </g>
    </g>
    <g id="line2d_27">
     <g>
      <use xlink:href="#m6b6b792f61" x="127.302813" y="141.035239" style="fill: #ff0000; stroke: #ff0000; stroke-linejoin: bevel"/>
     </g>
    </g>
    <g id="text_25">
     <!-- Slice sampling points -->
     <g transform="translate(163.302813 148.035239) scale(0.2 -0.2)">
      <use xlink:href="#DejaVuSerif-53"/>
      <use xlink:href="#DejaVuSerif-6c" x="68.505859"/>
      <use xlink:href="#DejaVuSerif-69" x="100.488281"/>
      <use xlink:href="#DejaVuSerif-63" x="132.470703"/>
      <use xlink:href="#DejaVuSerif-65" x="188.476562"/>
      <use xlink:href="#DejaVuSerif-20" x="247.65625"/>
      <use xlink:href="#DejaVuSerif-73" x="279.443359"/>
      <use xlink:href="#DejaVuSerif-61" x="330.761719"/>
      <use xlink:href="#DejaVuSerif-6d" x="390.380859"/>
      <use xlink:href="#DejaVuSerif-70" x="485.205078"/>
      <use xlink:href="#DejaVuSerif-6c" x="549.21875"/>
      <use xlink:href="#DejaVuSerif-69" x="581.201172"/>
      <use xlink:href="#DejaVuSerif-6e" x="613.183594"/>
      <use xlink:href="#DejaVuSerif-67" x="677.587891"/>
      <use xlink:href="#DejaVuSerif-20" x="741.601562"/>
      <use xlink:href="#DejaVuSerif-70" x="773.388672"/>
      <use xlink:href="#DejaVuSerif-6f" x="837.402344"/>
      <use xlink:href="#DejaVuSerif-69" x="897.607422"/>
      <use xlink:href="#DejaVuSerif-6e" x="929.589844"/>
      <use xlink:href="#DejaVuSerif-74" x="993.994141"/>
      <use xlink:href="#DejaVuSerif-73" x="1034.179688"/>
     </g>
    </g>
   </g>
  </g>
 </g>
 <defs>
  <clipPath id="p30755695cd">
   <rect x="89.302813" y="26.769614" width="1169.320187" height="333.491636"/>
  </clipPath>
 </defs>
</svg>
